M48
; DRILL file {KiCad (7.0.0)} date Thu Jun  8 20:43:25 2023
; FORMAT={-:-/ absolute / inch / decimal}
; #@! TF.CreationDate,2023-06-08T20:43:25-04:00
; #@! TF.GenerationSoftware,Kicad,Pcbnew,(7.0.0)
; #@! TF.FileFunction,Plated,1,4,PTH
FMAT,2
INCH
; #@! TA.AperFunction,Plated,PTH,ViaDrill
T1C0.0157
; #@! TA.AperFunction,Plated,PTH,ComponentDrill
T2C0.0236
; #@! TA.AperFunction,Plated,PTH,ComponentDrill
T3C0.0315
; #@! TA.AperFunction,Plated,PTH,ComponentDrill
T4C0.0335
; #@! TA.AperFunction,Plated,PTH,ComponentDrill
T5C0.0394
%
G90
G05
T1
X2.6235Y-3.4582
X2.7087Y-3.7953
X2.7141Y-3.3228
X2.9252Y-3.7717
X2.9252Y-4.0576
X2.9606Y-3.6811
X3.0091Y-4.081
X3.0827Y-3.8912
X3.1142Y-4.248
X3.1614Y-4.0709
X3.1614Y-4.1654
X3.2323Y-4.0709
X3.2323Y-4.1654
X3.315Y-3.6905
X3.3543Y-3.9134
X3.3991Y-4.2992
X3.4567Y-3.8504
X3.5591Y-3.8637
X3.5709Y-4.1024
X3.5709Y-4.1378
X3.5709Y-4.1732
X3.6063Y-4.1024
X3.6063Y-4.1378
X3.6063Y-4.1732
X3.6417Y-4.1024
X3.6417Y-4.1378
X3.6417Y-4.1732
X3.6575Y-4.3346
X3.6575Y-4.4567
X3.6693Y-3.9252
X3.6969Y-3.7141
X3.7008Y-3.8071
X3.7441Y-3.5157
X3.7717Y-4.2795
X3.7795Y-3.9646
X3.7859Y-4.5197
X3.811Y-4.0945
X3.8268Y-4.1693
X3.8386Y-4.0157
X3.8661Y-4.1693
X3.9213Y-3.5906
X3.9331Y-4.0551
X3.9606Y-4.1299
X3.9606Y-4.2795
X4.0Y-4.0619
X4.0Y-4.0984
X4.0118Y-3.7874
X4.0157Y-3.5157
X4.0433Y-3.7323
X4.122Y-3.9882
X4.126Y-3.4094
X4.1457Y-3.4843
X4.2461Y-3.9567
X4.2528Y-4.0787
X4.2893Y-4.0787
X4.3257Y-4.0787
X4.3622Y-4.0787
X4.374Y-3.7953
X4.815Y-3.5039
X4.878Y-3.8164
X5.0925Y-3.9449
X5.1299Y-3.9449
X5.1654Y-3.9449
X5.3937Y-3.6216
T3
X5.4213Y-3.8961
X5.4213Y-3.9961
X5.4213Y-4.0961
X5.4213Y-4.1961
X5.7213Y-3.8961
X5.7213Y-3.9961
X5.7213Y-4.0961
X5.7213Y-4.1961
T4
X2.5418Y-3.7598
X2.5418Y-3.9567
T5
X4.1474Y-3.6939
X4.2474Y-3.6939
X4.3474Y-3.6939
T2
G00X2.4218Y-3.7205
M15
G01X2.4493Y-3.7205
M16
G05
G00X2.4493Y-3.9961
M15
G01X2.4218Y-3.9961
M16
G05
T0
M30
