%TF.GenerationSoftware,KiCad,Pcbnew,(7.0.0)*%
%TF.CreationDate,2023-06-08T20:43:27-04:00*%
%TF.ProjectId,tft controller new,74667420-636f-46e7-9472-6f6c6c657220,rev?*%
%TF.SameCoordinates,Original*%
%TF.FileFunction,Copper,L1,Top*%
%TF.FilePolarity,Positive*%
%FSLAX46Y46*%
G04 Gerber Fmt 4.6, Leading zero omitted, Abs format (unit mm)*
G04 Created by KiCad (PCBNEW (7.0.0)) date 2023-06-08 20:43:27*
%MOMM*%
%LPD*%
G01*
G04 APERTURE LIST*
G04 Aperture macros list*
%AMRoundRect*
0 Rectangle with rounded corners*
0 $1 Rounding radius*
0 $2 $3 $4 $5 $6 $7 $8 $9 X,Y pos of 4 corners*
0 Add a 4 corners polygon primitive as box body*
4,1,4,$2,$3,$4,$5,$6,$7,$8,$9,$2,$3,0*
0 Add four circle primitives for the rounded corners*
1,1,$1+$1,$2,$3*
1,1,$1+$1,$4,$5*
1,1,$1+$1,$6,$7*
1,1,$1+$1,$8,$9*
0 Add four rect primitives between the rounded corners*
20,1,$1+$1,$2,$3,$4,$5,0*
20,1,$1+$1,$4,$5,$6,$7,0*
20,1,$1+$1,$6,$7,$8,$9,0*
20,1,$1+$1,$8,$9,$2,$3,0*%
G04 Aperture macros list end*
%TA.AperFunction,SMDPad,CuDef*%
%ADD10RoundRect,0.237500X0.300000X0.237500X-0.300000X0.237500X-0.300000X-0.237500X0.300000X-0.237500X0*%
%TD*%
%TA.AperFunction,ComponentPad*%
%ADD11O,1.600000X1.600000*%
%TD*%
%TA.AperFunction,ComponentPad*%
%ADD12R,1.600000X1.600000*%
%TD*%
%TA.AperFunction,SMDPad,CuDef*%
%ADD13RoundRect,0.237500X0.250000X0.237500X-0.250000X0.237500X-0.250000X-0.237500X0.250000X-0.237500X0*%
%TD*%
%TA.AperFunction,SMDPad,CuDef*%
%ADD14R,1.600000X1.400000*%
%TD*%
%TA.AperFunction,SMDPad,CuDef*%
%ADD15RoundRect,0.237500X0.237500X-0.250000X0.237500X0.250000X-0.237500X0.250000X-0.237500X-0.250000X0*%
%TD*%
%TA.AperFunction,SMDPad,CuDef*%
%ADD16RoundRect,0.237500X0.237500X-0.300000X0.237500X0.300000X-0.237500X0.300000X-0.237500X-0.300000X0*%
%TD*%
%TA.AperFunction,SMDPad,CuDef*%
%ADD17R,2.000000X1.500000*%
%TD*%
%TA.AperFunction,SMDPad,CuDef*%
%ADD18R,2.000000X3.800000*%
%TD*%
%TA.AperFunction,SMDPad,CuDef*%
%ADD19RoundRect,0.237500X-0.250000X-0.237500X0.250000X-0.237500X0.250000X0.237500X-0.250000X0.237500X0*%
%TD*%
%TA.AperFunction,ComponentPad*%
%ADD20R,1.700000X1.700000*%
%TD*%
%TA.AperFunction,ComponentPad*%
%ADD21O,1.700000X1.700000*%
%TD*%
%TA.AperFunction,SMDPad,CuDef*%
%ADD22RoundRect,0.050000X0.050000X-0.387500X0.050000X0.387500X-0.050000X0.387500X-0.050000X-0.387500X0*%
%TD*%
%TA.AperFunction,SMDPad,CuDef*%
%ADD23RoundRect,0.050000X0.387500X-0.050000X0.387500X0.050000X-0.387500X0.050000X-0.387500X-0.050000X0*%
%TD*%
%TA.AperFunction,SMDPad,CuDef*%
%ADD24R,3.200000X3.200000*%
%TD*%
%TA.AperFunction,SMDPad,CuDef*%
%ADD25RoundRect,0.237500X-0.300000X-0.237500X0.300000X-0.237500X0.300000X0.237500X-0.300000X0.237500X0*%
%TD*%
%TA.AperFunction,SMDPad,CuDef*%
%ADD26RoundRect,0.237500X-0.237500X0.300000X-0.237500X-0.300000X0.237500X-0.300000X0.237500X0.300000X0*%
%TD*%
%TA.AperFunction,SMDPad,CuDef*%
%ADD27RoundRect,0.150000X-0.512500X-0.150000X0.512500X-0.150000X0.512500X0.150000X-0.512500X0.150000X0*%
%TD*%
%TA.AperFunction,SMDPad,CuDef*%
%ADD28R,2.400000X1.600000*%
%TD*%
%TA.AperFunction,SMDPad,CuDef*%
%ADD29R,1.600000X2.400000*%
%TD*%
%TA.AperFunction,SMDPad,CuDef*%
%ADD30R,0.300000X1.200000*%
%TD*%
%TA.AperFunction,SMDPad,CuDef*%
%ADD31R,1.150000X1.000000*%
%TD*%
%TA.AperFunction,SMDPad,CuDef*%
%ADD32R,1.350000X0.400000*%
%TD*%
%TA.AperFunction,ComponentPad*%
%ADD33O,1.900000X1.200000*%
%TD*%
%TA.AperFunction,SMDPad,CuDef*%
%ADD34R,1.900000X1.200000*%
%TD*%
%TA.AperFunction,ComponentPad*%
%ADD35C,1.450000*%
%TD*%
%TA.AperFunction,SMDPad,CuDef*%
%ADD36R,1.900000X1.500000*%
%TD*%
%TA.AperFunction,SMDPad,CuDef*%
%ADD37RoundRect,0.125000X-0.262500X-0.125000X0.262500X-0.125000X0.262500X0.125000X-0.262500X0.125000X0*%
%TD*%
%TA.AperFunction,SMDPad,CuDef*%
%ADD38R,3.400000X4.000000*%
%TD*%
%TA.AperFunction,ViaPad*%
%ADD39C,0.800000*%
%TD*%
%TA.AperFunction,Conductor*%
%ADD40C,0.127000*%
%TD*%
%TA.AperFunction,Conductor*%
%ADD41C,0.200000*%
%TD*%
%TA.AperFunction,Conductor*%
%ADD42C,0.500000*%
%TD*%
%TA.AperFunction,Conductor*%
%ADD43C,0.300000*%
%TD*%
%TA.AperFunction,Conductor*%
%ADD44C,0.400000*%
%TD*%
%TA.AperFunction,Conductor*%
%ADD45C,0.250000*%
%TD*%
G04 APERTURE END LIST*
D10*
%TO.P,C3,1*%
%TO.N,+3V3*%
X98862500Y-108700000D03*
%TO.P,C3,2*%
%TO.N,GND*%
X97137500Y-108700000D03*
%TD*%
D11*
%TO.P,SW3,8*%
%TO.N,+2V8*%
X145319999Y-98959999D03*
%TO.P,SW3,7*%
X145319999Y-101499999D03*
%TO.P,SW3,6*%
X145319999Y-104039999D03*
%TO.P,SW3,5*%
X145319999Y-106579999D03*
%TO.P,SW3,4*%
%TO.N,/TFT LCD Connections/TFT_IM3*%
X137699999Y-106579999D03*
%TO.P,SW3,3*%
%TO.N,/TFT LCD Connections/TFT_IM2*%
X137699999Y-104039999D03*
%TO.P,SW3,2*%
%TO.N,/TFT LCD Connections/TFT_IM1*%
X137699999Y-101499999D03*
D12*
%TO.P,SW3,1*%
%TO.N,/TFT LCD Connections/TFT_IM0*%
X137699999Y-98959999D03*
%TD*%
D13*
%TO.P,R2,1*%
%TO.N,/RP2040 Connections/RP_USB_D+*%
X83712500Y-97100000D03*
%TO.P,R2,2*%
%TO.N,/RP2040 Connections/USB_D+*%
X81887500Y-97100000D03*
%TD*%
D14*
%TO.P,SW1,1,A*%
%TO.N,/RP2040 Connections/SW_TO_RUN*%
X118799999Y-85999999D03*
X125999999Y-85999999D03*
%TO.P,SW1,2,B*%
%TO.N,GND*%
X118799999Y-88999999D03*
X125999999Y-88999999D03*
%TD*%
D15*
%TO.P,R6,1*%
%TO.N,/RP2040 Connections/USB_BOOT_TO_R*%
X106800000Y-89000000D03*
%TO.P,R6,2*%
%TO.N,GND*%
X106800000Y-87175000D03*
%TD*%
D16*
%TO.P,C16,1*%
%TO.N,+2V8*%
X128600000Y-98662500D03*
%TO.P,C16,2*%
%TO.N,GND*%
X128600000Y-96937500D03*
%TD*%
%TO.P,C17,1*%
%TO.N,+2V8*%
X127000000Y-98662500D03*
%TO.P,C17,2*%
%TO.N,GND*%
X127000000Y-96937500D03*
%TD*%
D14*
%TO.P,SW2,1,A*%
%TO.N,/RP2040 Connections/~{RP_FLASH_CS}*%
X108899999Y-85999999D03*
X116099999Y-85999999D03*
%TO.P,SW2,2,B*%
%TO.N,/RP2040 Connections/USB_BOOT_TO_R*%
X108899999Y-88999999D03*
X116099999Y-88999999D03*
%TD*%
D13*
%TO.P,R7,1*%
%TO.N,+3V3*%
X115412500Y-96400000D03*
%TO.P,R7,2*%
%TO.N,/TFT LCD Connections/LEDA*%
X113587500Y-96400000D03*
%TD*%
D16*
%TO.P,C1,1*%
%TO.N,+3V3*%
X89031260Y-99862500D03*
%TO.P,C1,2*%
%TO.N,GND*%
X89031260Y-98137500D03*
%TD*%
D10*
%TO.P,C6,1*%
%TO.N,+3V3*%
X83700000Y-98800000D03*
%TO.P,C6,2*%
%TO.N,GND*%
X81975000Y-98800000D03*
%TD*%
D16*
%TO.P,C11,1*%
%TO.N,+1V1*%
X85600000Y-95462500D03*
%TO.P,C11,2*%
%TO.N,GND*%
X85600000Y-93737500D03*
%TD*%
D17*
%TO.P,U3,1,GND*%
%TO.N,GND*%
X70799999Y-84399999D03*
%TO.P,U3,2,VO*%
%TO.N,+3V3*%
X70799999Y-86699999D03*
D18*
X77099999Y-86699999D03*
D17*
%TO.P,U3,3,VI*%
%TO.N,VBUS*%
X70799999Y-88999999D03*
%TD*%
D19*
%TO.P,R5,1*%
%TO.N,/RP2040 Connections/RP_RUN*%
X124175000Y-83900000D03*
%TO.P,R5,2*%
%TO.N,/RP2040 Connections/SW_TO_RUN*%
X126000000Y-83900000D03*
%TD*%
D16*
%TO.P,C18,1*%
%TO.N,+2V8*%
X125350000Y-98662500D03*
%TO.P,C18,2*%
%TO.N,GND*%
X125350000Y-96937500D03*
%TD*%
D20*
%TO.P,J3,1,Pin_1*%
%TO.N,/RP2040 Connections/RP_SWCLK*%
X110424999Y-93824999D03*
D21*
%TO.P,J3,2,Pin_2*%
%TO.N,GND*%
X107884999Y-93824999D03*
%TO.P,J3,3,Pin_3*%
%TO.N,/RP2040 Connections/RP_SWD*%
X105344999Y-93824999D03*
%TD*%
D22*
%TO.P,U2,1,IOVDD*%
%TO.N,+3V3*%
X89031260Y-108537500D03*
%TO.P,U2,2,GPIO0*%
%TO.N,TFT_DB0*%
X89431260Y-108537500D03*
%TO.P,U2,3,GPIO1*%
%TO.N,TFT_DB1*%
X89831260Y-108537500D03*
%TO.P,U2,4,GPIO2*%
%TO.N,TFT_DB2*%
X90231260Y-108537500D03*
%TO.P,U2,5,GPIO3*%
%TO.N,TFT_DB3*%
X90631260Y-108537500D03*
%TO.P,U2,6,GPIO4*%
%TO.N,TFT_DB4*%
X91031260Y-108537500D03*
%TO.P,U2,7,GPIO5*%
%TO.N,TFT_DB5*%
X91431260Y-108537500D03*
%TO.P,U2,8,GPIO6*%
%TO.N,TFT_DB6*%
X91831260Y-108537500D03*
%TO.P,U2,9,GPIO7*%
%TO.N,TFT_DB7*%
X92231260Y-108537500D03*
%TO.P,U2,10,IOVDD*%
%TO.N,+3V3*%
X92631260Y-108537500D03*
%TO.P,U2,11,GPIO8*%
%TO.N,TFT_DB8*%
X93031260Y-108537500D03*
%TO.P,U2,12,GPIO9*%
%TO.N,TFT_DB9*%
X93431260Y-108537500D03*
%TO.P,U2,13,GPIO10*%
%TO.N,TFT_DB10*%
X93831260Y-108537500D03*
%TO.P,U2,14,GPIO11*%
%TO.N,TFT_DB11*%
X94231260Y-108537500D03*
D23*
%TO.P,U2,15,GPIO12*%
%TO.N,TFT_DB12*%
X95068760Y-107700000D03*
%TO.P,U2,16,GPIO13*%
%TO.N,TFT_DB13*%
X95068760Y-107300000D03*
%TO.P,U2,17,GPIO14*%
%TO.N,TFT_DB14*%
X95068760Y-106900000D03*
%TO.P,U2,18,GPIO15*%
%TO.N,TFT_DB15*%
X95068760Y-106500000D03*
%TO.P,U2,19,TESTEN*%
%TO.N,unconnected-(U2-TESTEN-Pad19)*%
X95068760Y-106100000D03*
%TO.P,U2,20,XIN*%
%TO.N,/RP2040 Connections/RP_XIN*%
X95068760Y-105700000D03*
%TO.P,U2,21,XOUT*%
%TO.N,/RP2040 Connections/RP_XOUT*%
X95068760Y-105300000D03*
%TO.P,U2,22,IOVDD*%
%TO.N,+3V3*%
X95068760Y-104900000D03*
%TO.P,U2,23,DVDD*%
%TO.N,+1V1*%
X95068760Y-104500000D03*
%TO.P,U2,24,SWCLK*%
%TO.N,/RP2040 Connections/RP_SWCLK*%
X95068760Y-104100000D03*
%TO.P,U2,25,SWD*%
%TO.N,/RP2040 Connections/RP_SWD*%
X95068760Y-103700000D03*
%TO.P,U2,26,RUN*%
%TO.N,/RP2040 Connections/RP_RUN*%
X95068760Y-103300000D03*
%TO.P,U2,27,GPIO16*%
%TO.N,TFT_DB16*%
X95068760Y-102900000D03*
%TO.P,U2,28,GPIO17*%
%TO.N,TFT_DB17*%
X95068760Y-102500000D03*
D22*
%TO.P,U2,29,GPIO18*%
%TO.N,TFT_RESET*%
X94231260Y-101662500D03*
%TO.P,U2,30,GPIO19*%
%TO.N,TFT_VSYNC*%
X93831260Y-101662500D03*
%TO.P,U2,31,GPIO20*%
%TO.N,TFT_HSYNC*%
X93431260Y-101662500D03*
%TO.P,U2,32,GPIO21*%
%TO.N,TFT_DOTCLK*%
X93031260Y-101662500D03*
%TO.P,U2,33,IOVDD*%
%TO.N,+3V3*%
X92631260Y-101662500D03*
%TO.P,U2,34,GPIO22*%
%TO.N,TFT_DE*%
X92231260Y-101662500D03*
%TO.P,U2,35,GPIO23*%
%TO.N,TFT_RD*%
X91831260Y-101662500D03*
%TO.P,U2,36,GPIO24*%
%TO.N,TFT_WR*%
X91431260Y-101662500D03*
%TO.P,U2,37,GPIO25*%
%TO.N,TFT_DC*%
X91031260Y-101662500D03*
%TO.P,U2,38,GPIO26_ADC0*%
%TO.N,TFT_CS*%
X90631260Y-101662500D03*
%TO.P,U2,39,GPIO27_ADC1*%
%TO.N,TFT_TE*%
X90231260Y-101662500D03*
%TO.P,U2,40,GPIO28_ADC2*%
%TO.N,unconnected-(U2-GPIO28_ADC2-Pad40)*%
X89831260Y-101662500D03*
%TO.P,U2,41,GPIO29_ADC3*%
%TO.N,unconnected-(U2-GPIO29_ADC3-Pad41)*%
X89431260Y-101662500D03*
%TO.P,U2,42,IOVDD*%
%TO.N,+3V3*%
X89031260Y-101662500D03*
D23*
%TO.P,U2,43,ADC_AVDD*%
X88193760Y-102500000D03*
%TO.P,U2,44,VREG_IN*%
X88193760Y-102900000D03*
%TO.P,U2,45,VREG_VOUT*%
%TO.N,+1V1*%
X88193760Y-103300000D03*
%TO.P,U2,46,USB_DM*%
%TO.N,/RP2040 Connections/RP_USB_D-*%
X88193760Y-103700000D03*
%TO.P,U2,47,USB_DP*%
%TO.N,/RP2040 Connections/RP_USB_D+*%
X88193760Y-104100000D03*
%TO.P,U2,48,USB_VDD*%
%TO.N,+3V3*%
X88193760Y-104500000D03*
%TO.P,U2,49,IOVDD*%
X88193760Y-104900000D03*
%TO.P,U2,50,DVDD*%
%TO.N,+1V1*%
X88193760Y-105300000D03*
%TO.P,U2,51,QSPI_SD3*%
%TO.N,/RP2040 Connections/RP_FLASH_D3*%
X88193760Y-105700000D03*
%TO.P,U2,52,QSPI_SCLK*%
%TO.N,/RP2040 Connections/RP_FLASH_CLK*%
X88193760Y-106100000D03*
%TO.P,U2,53,QSPI_SD0*%
%TO.N,/RP2040 Connections/RP_FLASH_D0*%
X88193760Y-106500000D03*
%TO.P,U2,54,QSPI_SD2*%
%TO.N,/RP2040 Connections/RP_FLASH_D2*%
X88193760Y-106900000D03*
%TO.P,U2,55,QSPI_SD1*%
%TO.N,/RP2040 Connections/RP_FLASH_D1*%
X88193760Y-107300000D03*
%TO.P,U2,56,QSPI_SS*%
%TO.N,/RP2040 Connections/~{RP_FLASH_CS}*%
X88193760Y-107700000D03*
D24*
%TO.P,U2,57,GND*%
%TO.N,GND*%
X91631259Y-105099999D03*
%TD*%
D25*
%TO.P,C9,1*%
%TO.N,+1V1*%
X98837500Y-101600000D03*
%TO.P,C9,2*%
%TO.N,GND*%
X100562500Y-101600000D03*
%TD*%
D19*
%TO.P,R4,1*%
%TO.N,+3V3*%
X116975000Y-83900000D03*
%TO.P,R4,2*%
%TO.N,/RP2040 Connections/SW_TO_RUN*%
X118800000Y-83900000D03*
%TD*%
D15*
%TO.P,R9,1*%
%TO.N,/TFT LCD Connections/TFT_IM2*%
X141800000Y-93812500D03*
%TO.P,R9,2*%
%TO.N,GND*%
X141800000Y-91987500D03*
%TD*%
%TO.P,R10,1*%
%TO.N,/TFT LCD Connections/TFT_IM1*%
X140100000Y-93812500D03*
%TO.P,R10,2*%
%TO.N,GND*%
X140100000Y-91987500D03*
%TD*%
D26*
%TO.P,C20,1*%
%TO.N,VBUS*%
X70462500Y-95437500D03*
%TO.P,C20,2*%
%TO.N,GND*%
X70462500Y-97162500D03*
%TD*%
D15*
%TO.P,R8,1*%
%TO.N,/TFT LCD Connections/TFT_IM3*%
X143500000Y-93812500D03*
%TO.P,R8,2*%
%TO.N,GND*%
X143500000Y-91987500D03*
%TD*%
D10*
%TO.P,C14,1*%
%TO.N,VBUS*%
X68362500Y-89000000D03*
%TO.P,C14,2*%
%TO.N,GND*%
X66637500Y-89000000D03*
%TD*%
D19*
%TO.P,R1,1*%
%TO.N,/RP2040 Connections/Y_XOUT*%
X98525000Y-96200000D03*
%TO.P,R1,2*%
%TO.N,/RP2040 Connections/RP_XOUT*%
X100350000Y-96200000D03*
%TD*%
D27*
%TO.P,U4,1,VIN*%
%TO.N,VBUS*%
X70462500Y-91750000D03*
%TO.P,U4,2,GND*%
%TO.N,GND*%
X70462500Y-92700000D03*
%TO.P,U4,3,ON/~{OFF}*%
%TO.N,VBUS*%
X70462500Y-93650000D03*
%TO.P,U4,4,BP*%
%TO.N,/TFT LCD Connections/REG_BP_C*%
X72737500Y-93650000D03*
%TO.P,U4,5,VOUT*%
%TO.N,+2V8*%
X72737500Y-91750000D03*
%TD*%
D28*
%TO.P,DS1,MP*%
%TO.N,N/C*%
X132449999Y-104974999D03*
D29*
X132049999Y-104574999D03*
X104149999Y-104574999D03*
D28*
X103749999Y-104974999D03*
D30*
%TO.P,DS1,50,GND*%
%TO.N,GND*%
X130349999Y-101874999D03*
%TO.P,DS1,49,GND*%
X129849999Y-101874999D03*
%TO.P,DS1,48,GND*%
X129349999Y-101874999D03*
%TO.P,DS1,47,Y-*%
%TO.N,unconnected-(DS1-Y--Pad47)*%
X128849999Y-101874999D03*
%TO.P,DS1,46,Y+*%
%TO.N,unconnected-(DS1-Y+-Pad46)*%
X128349999Y-101874999D03*
%TO.P,DS1,45,X-*%
%TO.N,unconnected-(DS1-X--Pad45)*%
X127849999Y-101874999D03*
%TO.P,DS1,44,X+*%
%TO.N,unconnected-(DS1-X+-Pad44)*%
X127349999Y-101874999D03*
%TO.P,DS1,43,GND*%
%TO.N,GND*%
X126849999Y-101874999D03*
%TO.P,DS1,42,VCI*%
%TO.N,+2V8*%
X126349999Y-101874999D03*
%TO.P,DS1,41,VDDI*%
X125849999Y-101874999D03*
%TO.P,DS1,40,VDDI*%
X125349999Y-101874999D03*
%TO.P,DS1,39,TE*%
%TO.N,TFT_TE*%
X124849999Y-101874999D03*
%TO.P,DS1,38,CS*%
%TO.N,TFT_CS*%
X124349999Y-101874999D03*
%TO.P,DS1,37,DC*%
%TO.N,TFT_DC*%
X123849999Y-101874999D03*
%TO.P,DS1,36,WR*%
%TO.N,TFT_WR*%
X123349999Y-101874999D03*
%TO.P,DS1,35,RD*%
%TO.N,TFT_RD*%
X122849999Y-101874999D03*
%TO.P,DS1,34,SDI*%
%TO.N,unconnected-(DS1-SDI-Pad34)*%
X122349999Y-101874999D03*
%TO.P,DS1,33,SDO*%
%TO.N,unconnected-(DS1-SDO-Pad33)*%
X121849999Y-101874999D03*
%TO.P,DS1,32,DB0*%
%TO.N,TFT_DB0*%
X121349999Y-101874999D03*
%TO.P,DS1,31,DB1*%
%TO.N,TFT_DB1*%
X120849999Y-101874999D03*
%TO.P,DS1,30,DB2*%
%TO.N,TFT_DB2*%
X120349999Y-101874999D03*
%TO.P,DS1,29,DB3*%
%TO.N,TFT_DB3*%
X119849999Y-101874999D03*
%TO.P,DS1,28,DB4*%
%TO.N,TFT_DB4*%
X119349999Y-101874999D03*
%TO.P,DS1,27,DB5*%
%TO.N,TFT_DB5*%
X118849999Y-101874999D03*
%TO.P,DS1,26,DB6*%
%TO.N,TFT_DB6*%
X118349999Y-101874999D03*
%TO.P,DS1,25,DB7*%
%TO.N,TFT_DB7*%
X117849999Y-101874999D03*
%TO.P,DS1,24,DB8*%
%TO.N,TFT_DB8*%
X117349999Y-101874999D03*
%TO.P,DS1,23,DB9*%
%TO.N,TFT_DB9*%
X116849999Y-101874999D03*
%TO.P,DS1,22,DB10*%
%TO.N,TFT_DB10*%
X116349999Y-101874999D03*
%TO.P,DS1,21,DB11*%
%TO.N,TFT_DB11*%
X115849999Y-101874999D03*
%TO.P,DS1,20,DB12*%
%TO.N,TFT_DB12*%
X115349999Y-101874999D03*
%TO.P,DS1,19,DB13*%
%TO.N,TFT_DB13*%
X114849999Y-101874999D03*
%TO.P,DS1,18,DB14*%
%TO.N,TFT_DB14*%
X114349999Y-101874999D03*
%TO.P,DS1,17,DB15*%
%TO.N,TFT_DB15*%
X113849999Y-101874999D03*
%TO.P,DS1,16,DB16*%
%TO.N,TFT_DB16*%
X113349999Y-101874999D03*
%TO.P,DS1,15,DB17*%
%TO.N,TFT_DB17*%
X112849999Y-101874999D03*
%TO.P,DS1,14,DE*%
%TO.N,TFT_DE*%
X112349999Y-101874999D03*
%TO.P,DS1,13,DOTCLK*%
%TO.N,TFT_DOTCLK*%
X111849999Y-101874999D03*
%TO.P,DS1,12,HSYNC*%
%TO.N,TFT_HSYNC*%
X111349999Y-101874999D03*
%TO.P,DS1,11,VSYNC*%
%TO.N,TFT_VSYNC*%
X110849999Y-101874999D03*
%TO.P,DS1,10,RESET*%
%TO.N,TFT_RESET*%
X110349999Y-101874999D03*
%TO.P,DS1,9,IM3*%
%TO.N,/TFT LCD Connections/TFT_IM3*%
X109849999Y-101874999D03*
%TO.P,DS1,8,IM2*%
%TO.N,/TFT LCD Connections/TFT_IM2*%
X109349999Y-101874999D03*
%TO.P,DS1,7,IM1*%
%TO.N,/TFT LCD Connections/TFT_IM1*%
X108849999Y-101874999D03*
%TO.P,DS1,6,IM0*%
%TO.N,/TFT LCD Connections/TFT_IM0*%
X108349999Y-101874999D03*
%TO.P,DS1,5,LEDA4*%
%TO.N,/TFT LCD Connections/LEDA*%
X107849999Y-101874999D03*
%TO.P,DS1,4,LEDA3*%
X107349999Y-101874999D03*
%TO.P,DS1,3,LEDA2*%
X106849999Y-101874999D03*
%TO.P,DS1,2,LEDA1*%
X106349999Y-101874999D03*
%TO.P,DS1,1,LEDK*%
%TO.N,GND*%
X105849999Y-101874999D03*
%TD*%
D16*
%TO.P,C7,1*%
%TO.N,+3V3*%
X87300000Y-95462500D03*
%TO.P,C7,2*%
%TO.N,GND*%
X87300000Y-93737500D03*
%TD*%
%TO.P,C19,1*%
%TO.N,+2V8*%
X130200000Y-98662500D03*
%TO.P,C19,2*%
%TO.N,GND*%
X130200000Y-96937500D03*
%TD*%
D10*
%TO.P,C5,1*%
%TO.N,+3V3*%
X88062500Y-110400000D03*
%TO.P,C5,2*%
%TO.N,GND*%
X86337500Y-110400000D03*
%TD*%
D31*
%TO.P,Y1,1,1*%
%TO.N,/RP2040 Connections/Y_XOUT*%
X98524999Y-94299999D03*
%TO.P,Y1,2,2*%
%TO.N,GND*%
X100274999Y-94299999D03*
%TO.P,Y1,3,3*%
%TO.N,/RP2040 Connections/RP_XIN*%
X100274999Y-92899999D03*
%TO.P,Y1,4,4*%
%TO.N,GND*%
X98524999Y-92899999D03*
%TD*%
D15*
%TO.P,R11,1*%
%TO.N,/TFT LCD Connections/TFT_IM0*%
X138410000Y-93812500D03*
%TO.P,R11,2*%
%TO.N,GND*%
X138410000Y-91987500D03*
%TD*%
D16*
%TO.P,C8,1*%
%TO.N,+3V3*%
X76800000Y-100562500D03*
%TO.P,C8,2*%
%TO.N,GND*%
X76800000Y-98837500D03*
%TD*%
D32*
%TO.P,J1,1,VBUS*%
%TO.N,VBUS*%
X64562499Y-96699999D03*
%TO.P,J1,2,D-*%
%TO.N,/RP2040 Connections/USB_D-*%
X64562499Y-97349999D03*
%TO.P,J1,3,D+*%
%TO.N,/RP2040 Connections/USB_D+*%
X64562499Y-97999999D03*
%TO.P,J1,4,ID*%
%TO.N,unconnected-(J1-ID-Pad4)*%
X64562499Y-98649999D03*
%TO.P,J1,5,GND*%
%TO.N,GND*%
X64562499Y-99299999D03*
D33*
%TO.P,J1,6,Shield*%
X61862499Y-94499999D03*
D34*
X61862499Y-95099999D03*
D35*
X64562500Y-95500000D03*
D36*
X61862499Y-96999999D03*
X61862499Y-98999999D03*
D35*
X64562500Y-100500000D03*
D34*
X61862499Y-100899999D03*
D33*
X61862499Y-101499999D03*
%TD*%
D10*
%TO.P,C10,1*%
%TO.N,+1V1*%
X83700000Y-100600000D03*
%TO.P,C10,2*%
%TO.N,GND*%
X81975000Y-100600000D03*
%TD*%
D25*
%TO.P,C12,1*%
%TO.N,/RP2040 Connections/RP_XIN*%
X101137500Y-90800000D03*
%TO.P,C12,2*%
%TO.N,GND*%
X102862500Y-90800000D03*
%TD*%
D13*
%TO.P,R3,1*%
%TO.N,/RP2040 Connections/RP_USB_D-*%
X83712500Y-95500000D03*
%TO.P,R3,2*%
%TO.N,/RP2040 Connections/USB_D-*%
X81887500Y-95500000D03*
%TD*%
D16*
%TO.P,C2,1*%
%TO.N,+3V3*%
X92631260Y-96062500D03*
%TO.P,C2,2*%
%TO.N,GND*%
X92631260Y-94337500D03*
%TD*%
D37*
%TO.P,U1,1,~{CS}*%
%TO.N,/RP2040 Connections/~{RP_FLASH_CS}*%
X78527500Y-102690000D03*
%TO.P,U1,2,DO(IO1)*%
%TO.N,/RP2040 Connections/RP_FLASH_D1*%
X78527500Y-103960000D03*
%TO.P,U1,3,IO2*%
%TO.N,/RP2040 Connections/RP_FLASH_D2*%
X78527500Y-105230000D03*
%TO.P,U1,4,GND*%
%TO.N,GND*%
X78527500Y-106500000D03*
%TO.P,U1,5,DI(IO0)*%
%TO.N,/RP2040 Connections/RP_FLASH_D0*%
X83852500Y-106500000D03*
%TO.P,U1,6,CLK*%
%TO.N,/RP2040 Connections/RP_FLASH_CLK*%
X83852500Y-105230000D03*
%TO.P,U1,7,IO3*%
%TO.N,/RP2040 Connections/RP_FLASH_D3*%
X83852500Y-103960000D03*
%TO.P,U1,8,VCC*%
%TO.N,+3V3*%
X83852500Y-102690000D03*
D38*
%TO.P,U1,9*%
%TO.N,GND*%
X81189999Y-104594999D03*
%TD*%
D26*
%TO.P,C22,1*%
%TO.N,/TFT LCD Connections/REG_BP_C*%
X72100000Y-95437500D03*
%TO.P,C22,2*%
%TO.N,GND*%
X72100000Y-97162500D03*
%TD*%
D25*
%TO.P,C4,1*%
%TO.N,+3V3*%
X94437500Y-113600000D03*
%TO.P,C4,2*%
%TO.N,GND*%
X96162500Y-113600000D03*
%TD*%
%TO.P,C21,1*%
%TO.N,+2V8*%
X74837500Y-91750000D03*
%TO.P,C21,2*%
%TO.N,GND*%
X76562500Y-91750000D03*
%TD*%
D10*
%TO.P,C15,1*%
%TO.N,+3V3*%
X68362500Y-86700000D03*
%TO.P,C15,2*%
%TO.N,GND*%
X66637500Y-86700000D03*
%TD*%
D16*
%TO.P,C13,1*%
%TO.N,/RP2040 Connections/Y_XOUT*%
X96400000Y-94300000D03*
%TO.P,C13,2*%
%TO.N,GND*%
X96400000Y-92575000D03*
%TD*%
D39*
%TO.N,GND*%
X82100000Y-103400000D03*
X80300000Y-103400000D03*
X80300000Y-105800000D03*
X82100000Y-105800000D03*
%TO.N,+3V3*%
X87800000Y-97800000D03*
X85200000Y-99400000D03*
%TO.N,GND*%
X104700000Y-101300000D03*
X137000000Y-91987500D03*
X84200000Y-93737500D03*
X90400000Y-98137500D03*
X92500000Y-106000000D03*
X91600000Y-106000000D03*
X91600000Y-105100000D03*
X92500000Y-105100000D03*
X91600000Y-104200000D03*
X90700000Y-105100000D03*
X131200000Y-100200000D03*
X130300000Y-100200000D03*
X129350000Y-100200000D03*
X123900000Y-96937500D03*
X122300000Y-89000000D03*
X105300000Y-88500000D03*
X102000000Y-89300000D03*
X102700000Y-94800000D03*
X93900000Y-94337500D03*
X68937500Y-84400000D03*
X66637500Y-87837500D03*
X75200000Y-93500000D03*
X68800000Y-96400000D03*
X78300000Y-98837500D03*
X79100000Y-107900000D03*
X86337500Y-109200000D03*
X96162500Y-114800000D03*
X95800000Y-108700000D03*
X99900000Y-103000000D03*
X90700000Y-106000000D03*
X92500000Y-104200000D03*
X90700000Y-104200000D03*
%TO.N,+3V3*%
X74300000Y-95800000D03*
X74300000Y-103062500D03*
%TO.N,/RP2040 Connections/~{RP_FLASH_CS}*%
X104800000Y-86600000D03*
X76432000Y-103658000D03*
%TO.N,+3V3*%
X94000000Y-96700000D03*
X92900000Y-113200000D03*
X100600000Y-108700000D03*
X93200000Y-99700000D03*
X100600000Y-104900000D03*
X92900000Y-110100000D03*
%TO.N,+1V1*%
X96800000Y-104000000D03*
X97500000Y-102000000D03*
%TO.N,/RP2040 Connections/RP_XIN*%
X97200000Y-105900000D03*
X99600000Y-91200000D03*
%TO.N,/TFT LCD Connections/LEDA*%
X107850000Y-100500000D03*
X111100000Y-96400000D03*
%TO.N,/TFT LCD Connections/TFT_IM0*%
X108020491Y-103600000D03*
%TO.N,/TFT LCD Connections/TFT_IM1*%
X108946994Y-103600000D03*
%TO.N,/TFT LCD Connections/TFT_IM2*%
X109873497Y-103600000D03*
%TO.N,/TFT LCD Connections/TFT_IM3*%
X110800000Y-103600000D03*
%TO.N,/RP2040 Connections/RP_SWCLK*%
X101600000Y-104100000D03*
%TO.N,/RP2040 Connections/RP_SWD*%
X101600000Y-103173497D03*
%TO.N,/RP2040 Connections/RP_XOUT*%
X98200000Y-105900000D03*
X101900000Y-96200000D03*
%TO.N,/RP2040 Connections/RP_RUN*%
X95100000Y-89300000D03*
X96000000Y-100700000D03*
%TD*%
D40*
%TO.N,/RP2040 Connections/RP_RUN*%
X94440760Y-102259240D02*
X96000000Y-100700000D01*
X94440760Y-103049618D02*
X94440760Y-102259240D01*
X95068760Y-103300000D02*
X94691142Y-103300000D01*
X94691142Y-103300000D02*
X94440760Y-103049618D01*
%TO.N,/RP2040 Connections/RP_USB_D+*%
X86154000Y-98554000D02*
X84700000Y-97100000D01*
X84700000Y-97100000D02*
X83712500Y-97100000D01*
X86600000Y-104100000D02*
X86154000Y-103654000D01*
X86154000Y-103654000D02*
X86154000Y-98554000D01*
X88193760Y-104100000D02*
X86600000Y-104100000D01*
%TO.N,TFT_DB7*%
X92231260Y-110472050D02*
X92231260Y-108537500D01*
X111557680Y-110716000D02*
X92475210Y-110716000D01*
X117850000Y-104423680D02*
X111557680Y-110716000D01*
X117850000Y-101875000D02*
X117850000Y-104423680D01*
X92475210Y-110716000D02*
X92231260Y-110472050D01*
%TO.N,GND*%
X96162500Y-114800000D02*
X96162500Y-113600000D01*
%TO.N,/RP2040 Connections/SW_TO_RUN*%
X126000000Y-83900000D02*
X126000000Y-86000000D01*
D41*
%TO.N,+3V3*%
X85790500Y-103890500D02*
X86800000Y-104900000D01*
X86800000Y-104900000D02*
X87200000Y-104900000D01*
X85790500Y-99990500D02*
X85790500Y-103890500D01*
X85200000Y-99400000D02*
X85790500Y-99990500D01*
X85200000Y-99400000D02*
X84600000Y-98800000D01*
X84600000Y-98800000D02*
X83700000Y-98800000D01*
X87800000Y-97800000D02*
X87800000Y-96700000D01*
X87300000Y-96200000D02*
X87300000Y-95462500D01*
X87800000Y-96700000D02*
X87300000Y-96200000D01*
X87800000Y-101200000D02*
X87800000Y-97800000D01*
X88193760Y-101593760D02*
X87800000Y-101200000D01*
X88193760Y-102500000D02*
X88193760Y-101593760D01*
%TO.N,+1V1*%
X85463500Y-101363500D02*
X84700000Y-100600000D01*
X85463500Y-104163500D02*
X85463500Y-101363500D01*
X86600000Y-105300000D02*
X85463500Y-104163500D01*
X88193760Y-105300000D02*
X86600000Y-105300000D01*
X84700000Y-100600000D02*
X83700000Y-100600000D01*
D40*
%TO.N,+3V3*%
X88193760Y-102900000D02*
X88193760Y-102500000D01*
%TO.N,GND*%
X105275000Y-101875000D02*
X105850000Y-101875000D01*
X104700000Y-101300000D02*
X105275000Y-101875000D01*
D42*
%TO.N,+2V8*%
X145320000Y-85720000D02*
X145320000Y-98960000D01*
X143400000Y-83800000D02*
X145320000Y-85720000D01*
X132200000Y-83800000D02*
X143400000Y-83800000D01*
D40*
%TO.N,GND*%
X137000000Y-91987500D02*
X138410000Y-91987500D01*
X84200000Y-93737500D02*
X85600000Y-93737500D01*
X90400000Y-98137500D02*
X89031260Y-98137500D01*
D43*
X129350000Y-100200000D02*
X131200000Y-100200000D01*
X126850000Y-101150000D02*
X126850000Y-101875000D01*
X127773000Y-100227000D02*
X126850000Y-101150000D01*
X129323000Y-100227000D02*
X127773000Y-100227000D01*
X129350000Y-100200000D02*
X129323000Y-100227000D01*
X130350000Y-101150000D02*
X130350000Y-101875000D01*
X129850000Y-100650000D02*
X130350000Y-101150000D01*
X129850000Y-100650000D02*
X129850000Y-101875000D01*
X129400000Y-100200000D02*
X129850000Y-100650000D01*
X129350000Y-100200000D02*
X129400000Y-100200000D01*
X129350000Y-100200000D02*
X129350000Y-101875000D01*
D40*
X125350000Y-96937500D02*
X123900000Y-96937500D01*
X122300000Y-89000000D02*
X118800000Y-89000000D01*
X105300000Y-87900000D02*
X106025000Y-87175000D01*
X106025000Y-87175000D02*
X106800000Y-87175000D01*
X105300000Y-88500000D02*
X105300000Y-87900000D01*
X102862500Y-90162500D02*
X102862500Y-90800000D01*
X102000000Y-89300000D02*
X102862500Y-90162500D01*
X102200000Y-94300000D02*
X100275000Y-94300000D01*
X102700000Y-94800000D02*
X102200000Y-94300000D01*
X98875000Y-92900000D02*
X100275000Y-94300000D01*
X98525000Y-92900000D02*
X98875000Y-92900000D01*
X97500000Y-92900000D02*
X98525000Y-92900000D01*
X97175000Y-92575000D02*
X97500000Y-92900000D01*
X96400000Y-92575000D02*
X97175000Y-92575000D01*
X93900000Y-94337500D02*
X95662500Y-92575000D01*
X95662500Y-92575000D02*
X96400000Y-92575000D01*
X93900000Y-94337500D02*
X92631260Y-94337500D01*
D43*
X68937500Y-84400000D02*
X66637500Y-86700000D01*
X68937500Y-84400000D02*
X70800000Y-84400000D01*
X66637500Y-87837500D02*
X66637500Y-86700000D01*
X66637500Y-87837500D02*
X66637500Y-89000000D01*
X75612500Y-93087500D02*
X75200000Y-93500000D01*
X75612500Y-92700000D02*
X75612500Y-93087500D01*
D40*
X69562500Y-97162500D02*
X70462500Y-97162500D01*
X68800000Y-96400000D02*
X69562500Y-97162500D01*
D43*
X78337500Y-98800000D02*
X78300000Y-98837500D01*
X81975000Y-98800000D02*
X78337500Y-98800000D01*
D40*
X78300000Y-98837500D02*
X76800000Y-98837500D01*
X78527500Y-107327500D02*
X78527500Y-106500000D01*
X79100000Y-107900000D02*
X78527500Y-107327500D01*
%TO.N,/RP2040 Connections/RP_FLASH_D2*%
X84148000Y-108692000D02*
X85940000Y-106900000D01*
X76940000Y-107500000D02*
X78132000Y-108692000D01*
X76940000Y-105800000D02*
X76940000Y-107500000D01*
X77510000Y-105230000D02*
X76940000Y-105800000D01*
X78132000Y-108692000D02*
X84148000Y-108692000D01*
X85940000Y-106900000D02*
X88193760Y-106900000D01*
X78527500Y-105230000D02*
X77510000Y-105230000D01*
%TO.N,/RP2040 Connections/RP_FLASH_D1*%
X85899210Y-107300000D02*
X88193760Y-107300000D01*
X76686000Y-107605210D02*
X78026790Y-108946000D01*
X77580000Y-103960000D02*
X76686000Y-104854000D01*
X76686000Y-104854000D02*
X76686000Y-107605210D01*
X84253210Y-108946000D02*
X85899210Y-107300000D01*
X78527500Y-103960000D02*
X77580000Y-103960000D01*
X78026790Y-108946000D02*
X84253210Y-108946000D01*
%TO.N,/RP2040 Connections/~{RP_FLASH_CS}*%
X84358420Y-109200000D02*
X85858420Y-107700000D01*
X77921580Y-109200000D02*
X84358420Y-109200000D01*
X85858420Y-107700000D02*
X88193760Y-107700000D01*
X76432000Y-107710420D02*
X77921580Y-109200000D01*
X76432000Y-103658000D02*
X76432000Y-107710420D01*
%TO.N,GND*%
X86337500Y-110400000D02*
X86337500Y-109200000D01*
X97137500Y-108700000D02*
X95800000Y-108700000D01*
X100562500Y-102337500D02*
X100562500Y-101600000D01*
X99900000Y-103000000D02*
X100562500Y-102337500D01*
%TO.N,/RP2040 Connections/RP_SWD*%
X99259210Y-103800000D02*
X100973497Y-103800000D01*
X100973497Y-103800000D02*
X101600000Y-103173497D01*
X96623189Y-102800000D02*
X98259210Y-102800000D01*
X95723189Y-103700000D02*
X96623189Y-102800000D01*
X98259210Y-102800000D02*
X99259210Y-103800000D01*
X95068760Y-103700000D02*
X95723189Y-103700000D01*
%TO.N,/RP2040 Connections/RP_SWCLK*%
X98954000Y-104100000D02*
X101600000Y-104100000D01*
X97954000Y-103100000D02*
X98954000Y-104100000D01*
X95682399Y-104100000D02*
X96682399Y-103100000D01*
X96682399Y-103100000D02*
X97954000Y-103100000D01*
X95068760Y-104100000D02*
X95682399Y-104100000D01*
D44*
%TO.N,GND*%
X64562500Y-99300000D02*
X64562500Y-100500000D01*
D40*
X61862500Y-101500000D02*
X61862500Y-94500000D01*
D41*
%TO.N,/RP2040 Connections/USB_D-*%
X79937500Y-97450000D02*
X81887500Y-95500000D01*
X72855451Y-98273000D02*
X73678451Y-97450000D01*
X66498001Y-98273000D02*
X72855451Y-98273000D01*
X65575001Y-97350000D02*
X66498001Y-98273000D01*
X64562500Y-97350000D02*
X65575001Y-97350000D01*
X73678451Y-97450000D02*
X79937500Y-97450000D01*
%TO.N,/RP2040 Connections/USB_D+*%
X73700000Y-97900000D02*
X80123897Y-97900000D01*
X80123897Y-97900000D02*
X80923897Y-97100000D01*
X80923897Y-97100000D02*
X81887500Y-97100000D01*
X66175001Y-98600000D02*
X73000000Y-98600000D01*
X65575001Y-98000000D02*
X66175001Y-98600000D01*
X64562500Y-98000000D02*
X65575001Y-98000000D01*
X73000000Y-98600000D02*
X73700000Y-97900000D01*
D42*
%TO.N,+3V3*%
X83900000Y-91100000D02*
X88400000Y-91100000D01*
X81300000Y-93700000D02*
X83900000Y-91100000D01*
X76400000Y-93700000D02*
X81300000Y-93700000D01*
X74300000Y-95800000D02*
X76400000Y-93700000D01*
X74531250Y-102831250D02*
X76800000Y-100562500D01*
X74300000Y-103062500D02*
X74531250Y-102831250D01*
X74300000Y-103062500D02*
X72162500Y-105200000D01*
D44*
%TO.N,VBUS*%
X64562500Y-96700000D02*
X66200000Y-96700000D01*
X66200000Y-96700000D02*
X69250000Y-93650000D01*
X69250000Y-92050000D02*
X69550000Y-91750000D01*
X69550000Y-91750000D02*
X70462500Y-91750000D01*
X69250000Y-93650000D02*
X69250000Y-92050000D01*
D42*
%TO.N,+3V3*%
X115412500Y-92212500D02*
X115412500Y-96400000D01*
X114100000Y-90900000D02*
X115412500Y-92212500D01*
X105800000Y-90900000D02*
X114100000Y-90900000D01*
X102200578Y-87300578D02*
X105800000Y-90900000D01*
X100000578Y-87300578D02*
X102200578Y-87300578D01*
X97100000Y-90201156D02*
X100000578Y-87300578D01*
X100000578Y-87300578D02*
X103401156Y-83900000D01*
X103401156Y-83900000D02*
X116975000Y-83900000D01*
X97100000Y-90300000D02*
X97100000Y-90201156D01*
X96300000Y-91100000D02*
X97100000Y-90300000D01*
X88400000Y-91100000D02*
X96300000Y-91100000D01*
X89237500Y-95462500D02*
X87300000Y-95462500D01*
X89800000Y-94900000D02*
X89237500Y-95462500D01*
X89800000Y-93231240D02*
X89800000Y-94900000D01*
X89800000Y-93231240D02*
X92631260Y-96062500D01*
X89800000Y-92500000D02*
X89800000Y-93231240D01*
X88400000Y-91100000D02*
X89800000Y-92500000D01*
X93437500Y-114600000D02*
X94437500Y-113600000D01*
X93162500Y-114600000D02*
X93437500Y-114600000D01*
X88700000Y-114600000D02*
X93162500Y-114600000D01*
X87300000Y-113200000D02*
X88700000Y-114600000D01*
X87300000Y-112400000D02*
X87300000Y-113200000D01*
X87300000Y-112400000D02*
X88062500Y-111637500D01*
X73800000Y-112400000D02*
X87300000Y-112400000D01*
X88062500Y-111637500D02*
X88062500Y-110400000D01*
X72162500Y-110762500D02*
X73800000Y-112400000D01*
X72162500Y-105200000D02*
X72162500Y-110762500D01*
X64500000Y-105200000D02*
X72162500Y-105200000D01*
X63300000Y-104000000D02*
X64500000Y-105200000D01*
X78800000Y-81800000D02*
X65500000Y-81800000D01*
X65500000Y-81800000D02*
X63300000Y-84000000D01*
X80200000Y-83200000D02*
X78800000Y-81800000D01*
X78900000Y-86700000D02*
X80200000Y-85400000D01*
X80200000Y-85400000D02*
X80200000Y-83200000D01*
X63300000Y-84000000D02*
X63300000Y-104000000D01*
X77100000Y-86700000D02*
X78900000Y-86700000D01*
X77100000Y-86700000D02*
X70800000Y-86700000D01*
%TO.N,+2V8*%
X74837500Y-90862500D02*
X74837500Y-91750000D01*
X81000000Y-90100000D02*
X75600000Y-90100000D01*
X89600000Y-81500000D02*
X81000000Y-90100000D01*
X75600000Y-90100000D02*
X74837500Y-90862500D01*
X132200000Y-83800000D02*
X129900000Y-81500000D01*
X132200000Y-98100000D02*
X132200000Y-83800000D01*
X129900000Y-81500000D02*
X89600000Y-81500000D01*
X131637500Y-98662500D02*
X132200000Y-98100000D01*
X130200000Y-98662500D02*
X131637500Y-98662500D01*
D41*
%TO.N,+3V3*%
X92631260Y-102268740D02*
X92631260Y-101662500D01*
X92400000Y-102500000D02*
X92631260Y-102268740D01*
X88900000Y-102500000D02*
X92400000Y-102500000D01*
%TO.N,+1V1*%
X88622997Y-105300000D02*
X88193760Y-105300000D01*
X89100000Y-104822997D02*
X88622997Y-105300000D01*
X89100000Y-103300000D02*
X89100000Y-104822997D01*
X89100000Y-103300000D02*
X88193760Y-103300000D01*
X93700000Y-103100000D02*
X89300000Y-103100000D01*
X93900000Y-103300000D02*
X93700000Y-103100000D01*
X94100000Y-104500000D02*
X93900000Y-104300000D01*
X93900000Y-104300000D02*
X93900000Y-103300000D01*
X89300000Y-103100000D02*
X89100000Y-103300000D01*
X95068760Y-104500000D02*
X94100000Y-104500000D01*
%TO.N,+3V3*%
X89031260Y-102368740D02*
X89031260Y-101662500D01*
X88193760Y-102500000D02*
X88900000Y-102500000D01*
X88900000Y-102500000D02*
X89031260Y-102368740D01*
X89031260Y-107768740D02*
X89031260Y-108537500D01*
X92900000Y-107500000D02*
X89300000Y-107500000D01*
X89300000Y-107500000D02*
X89031260Y-107768740D01*
X92900000Y-107500000D02*
X92631260Y-107768740D01*
X93600000Y-107500000D02*
X92900000Y-107500000D01*
X93800000Y-107300000D02*
X93600000Y-107500000D01*
X92631260Y-107768740D02*
X92631260Y-108537500D01*
X93800000Y-105300000D02*
X93800000Y-107300000D01*
X94200000Y-104900000D02*
X93800000Y-105300000D01*
X95068760Y-104900000D02*
X94200000Y-104900000D01*
D43*
%TO.N,GND*%
X75612500Y-92700000D02*
X76562500Y-91750000D01*
X70462500Y-92700000D02*
X75612500Y-92700000D01*
X85600000Y-93737500D02*
X87300000Y-93737500D01*
X81975000Y-100600000D02*
X81975000Y-98800000D01*
X72100000Y-97162500D02*
X70462500Y-97162500D01*
D40*
%TO.N,/RP2040 Connections/~{RP_FLASH_CS}*%
X105400000Y-86000000D02*
X108900000Y-86000000D01*
X104800000Y-86600000D02*
X105400000Y-86000000D01*
X77400000Y-102690000D02*
X78527500Y-102690000D01*
X76432000Y-103658000D02*
X77400000Y-102690000D01*
D41*
%TO.N,+3V3*%
X87600000Y-104500000D02*
X87200000Y-104900000D01*
D45*
X70800000Y-86700000D02*
X68362500Y-86700000D01*
D41*
X89031260Y-109431240D02*
X88062500Y-110400000D01*
X93200000Y-99700000D02*
X92631260Y-100268740D01*
X76800000Y-100562500D02*
X78137500Y-101900000D01*
X92900000Y-113200000D02*
X93300000Y-113600000D01*
X98862500Y-108700000D02*
X100600000Y-108700000D01*
X92631260Y-100268740D02*
X92631260Y-101662500D01*
X83062500Y-101900000D02*
X83852500Y-102690000D01*
X100600000Y-104900000D02*
X95068760Y-104900000D01*
X93362500Y-96062500D02*
X92631260Y-96062500D01*
X92631260Y-108537500D02*
X92631260Y-109831260D01*
X88193760Y-104900000D02*
X87200000Y-104900000D01*
X78137500Y-101900000D02*
X83062500Y-101900000D01*
X89031260Y-108537500D02*
X89031260Y-109431240D01*
X89031260Y-99862500D02*
X89031260Y-101662500D01*
X92631260Y-109831260D02*
X92900000Y-110100000D01*
X93300000Y-113600000D02*
X94437500Y-113600000D01*
X88193760Y-104500000D02*
X87600000Y-104500000D01*
X94000000Y-96700000D02*
X93362500Y-96062500D01*
D40*
%TO.N,GND*%
X126000000Y-89000000D02*
X122300000Y-89000000D01*
X138410000Y-91987500D02*
X143500000Y-91987500D01*
X125350000Y-96937500D02*
X130200000Y-96937500D01*
D41*
%TO.N,+1V1*%
X97900000Y-101600000D02*
X98837500Y-101600000D01*
X87400000Y-103300000D02*
X86973000Y-102873000D01*
X85600000Y-96500000D02*
X85600000Y-95462500D01*
X88193760Y-103300000D02*
X87400000Y-103300000D01*
X96300000Y-104500000D02*
X95068760Y-104500000D01*
X97500000Y-102000000D02*
X97900000Y-101600000D01*
X86973000Y-102873000D02*
X86973000Y-97873000D01*
X86973000Y-97873000D02*
X85600000Y-96500000D01*
X96800000Y-104000000D02*
X96300000Y-104500000D01*
D40*
%TO.N,/RP2040 Connections/RP_XIN*%
X99600000Y-91200000D02*
X100275000Y-91875000D01*
X97200000Y-105900000D02*
X96400000Y-105900000D01*
X96400000Y-105900000D02*
X96200000Y-105700000D01*
X96200000Y-105700000D02*
X95068760Y-105700000D01*
X101137500Y-91012500D02*
X100275000Y-91875000D01*
X100275000Y-91875000D02*
X100275000Y-92900000D01*
X101137500Y-90800000D02*
X101137500Y-91012500D01*
%TO.N,/RP2040 Connections/Y_XOUT*%
X96400000Y-94300000D02*
X98525000Y-94300000D01*
X98525000Y-96200000D02*
X98525000Y-94300000D01*
D44*
%TO.N,VBUS*%
X69250000Y-93650000D02*
X70462500Y-93650000D01*
X70462500Y-90637500D02*
X70800000Y-90300000D01*
X70800000Y-90300000D02*
X70800000Y-89000000D01*
D45*
X70462500Y-93650000D02*
X70462500Y-95437500D01*
X70800000Y-89000000D02*
X68362500Y-89000000D01*
D44*
X70462500Y-91750000D02*
X70462500Y-90637500D01*
D40*
%TO.N,+2V8*%
X145320000Y-106580000D02*
X145320000Y-98960000D01*
D43*
X127000000Y-98662500D02*
X127000000Y-99200000D01*
X128600000Y-99500000D02*
X128600000Y-98662500D01*
X127000000Y-99200000D02*
X125850000Y-100350000D01*
X128300000Y-99800000D02*
X128600000Y-99500000D01*
X127200000Y-99800000D02*
X126350000Y-100650000D01*
D42*
X130200000Y-98662500D02*
X128600000Y-98662500D01*
D43*
X127200000Y-99800000D02*
X128300000Y-99800000D01*
X125850000Y-100350000D02*
X125850000Y-101875000D01*
X74837500Y-91750000D02*
X72737500Y-91750000D01*
X128600000Y-98662500D02*
X125350000Y-98662500D01*
X125350000Y-98662500D02*
X125350000Y-101875000D01*
X126350000Y-100650000D02*
X126350000Y-101875000D01*
D40*
%TO.N,/TFT LCD Connections/REG_BP_C*%
X72737500Y-93650000D02*
X72737500Y-94800000D01*
X72737500Y-94800000D02*
X72100000Y-95437500D01*
%TO.N,/TFT LCD Connections/LEDA*%
X106700000Y-100500000D02*
X106350000Y-100850000D01*
X113587500Y-96400000D02*
X111100000Y-96400000D01*
X107200000Y-100500000D02*
X106850000Y-100850000D01*
X107850000Y-100500000D02*
X107350000Y-101000000D01*
X107350000Y-101000000D02*
X107350000Y-101875000D01*
X106850000Y-100850000D02*
X106850000Y-101875000D01*
X106350000Y-100850000D02*
X106350000Y-101875000D01*
X107850000Y-100500000D02*
X106700000Y-100500000D01*
X107850000Y-100500000D02*
X107200000Y-100500000D01*
X107850000Y-100500000D02*
X107850000Y-101875000D01*
%TO.N,/TFT LCD Connections/TFT_IM0*%
X108020491Y-103079509D02*
X108350000Y-102750000D01*
X108350000Y-102750000D02*
X108350000Y-101875000D01*
X108020491Y-103600000D02*
X108020491Y-103079509D01*
X138410000Y-93812500D02*
X137700000Y-94522500D01*
X137700000Y-94522500D02*
X137700000Y-98960000D01*
%TO.N,/TFT LCD Connections/TFT_IM1*%
X108850000Y-102850000D02*
X108946994Y-102946994D01*
X140100000Y-93812500D02*
X140100000Y-99100000D01*
X108850000Y-102850000D02*
X108850000Y-101875000D01*
X108946994Y-102946994D02*
X108946994Y-103600000D01*
X140100000Y-99100000D02*
X137700000Y-101500000D01*
%TO.N,/TFT LCD Connections/TFT_IM2*%
X109873497Y-103273497D02*
X109350000Y-102750000D01*
X141800000Y-99940000D02*
X137700000Y-104040000D01*
X141800000Y-93812500D02*
X141800000Y-99940000D01*
X109350000Y-102750000D02*
X109350000Y-101875000D01*
X109873497Y-103600000D02*
X109873497Y-103273497D01*
%TO.N,/TFT LCD Connections/TFT_IM3*%
X110800000Y-103591409D02*
X109850000Y-102641409D01*
X109850000Y-102641409D02*
X109850000Y-101875000D01*
X143500000Y-100780000D02*
X137700000Y-106580000D01*
X110800000Y-103600000D02*
X110800000Y-103591409D01*
X143500000Y-93812500D02*
X143500000Y-100780000D01*
%TO.N,TFT_RESET*%
X109800000Y-99900000D02*
X110350000Y-100450000D01*
X110350000Y-100450000D02*
X110350000Y-101875000D01*
X94915630Y-99900000D02*
X109800000Y-99900000D01*
X94231260Y-100584370D02*
X94915630Y-99900000D01*
X94231260Y-101662500D02*
X94231260Y-100584370D01*
%TO.N,TFT_VSYNC*%
X109905210Y-99646000D02*
X94810420Y-99646000D01*
X110850000Y-100590790D02*
X109905210Y-99646000D01*
X93831260Y-100625160D02*
X93831260Y-101662500D01*
X110850000Y-101875000D02*
X110850000Y-100590790D01*
X94810420Y-99646000D02*
X93831260Y-100625160D01*
%TO.N,TFT_HSYNC*%
X94705210Y-99392000D02*
X110010420Y-99392000D01*
X110010420Y-99392000D02*
X111350000Y-100731580D01*
X93431260Y-100665950D02*
X94705210Y-99392000D01*
X111350000Y-100731580D02*
X111350000Y-101875000D01*
X93431260Y-101662500D02*
X93431260Y-100665950D01*
%TO.N,TFT_DOTCLK*%
X111850000Y-101875000D02*
X111850000Y-100872370D01*
X111850000Y-100872370D02*
X110115630Y-99138000D01*
X94600000Y-99138000D02*
X93031260Y-100706740D01*
X93031260Y-100706740D02*
X93031260Y-101662500D01*
X110115630Y-99138000D02*
X94600000Y-99138000D01*
%TO.N,TFT_DE*%
X92231260Y-99268740D02*
X92231260Y-101662500D01*
X110220840Y-98884000D02*
X92616000Y-98884000D01*
X112350000Y-101013160D02*
X110220840Y-98884000D01*
X112350000Y-101875000D02*
X112350000Y-101013160D01*
X92616000Y-98884000D02*
X92231260Y-99268740D01*
%TO.N,TFT_DB17*%
X112850000Y-101875000D02*
X112850000Y-102602000D01*
X95763979Y-102500000D02*
X95068760Y-102500000D01*
X112850000Y-102602000D02*
X111206000Y-104246000D01*
X102469210Y-100154000D02*
X98109979Y-100154000D01*
X106561210Y-104246000D02*
X102469210Y-100154000D01*
X98109979Y-100154000D02*
X95763979Y-102500000D01*
X111206000Y-104246000D02*
X106561210Y-104246000D01*
%TO.N,TFT_DB16*%
X113350000Y-102850000D02*
X113350000Y-101875000D01*
X102364000Y-100408000D02*
X106456000Y-104500000D01*
X95068760Y-102900000D02*
X95723189Y-102900000D01*
X98215189Y-100408000D02*
X102364000Y-100408000D01*
X111700000Y-104500000D02*
X113350000Y-102850000D01*
X106456000Y-104500000D02*
X111700000Y-104500000D01*
X95723189Y-102900000D02*
X98215189Y-100408000D01*
%TO.N,TFT_DB15*%
X112900000Y-106500000D02*
X95068760Y-106500000D01*
X113850000Y-101875000D02*
X113850000Y-105550000D01*
X113850000Y-105550000D02*
X112900000Y-106500000D01*
%TO.N,TFT_DB14*%
X114350000Y-101875000D02*
X114350000Y-105409210D01*
X112859210Y-106900000D02*
X95068760Y-106900000D01*
X114350000Y-105409210D02*
X112859210Y-106900000D01*
%TO.N,TFT_DB13*%
X114850000Y-105268420D02*
X112818420Y-107300000D01*
X114850000Y-101875000D02*
X114850000Y-105268420D01*
X112818420Y-107300000D02*
X95068760Y-107300000D01*
%TO.N,TFT_DB12*%
X115350000Y-105127630D02*
X112777630Y-107700000D01*
X112777630Y-107700000D02*
X95068760Y-107700000D01*
X115350000Y-101875000D02*
X115350000Y-105127630D01*
%TO.N,TFT_DB11*%
X115850000Y-104986840D02*
X115850000Y-101875000D01*
X94431260Y-109700000D02*
X111136840Y-109700000D01*
X94231260Y-108537500D02*
X94231260Y-109500000D01*
X94231260Y-109500000D02*
X94431260Y-109700000D01*
X111136840Y-109700000D02*
X115850000Y-104986840D01*
%TO.N,TFT_DB10*%
X116350000Y-101875000D02*
X116350000Y-104846050D01*
X94326050Y-109954000D02*
X93831260Y-109459210D01*
X93831260Y-109459210D02*
X93831260Y-108537500D01*
X111242050Y-109954000D02*
X94326050Y-109954000D01*
X116350000Y-104846050D02*
X111242050Y-109954000D01*
%TO.N,TFT_DB9*%
X93431260Y-108537500D02*
X93431260Y-109418420D01*
X116850000Y-104705260D02*
X116850000Y-101875000D01*
X94220840Y-110208000D02*
X111347260Y-110208000D01*
X111347260Y-110208000D02*
X116850000Y-104705260D01*
X93431260Y-109418420D02*
X94220840Y-110208000D01*
%TO.N,TFT_DB8*%
X117350000Y-104564470D02*
X117350000Y-101875000D01*
X111452470Y-110462000D02*
X117350000Y-104564470D01*
X93031260Y-109377630D02*
X94115630Y-110462000D01*
X94115630Y-110462000D02*
X111452470Y-110462000D01*
X93031260Y-108537500D02*
X93031260Y-109377630D01*
%TO.N,TFT_DB6*%
X111662890Y-110970000D02*
X92370000Y-110970000D01*
X91831260Y-110431260D02*
X91831260Y-108537500D01*
X92370000Y-110970000D02*
X91831260Y-110431260D01*
X118350000Y-101875000D02*
X118350000Y-104282890D01*
X118350000Y-104282890D02*
X111662890Y-110970000D01*
%TO.N,TFT_DB5*%
X91431260Y-110390470D02*
X92264790Y-111224000D01*
X111768100Y-111224000D02*
X118850000Y-104142100D01*
X91431260Y-108537500D02*
X91431260Y-110390470D01*
X118850000Y-104142100D02*
X118850000Y-101875000D01*
X92264790Y-111224000D02*
X111768100Y-111224000D01*
%TO.N,TFT_DB4*%
X91031260Y-110349680D02*
X91031260Y-108537500D01*
X119350000Y-104001310D02*
X111873310Y-111478000D01*
X111873310Y-111478000D02*
X92159580Y-111478000D01*
X92159580Y-111478000D02*
X91031260Y-110349680D01*
X119350000Y-101875000D02*
X119350000Y-104001310D01*
%TO.N,TFT_DB3*%
X92054370Y-111732000D02*
X111978520Y-111732000D01*
X119850000Y-103860520D02*
X119850000Y-101875000D01*
X90631260Y-108537500D02*
X90631260Y-110308890D01*
X111978520Y-111732000D02*
X119850000Y-103860520D01*
X90631260Y-110308890D02*
X92054370Y-111732000D01*
%TO.N,TFT_DB2*%
X90231260Y-110268100D02*
X90231260Y-108537500D01*
X91949160Y-111986000D02*
X90231260Y-110268100D01*
X112083730Y-111986000D02*
X91949160Y-111986000D01*
X120350000Y-103719730D02*
X112083730Y-111986000D01*
X120350000Y-101875000D02*
X120350000Y-103719730D01*
%TO.N,TFT_DB1*%
X120850000Y-101875000D02*
X120850000Y-103578940D01*
X120850000Y-103578940D02*
X112188940Y-112240000D01*
X89831260Y-110227310D02*
X89831260Y-108537500D01*
X112188940Y-112240000D02*
X91843950Y-112240000D01*
X91843950Y-112240000D02*
X89831260Y-110227310D01*
%TO.N,TFT_DB0*%
X112294150Y-112494000D02*
X121350000Y-103438150D01*
X91738740Y-112494000D02*
X112294150Y-112494000D01*
X121350000Y-103438150D02*
X121350000Y-101875000D01*
X89431260Y-110186520D02*
X91738740Y-112494000D01*
X89431260Y-108537500D02*
X89431260Y-110186520D01*
%TO.N,TFT_RD*%
X122850000Y-99550000D02*
X122850000Y-101875000D01*
X91831260Y-101662500D02*
X91831260Y-99309530D01*
X121930000Y-98630000D02*
X122850000Y-99550000D01*
X92510790Y-98630000D02*
X121930000Y-98630000D01*
X91831260Y-99309530D02*
X92510790Y-98630000D01*
%TO.N,TFT_WR*%
X122035210Y-98376000D02*
X92405580Y-98376000D01*
X123350000Y-101875000D02*
X123350000Y-99690790D01*
X123350000Y-99690790D02*
X122035210Y-98376000D01*
X92405580Y-98376000D02*
X91431260Y-99350320D01*
X91431260Y-99350320D02*
X91431260Y-101662500D01*
%TO.N,TFT_DC*%
X91031260Y-99391110D02*
X92322370Y-98100000D01*
X123850000Y-99831580D02*
X123850000Y-101875000D01*
X92322370Y-98100000D02*
X122118420Y-98100000D01*
X122118420Y-98100000D02*
X123850000Y-99831580D01*
X91031260Y-101662500D02*
X91031260Y-99391110D01*
%TO.N,TFT_CS*%
X90631260Y-99431900D02*
X92217160Y-97846000D01*
X92217160Y-97846000D02*
X122223630Y-97846000D01*
X122223630Y-97846000D02*
X124350000Y-99972370D01*
X124350000Y-99972370D02*
X124350000Y-101875000D01*
X90631260Y-101662500D02*
X90631260Y-99431900D01*
%TO.N,TFT_TE*%
X124850000Y-101875000D02*
X124850000Y-100113160D01*
X124850000Y-100113160D02*
X122328840Y-97592000D01*
X92111950Y-97592000D02*
X90231260Y-99472690D01*
X122328840Y-97592000D02*
X92111950Y-97592000D01*
X90231260Y-99472690D02*
X90231260Y-101662500D01*
%TO.N,/RP2040 Connections/RP_XOUT*%
X97600000Y-105300000D02*
X95068760Y-105300000D01*
X98200000Y-105900000D02*
X97600000Y-105300000D01*
X100350000Y-96200000D02*
X101900000Y-96200000D01*
%TO.N,/RP2040 Connections/RP_USB_D-*%
X86408000Y-98448790D02*
X84600000Y-96640790D01*
X84600000Y-95800000D02*
X84300000Y-95500000D01*
X86408000Y-103548790D02*
X86408000Y-98448790D01*
X84600000Y-96640790D02*
X84600000Y-95800000D01*
X86559210Y-103700000D02*
X86408000Y-103548790D01*
X84300000Y-95500000D02*
X83712500Y-95500000D01*
X88193760Y-103700000D02*
X86559210Y-103700000D01*
%TO.N,/RP2040 Connections/SW_TO_RUN*%
X118800000Y-83900000D02*
X118800000Y-86000000D01*
X118800000Y-86000000D02*
X126000000Y-86000000D01*
%TO.N,/RP2040 Connections/RP_RUN*%
X95100000Y-89300000D02*
X95100000Y-86000000D01*
X122575000Y-82300000D02*
X124175000Y-83900000D01*
X95100000Y-86000000D02*
X98800000Y-82300000D01*
X98800000Y-82300000D02*
X122575000Y-82300000D01*
%TO.N,/RP2040 Connections/USB_BOOT_TO_R*%
X106800000Y-89000000D02*
X108900000Y-89000000D01*
X108900000Y-89000000D02*
X116100000Y-89000000D01*
%TO.N,/RP2040 Connections/~{RP_FLASH_CS}*%
X116100000Y-86000000D02*
X108900000Y-86000000D01*
%TO.N,/RP2040 Connections/RP_FLASH_D0*%
X88193760Y-106500000D02*
X83852500Y-106500000D01*
%TO.N,/RP2040 Connections/RP_FLASH_CLK*%
X85940000Y-106100000D02*
X88193760Y-106100000D01*
X83852500Y-105230000D02*
X85070000Y-105230000D01*
X85070000Y-105230000D02*
X85940000Y-106100000D01*
%TO.N,/RP2040 Connections/RP_FLASH_D3*%
X83852500Y-103960000D02*
X84500000Y-103960000D01*
X86240000Y-105700000D02*
X88193760Y-105700000D01*
X84500000Y-103960000D02*
X86240000Y-105700000D01*
%TD*%
M02*
