%TF.GenerationSoftware,KiCad,Pcbnew,(7.0.0)*%
%TF.CreationDate,2023-06-08T20:43:27-04:00*%
%TF.ProjectId,tft controller new,74667420-636f-46e7-9472-6f6c6c657220,rev?*%
%TF.SameCoordinates,Original*%
%TF.FileFunction,Legend,Top*%
%TF.FilePolarity,Positive*%
%FSLAX46Y46*%
G04 Gerber Fmt 4.6, Leading zero omitted, Abs format (unit mm)*
G04 Created by KiCad (PCBNEW (7.0.0)) date 2023-06-08 20:43:27*
%MOMM*%
%LPD*%
G01*
G04 APERTURE LIST*
%ADD10C,0.150000*%
%ADD11C,0.125000*%
%ADD12C,0.200000*%
%ADD13C,0.250000*%
%ADD14C,0.120000*%
G04 APERTURE END LIST*
D10*
X102361904Y-107182380D02*
X101790476Y-107182380D01*
X102076190Y-107182380D02*
X102076190Y-106182380D01*
X102076190Y-106182380D02*
X101980952Y-106325238D01*
X101980952Y-106325238D02*
X101885714Y-106420476D01*
X101885714Y-106420476D02*
X101790476Y-106468095D01*
X144939048Y-110001428D02*
X145700953Y-110001428D01*
X145320000Y-110382380D02*
X145320000Y-109620476D01*
X134917619Y-97852381D02*
X135917619Y-97852381D01*
X134917619Y-98328571D02*
X135917619Y-98328571D01*
X135917619Y-98328571D02*
X135203333Y-98661904D01*
X135203333Y-98661904D02*
X135917619Y-98995237D01*
X135917619Y-98995237D02*
X134917619Y-98995237D01*
X135917619Y-99661904D02*
X135917619Y-99757142D01*
X135917619Y-99757142D02*
X135870000Y-99852380D01*
X135870000Y-99852380D02*
X135822380Y-99899999D01*
X135822380Y-99899999D02*
X135727142Y-99947618D01*
X135727142Y-99947618D02*
X135536666Y-99995237D01*
X135536666Y-99995237D02*
X135298571Y-99995237D01*
X135298571Y-99995237D02*
X135108095Y-99947618D01*
X135108095Y-99947618D02*
X135012857Y-99899999D01*
X135012857Y-99899999D02*
X134965238Y-99852380D01*
X134965238Y-99852380D02*
X134917619Y-99757142D01*
X134917619Y-99757142D02*
X134917619Y-99661904D01*
X134917619Y-99661904D02*
X134965238Y-99566666D01*
X134965238Y-99566666D02*
X135012857Y-99519047D01*
X135012857Y-99519047D02*
X135108095Y-99471428D01*
X135108095Y-99471428D02*
X135298571Y-99423809D01*
X135298571Y-99423809D02*
X135536666Y-99423809D01*
X135536666Y-99423809D02*
X135727142Y-99471428D01*
X135727142Y-99471428D02*
X135822380Y-99519047D01*
X135822380Y-99519047D02*
X135870000Y-99566666D01*
X135870000Y-99566666D02*
X135917619Y-99661904D01*
D11*
X125961904Y-104425904D02*
X125961904Y-104997333D01*
X125961904Y-104997333D02*
X125938095Y-105111619D01*
X125938095Y-105111619D02*
X125890476Y-105187809D01*
X125890476Y-105187809D02*
X125819047Y-105225904D01*
X125819047Y-105225904D02*
X125771428Y-105225904D01*
X126438094Y-105225904D02*
X126199999Y-105225904D01*
X126199999Y-105225904D02*
X126199999Y-104425904D01*
X126890475Y-105149714D02*
X126866666Y-105187809D01*
X126866666Y-105187809D02*
X126795237Y-105225904D01*
X126795237Y-105225904D02*
X126747618Y-105225904D01*
X126747618Y-105225904D02*
X126676190Y-105187809D01*
X126676190Y-105187809D02*
X126628571Y-105111619D01*
X126628571Y-105111619D02*
X126604761Y-105035428D01*
X126604761Y-105035428D02*
X126580952Y-104883047D01*
X126580952Y-104883047D02*
X126580952Y-104768761D01*
X126580952Y-104768761D02*
X126604761Y-104616380D01*
X126604761Y-104616380D02*
X126628571Y-104540190D01*
X126628571Y-104540190D02*
X126676190Y-104464000D01*
X126676190Y-104464000D02*
X126747618Y-104425904D01*
X126747618Y-104425904D02*
X126795237Y-104425904D01*
X126795237Y-104425904D02*
X126866666Y-104464000D01*
X126866666Y-104464000D02*
X126890475Y-104502095D01*
X127247618Y-104425904D02*
X127247618Y-104997333D01*
X127247618Y-104997333D02*
X127223809Y-105111619D01*
X127223809Y-105111619D02*
X127176190Y-105187809D01*
X127176190Y-105187809D02*
X127104761Y-105225904D01*
X127104761Y-105225904D02*
X127057142Y-105225904D01*
X127723808Y-105225904D02*
X127485713Y-105225904D01*
X127485713Y-105225904D02*
X127485713Y-104425904D01*
X128176189Y-105149714D02*
X128152380Y-105187809D01*
X128152380Y-105187809D02*
X128080951Y-105225904D01*
X128080951Y-105225904D02*
X128033332Y-105225904D01*
X128033332Y-105225904D02*
X127961904Y-105187809D01*
X127961904Y-105187809D02*
X127914285Y-105111619D01*
X127914285Y-105111619D02*
X127890475Y-105035428D01*
X127890475Y-105035428D02*
X127866666Y-104883047D01*
X127866666Y-104883047D02*
X127866666Y-104768761D01*
X127866666Y-104768761D02*
X127890475Y-104616380D01*
X127890475Y-104616380D02*
X127914285Y-104540190D01*
X127914285Y-104540190D02*
X127961904Y-104464000D01*
X127961904Y-104464000D02*
X128033332Y-104425904D01*
X128033332Y-104425904D02*
X128080951Y-104425904D01*
X128080951Y-104425904D02*
X128152380Y-104464000D01*
X128152380Y-104464000D02*
X128176189Y-104502095D01*
X128533332Y-104425904D02*
X128533332Y-104997333D01*
X128533332Y-104997333D02*
X128509523Y-105111619D01*
X128509523Y-105111619D02*
X128461904Y-105187809D01*
X128461904Y-105187809D02*
X128390475Y-105225904D01*
X128390475Y-105225904D02*
X128342856Y-105225904D01*
X129009522Y-105225904D02*
X128771427Y-105225904D01*
X128771427Y-105225904D02*
X128771427Y-104425904D01*
X129461903Y-105149714D02*
X129438094Y-105187809D01*
X129438094Y-105187809D02*
X129366665Y-105225904D01*
X129366665Y-105225904D02*
X129319046Y-105225904D01*
X129319046Y-105225904D02*
X129247618Y-105187809D01*
X129247618Y-105187809D02*
X129199999Y-105111619D01*
X129199999Y-105111619D02*
X129176189Y-105035428D01*
X129176189Y-105035428D02*
X129152380Y-104883047D01*
X129152380Y-104883047D02*
X129152380Y-104768761D01*
X129152380Y-104768761D02*
X129176189Y-104616380D01*
X129176189Y-104616380D02*
X129199999Y-104540190D01*
X129199999Y-104540190D02*
X129247618Y-104464000D01*
X129247618Y-104464000D02*
X129319046Y-104425904D01*
X129319046Y-104425904D02*
X129366665Y-104425904D01*
X129366665Y-104425904D02*
X129438094Y-104464000D01*
X129438094Y-104464000D02*
X129461903Y-104502095D01*
X129819046Y-104425904D02*
X129819046Y-104997333D01*
X129819046Y-104997333D02*
X129795237Y-105111619D01*
X129795237Y-105111619D02*
X129747618Y-105187809D01*
X129747618Y-105187809D02*
X129676189Y-105225904D01*
X129676189Y-105225904D02*
X129628570Y-105225904D01*
X130295236Y-105225904D02*
X130057141Y-105225904D01*
X130057141Y-105225904D02*
X130057141Y-104425904D01*
X130747617Y-105149714D02*
X130723808Y-105187809D01*
X130723808Y-105187809D02*
X130652379Y-105225904D01*
X130652379Y-105225904D02*
X130604760Y-105225904D01*
X130604760Y-105225904D02*
X130533332Y-105187809D01*
X130533332Y-105187809D02*
X130485713Y-105111619D01*
X130485713Y-105111619D02*
X130461903Y-105035428D01*
X130461903Y-105035428D02*
X130438094Y-104883047D01*
X130438094Y-104883047D02*
X130438094Y-104768761D01*
X130438094Y-104768761D02*
X130461903Y-104616380D01*
X130461903Y-104616380D02*
X130485713Y-104540190D01*
X130485713Y-104540190D02*
X130533332Y-104464000D01*
X130533332Y-104464000D02*
X130604760Y-104425904D01*
X130604760Y-104425904D02*
X130652379Y-104425904D01*
X130652379Y-104425904D02*
X130723808Y-104464000D01*
X130723808Y-104464000D02*
X130747617Y-104502095D01*
D12*
X103703572Y-97168452D02*
X103882143Y-97227976D01*
X103882143Y-97227976D02*
X104179762Y-97227976D01*
X104179762Y-97227976D02*
X104298810Y-97168452D01*
X104298810Y-97168452D02*
X104358334Y-97108928D01*
X104358334Y-97108928D02*
X104417857Y-96989880D01*
X104417857Y-96989880D02*
X104417857Y-96870833D01*
X104417857Y-96870833D02*
X104358334Y-96751785D01*
X104358334Y-96751785D02*
X104298810Y-96692261D01*
X104298810Y-96692261D02*
X104179762Y-96632738D01*
X104179762Y-96632738D02*
X103941667Y-96573214D01*
X103941667Y-96573214D02*
X103822619Y-96513690D01*
X103822619Y-96513690D02*
X103763096Y-96454166D01*
X103763096Y-96454166D02*
X103703572Y-96335119D01*
X103703572Y-96335119D02*
X103703572Y-96216071D01*
X103703572Y-96216071D02*
X103763096Y-96097023D01*
X103763096Y-96097023D02*
X103822619Y-96037500D01*
X103822619Y-96037500D02*
X103941667Y-95977976D01*
X103941667Y-95977976D02*
X104239286Y-95977976D01*
X104239286Y-95977976D02*
X104417857Y-96037500D01*
X104834524Y-95977976D02*
X105132143Y-97227976D01*
X105132143Y-97227976D02*
X105370238Y-96335119D01*
X105370238Y-96335119D02*
X105608333Y-97227976D01*
X105608333Y-97227976D02*
X105905953Y-95977976D01*
X106382143Y-97227976D02*
X106382143Y-95977976D01*
X106382143Y-95977976D02*
X106679762Y-95977976D01*
X106679762Y-95977976D02*
X106858333Y-96037500D01*
X106858333Y-96037500D02*
X106977381Y-96156547D01*
X106977381Y-96156547D02*
X107036904Y-96275595D01*
X107036904Y-96275595D02*
X107096428Y-96513690D01*
X107096428Y-96513690D02*
X107096428Y-96692261D01*
X107096428Y-96692261D02*
X107036904Y-96930357D01*
X107036904Y-96930357D02*
X106977381Y-97049404D01*
X106977381Y-97049404D02*
X106858333Y-97168452D01*
X106858333Y-97168452D02*
X106679762Y-97227976D01*
X106679762Y-97227976D02*
X106382143Y-97227976D01*
X110803571Y-90973214D02*
X110982143Y-91032738D01*
X110982143Y-91032738D02*
X111041666Y-91092261D01*
X111041666Y-91092261D02*
X111101190Y-91211309D01*
X111101190Y-91211309D02*
X111101190Y-91389880D01*
X111101190Y-91389880D02*
X111041666Y-91508928D01*
X111041666Y-91508928D02*
X110982143Y-91568452D01*
X110982143Y-91568452D02*
X110863095Y-91627976D01*
X110863095Y-91627976D02*
X110386905Y-91627976D01*
X110386905Y-91627976D02*
X110386905Y-90377976D01*
X110386905Y-90377976D02*
X110803571Y-90377976D01*
X110803571Y-90377976D02*
X110922619Y-90437500D01*
X110922619Y-90437500D02*
X110982143Y-90497023D01*
X110982143Y-90497023D02*
X111041666Y-90616071D01*
X111041666Y-90616071D02*
X111041666Y-90735119D01*
X111041666Y-90735119D02*
X110982143Y-90854166D01*
X110982143Y-90854166D02*
X110922619Y-90913690D01*
X110922619Y-90913690D02*
X110803571Y-90973214D01*
X110803571Y-90973214D02*
X110386905Y-90973214D01*
X111875000Y-90377976D02*
X112113095Y-90377976D01*
X112113095Y-90377976D02*
X112232143Y-90437500D01*
X112232143Y-90437500D02*
X112351190Y-90556547D01*
X112351190Y-90556547D02*
X112410714Y-90794642D01*
X112410714Y-90794642D02*
X112410714Y-91211309D01*
X112410714Y-91211309D02*
X112351190Y-91449404D01*
X112351190Y-91449404D02*
X112232143Y-91568452D01*
X112232143Y-91568452D02*
X112113095Y-91627976D01*
X112113095Y-91627976D02*
X111875000Y-91627976D01*
X111875000Y-91627976D02*
X111755952Y-91568452D01*
X111755952Y-91568452D02*
X111636905Y-91449404D01*
X111636905Y-91449404D02*
X111577381Y-91211309D01*
X111577381Y-91211309D02*
X111577381Y-90794642D01*
X111577381Y-90794642D02*
X111636905Y-90556547D01*
X111636905Y-90556547D02*
X111755952Y-90437500D01*
X111755952Y-90437500D02*
X111875000Y-90377976D01*
X113184524Y-90377976D02*
X113422619Y-90377976D01*
X113422619Y-90377976D02*
X113541667Y-90437500D01*
X113541667Y-90437500D02*
X113660714Y-90556547D01*
X113660714Y-90556547D02*
X113720238Y-90794642D01*
X113720238Y-90794642D02*
X113720238Y-91211309D01*
X113720238Y-91211309D02*
X113660714Y-91449404D01*
X113660714Y-91449404D02*
X113541667Y-91568452D01*
X113541667Y-91568452D02*
X113422619Y-91627976D01*
X113422619Y-91627976D02*
X113184524Y-91627976D01*
X113184524Y-91627976D02*
X113065476Y-91568452D01*
X113065476Y-91568452D02*
X112946429Y-91449404D01*
X112946429Y-91449404D02*
X112886905Y-91211309D01*
X112886905Y-91211309D02*
X112886905Y-90794642D01*
X112886905Y-90794642D02*
X112946429Y-90556547D01*
X112946429Y-90556547D02*
X113065476Y-90437500D01*
X113065476Y-90437500D02*
X113184524Y-90377976D01*
X114077381Y-90377976D02*
X114791667Y-90377976D01*
X114434524Y-91627976D02*
X114434524Y-90377976D01*
X120584524Y-91627976D02*
X120167858Y-91032738D01*
X119870239Y-91627976D02*
X119870239Y-90377976D01*
X119870239Y-90377976D02*
X120346429Y-90377976D01*
X120346429Y-90377976D02*
X120465477Y-90437500D01*
X120465477Y-90437500D02*
X120525000Y-90497023D01*
X120525000Y-90497023D02*
X120584524Y-90616071D01*
X120584524Y-90616071D02*
X120584524Y-90794642D01*
X120584524Y-90794642D02*
X120525000Y-90913690D01*
X120525000Y-90913690D02*
X120465477Y-90973214D01*
X120465477Y-90973214D02*
X120346429Y-91032738D01*
X120346429Y-91032738D02*
X119870239Y-91032738D01*
X121120239Y-90973214D02*
X121536905Y-90973214D01*
X121715477Y-91627976D02*
X121120239Y-91627976D01*
X121120239Y-91627976D02*
X121120239Y-90377976D01*
X121120239Y-90377976D02*
X121715477Y-90377976D01*
X122191667Y-91568452D02*
X122370238Y-91627976D01*
X122370238Y-91627976D02*
X122667857Y-91627976D01*
X122667857Y-91627976D02*
X122786905Y-91568452D01*
X122786905Y-91568452D02*
X122846429Y-91508928D01*
X122846429Y-91508928D02*
X122905952Y-91389880D01*
X122905952Y-91389880D02*
X122905952Y-91270833D01*
X122905952Y-91270833D02*
X122846429Y-91151785D01*
X122846429Y-91151785D02*
X122786905Y-91092261D01*
X122786905Y-91092261D02*
X122667857Y-91032738D01*
X122667857Y-91032738D02*
X122429762Y-90973214D01*
X122429762Y-90973214D02*
X122310714Y-90913690D01*
X122310714Y-90913690D02*
X122251191Y-90854166D01*
X122251191Y-90854166D02*
X122191667Y-90735119D01*
X122191667Y-90735119D02*
X122191667Y-90616071D01*
X122191667Y-90616071D02*
X122251191Y-90497023D01*
X122251191Y-90497023D02*
X122310714Y-90437500D01*
X122310714Y-90437500D02*
X122429762Y-90377976D01*
X122429762Y-90377976D02*
X122727381Y-90377976D01*
X122727381Y-90377976D02*
X122905952Y-90437500D01*
X123441667Y-90973214D02*
X123858333Y-90973214D01*
X124036905Y-91627976D02*
X123441667Y-91627976D01*
X123441667Y-91627976D02*
X123441667Y-90377976D01*
X123441667Y-90377976D02*
X124036905Y-90377976D01*
X124394047Y-90377976D02*
X125108333Y-90377976D01*
X124751190Y-91627976D02*
X124751190Y-90377976D01*
D11*
X68171429Y-114136785D02*
X67921429Y-113779642D01*
X67742858Y-114136785D02*
X67742858Y-113386785D01*
X67742858Y-113386785D02*
X68028572Y-113386785D01*
X68028572Y-113386785D02*
X68100001Y-113422500D01*
X68100001Y-113422500D02*
X68135715Y-113458214D01*
X68135715Y-113458214D02*
X68171429Y-113529642D01*
X68171429Y-113529642D02*
X68171429Y-113636785D01*
X68171429Y-113636785D02*
X68135715Y-113708214D01*
X68135715Y-113708214D02*
X68100001Y-113743928D01*
X68100001Y-113743928D02*
X68028572Y-113779642D01*
X68028572Y-113779642D02*
X67742858Y-113779642D01*
X68635715Y-113779642D02*
X68635715Y-114136785D01*
X68385715Y-113386785D02*
X68635715Y-113779642D01*
X68635715Y-113779642D02*
X68885715Y-113386785D01*
X69100001Y-113922500D02*
X69457144Y-113922500D01*
X69028572Y-114136785D02*
X69278572Y-113386785D01*
X69278572Y-113386785D02*
X69528572Y-114136785D01*
X69778572Y-114136785D02*
X69778572Y-113386785D01*
X69778572Y-113386785D02*
X70207143Y-114136785D01*
X70207143Y-114136785D02*
X70207143Y-113386785D01*
X71014286Y-114136785D02*
X71014286Y-113386785D01*
X71014286Y-113743928D02*
X71442857Y-113743928D01*
X71442857Y-114136785D02*
X71442857Y-113386785D01*
X71764286Y-113922500D02*
X72121429Y-113922500D01*
X71692857Y-114136785D02*
X71942857Y-113386785D01*
X71942857Y-113386785D02*
X72192857Y-114136785D01*
X72442857Y-113386785D02*
X72442857Y-113993928D01*
X72442857Y-113993928D02*
X72478571Y-114065357D01*
X72478571Y-114065357D02*
X72514286Y-114101071D01*
X72514286Y-114101071D02*
X72585714Y-114136785D01*
X72585714Y-114136785D02*
X72728571Y-114136785D01*
X72728571Y-114136785D02*
X72800000Y-114101071D01*
X72800000Y-114101071D02*
X72835714Y-114065357D01*
X72835714Y-114065357D02*
X72871428Y-113993928D01*
X72871428Y-113993928D02*
X72871428Y-113386785D01*
X73192857Y-114101071D02*
X73300000Y-114136785D01*
X73300000Y-114136785D02*
X73478571Y-114136785D01*
X73478571Y-114136785D02*
X73550000Y-114101071D01*
X73550000Y-114101071D02*
X73585714Y-114065357D01*
X73585714Y-114065357D02*
X73621428Y-113993928D01*
X73621428Y-113993928D02*
X73621428Y-113922500D01*
X73621428Y-113922500D02*
X73585714Y-113851071D01*
X73585714Y-113851071D02*
X73550000Y-113815357D01*
X73550000Y-113815357D02*
X73478571Y-113779642D01*
X73478571Y-113779642D02*
X73335714Y-113743928D01*
X73335714Y-113743928D02*
X73264285Y-113708214D01*
X73264285Y-113708214D02*
X73228571Y-113672500D01*
X73228571Y-113672500D02*
X73192857Y-113601071D01*
X73192857Y-113601071D02*
X73192857Y-113529642D01*
X73192857Y-113529642D02*
X73228571Y-113458214D01*
X73228571Y-113458214D02*
X73264285Y-113422500D01*
X73264285Y-113422500D02*
X73335714Y-113386785D01*
X73335714Y-113386785D02*
X73514285Y-113386785D01*
X73514285Y-113386785D02*
X73621428Y-113422500D01*
X73942857Y-114136785D02*
X73942857Y-113386785D01*
X73942857Y-113386785D02*
X74192857Y-113922500D01*
X74192857Y-113922500D02*
X74442857Y-113386785D01*
X74442857Y-113386785D02*
X74442857Y-114136785D01*
X74764286Y-113922500D02*
X75121429Y-113922500D01*
X74692857Y-114136785D02*
X74942857Y-113386785D01*
X74942857Y-113386785D02*
X75192857Y-114136785D01*
X75442857Y-114136785D02*
X75442857Y-113386785D01*
X75442857Y-113386785D02*
X75871428Y-114136785D01*
X75871428Y-114136785D02*
X75871428Y-113386785D01*
X76228571Y-114136785D02*
X76228571Y-113386785D01*
X76228571Y-113386785D02*
X76657142Y-114136785D01*
X76657142Y-114136785D02*
X76657142Y-113386785D01*
D13*
X62822856Y-109962380D02*
X63508571Y-109962380D01*
X63165713Y-110962380D02*
X63165713Y-109962380D01*
X64308571Y-110438571D02*
X63908571Y-110438571D01*
X63908571Y-110962380D02*
X63908571Y-109962380D01*
X63908571Y-109962380D02*
X64479999Y-109962380D01*
X64765713Y-109962380D02*
X65451428Y-109962380D01*
X65108570Y-110962380D02*
X65108570Y-109962380D01*
X67142856Y-110962380D02*
X66571428Y-110962380D01*
X66571428Y-110962380D02*
X66571428Y-109962380D01*
X68228571Y-110867142D02*
X68171428Y-110914761D01*
X68171428Y-110914761D02*
X68000000Y-110962380D01*
X68000000Y-110962380D02*
X67885714Y-110962380D01*
X67885714Y-110962380D02*
X67714285Y-110914761D01*
X67714285Y-110914761D02*
X67600000Y-110819523D01*
X67600000Y-110819523D02*
X67542857Y-110724285D01*
X67542857Y-110724285D02*
X67485714Y-110533809D01*
X67485714Y-110533809D02*
X67485714Y-110390952D01*
X67485714Y-110390952D02*
X67542857Y-110200476D01*
X67542857Y-110200476D02*
X67600000Y-110105238D01*
X67600000Y-110105238D02*
X67714285Y-110010000D01*
X67714285Y-110010000D02*
X67885714Y-109962380D01*
X67885714Y-109962380D02*
X68000000Y-109962380D01*
X68000000Y-109962380D02*
X68171428Y-110010000D01*
X68171428Y-110010000D02*
X68228571Y-110057619D01*
X68742857Y-110962380D02*
X68742857Y-109962380D01*
X68742857Y-109962380D02*
X69028571Y-109962380D01*
X69028571Y-109962380D02*
X69200000Y-110010000D01*
X69200000Y-110010000D02*
X69314285Y-110105238D01*
X69314285Y-110105238D02*
X69371428Y-110200476D01*
X69371428Y-110200476D02*
X69428571Y-110390952D01*
X69428571Y-110390952D02*
X69428571Y-110533809D01*
X69428571Y-110533809D02*
X69371428Y-110724285D01*
X69371428Y-110724285D02*
X69314285Y-110819523D01*
X69314285Y-110819523D02*
X69200000Y-110914761D01*
X69200000Y-110914761D02*
X69028571Y-110962380D01*
X69028571Y-110962380D02*
X68742857Y-110962380D01*
X71348571Y-110867142D02*
X71291428Y-110914761D01*
X71291428Y-110914761D02*
X71120000Y-110962380D01*
X71120000Y-110962380D02*
X71005714Y-110962380D01*
X71005714Y-110962380D02*
X70834285Y-110914761D01*
X70834285Y-110914761D02*
X70720000Y-110819523D01*
X70720000Y-110819523D02*
X70662857Y-110724285D01*
X70662857Y-110724285D02*
X70605714Y-110533809D01*
X70605714Y-110533809D02*
X70605714Y-110390952D01*
X70605714Y-110390952D02*
X70662857Y-110200476D01*
X70662857Y-110200476D02*
X70720000Y-110105238D01*
X70720000Y-110105238D02*
X70834285Y-110010000D01*
X70834285Y-110010000D02*
X71005714Y-109962380D01*
X71005714Y-109962380D02*
X71120000Y-109962380D01*
X71120000Y-109962380D02*
X71291428Y-110010000D01*
X71291428Y-110010000D02*
X71348571Y-110057619D01*
X72091428Y-109962380D02*
X72320000Y-109962380D01*
X72320000Y-109962380D02*
X72434285Y-110010000D01*
X72434285Y-110010000D02*
X72548571Y-110105238D01*
X72548571Y-110105238D02*
X72605714Y-110295714D01*
X72605714Y-110295714D02*
X72605714Y-110629047D01*
X72605714Y-110629047D02*
X72548571Y-110819523D01*
X72548571Y-110819523D02*
X72434285Y-110914761D01*
X72434285Y-110914761D02*
X72320000Y-110962380D01*
X72320000Y-110962380D02*
X72091428Y-110962380D01*
X72091428Y-110962380D02*
X71977143Y-110914761D01*
X71977143Y-110914761D02*
X71862857Y-110819523D01*
X71862857Y-110819523D02*
X71805714Y-110629047D01*
X71805714Y-110629047D02*
X71805714Y-110295714D01*
X71805714Y-110295714D02*
X71862857Y-110105238D01*
X71862857Y-110105238D02*
X71977143Y-110010000D01*
X71977143Y-110010000D02*
X72091428Y-109962380D01*
X73120000Y-110962380D02*
X73120000Y-109962380D01*
X73120000Y-109962380D02*
X73805714Y-110962380D01*
X73805714Y-110962380D02*
X73805714Y-109962380D01*
X74205714Y-109962380D02*
X74891429Y-109962380D01*
X74548571Y-110962380D02*
X74548571Y-109962380D01*
X75977143Y-110962380D02*
X75577143Y-110486190D01*
X75291429Y-110962380D02*
X75291429Y-109962380D01*
X75291429Y-109962380D02*
X75748572Y-109962380D01*
X75748572Y-109962380D02*
X75862857Y-110010000D01*
X75862857Y-110010000D02*
X75920000Y-110057619D01*
X75920000Y-110057619D02*
X75977143Y-110152857D01*
X75977143Y-110152857D02*
X75977143Y-110295714D01*
X75977143Y-110295714D02*
X75920000Y-110390952D01*
X75920000Y-110390952D02*
X75862857Y-110438571D01*
X75862857Y-110438571D02*
X75748572Y-110486190D01*
X75748572Y-110486190D02*
X75291429Y-110486190D01*
X76720000Y-109962380D02*
X76948572Y-109962380D01*
X76948572Y-109962380D02*
X77062857Y-110010000D01*
X77062857Y-110010000D02*
X77177143Y-110105238D01*
X77177143Y-110105238D02*
X77234286Y-110295714D01*
X77234286Y-110295714D02*
X77234286Y-110629047D01*
X77234286Y-110629047D02*
X77177143Y-110819523D01*
X77177143Y-110819523D02*
X77062857Y-110914761D01*
X77062857Y-110914761D02*
X76948572Y-110962380D01*
X76948572Y-110962380D02*
X76720000Y-110962380D01*
X76720000Y-110962380D02*
X76605715Y-110914761D01*
X76605715Y-110914761D02*
X76491429Y-110819523D01*
X76491429Y-110819523D02*
X76434286Y-110629047D01*
X76434286Y-110629047D02*
X76434286Y-110295714D01*
X76434286Y-110295714D02*
X76491429Y-110105238D01*
X76491429Y-110105238D02*
X76605715Y-110010000D01*
X76605715Y-110010000D02*
X76720000Y-109962380D01*
X78320000Y-110962380D02*
X77748572Y-110962380D01*
X77748572Y-110962380D02*
X77748572Y-109962380D01*
X79291429Y-110962380D02*
X78720001Y-110962380D01*
X78720001Y-110962380D02*
X78720001Y-109962380D01*
X79691430Y-110438571D02*
X80091430Y-110438571D01*
X80262858Y-110962380D02*
X79691430Y-110962380D01*
X79691430Y-110962380D02*
X79691430Y-109962380D01*
X79691430Y-109962380D02*
X80262858Y-109962380D01*
X81462858Y-110962380D02*
X81062858Y-110486190D01*
X80777144Y-110962380D02*
X80777144Y-109962380D01*
X80777144Y-109962380D02*
X81234287Y-109962380D01*
X81234287Y-109962380D02*
X81348572Y-110010000D01*
X81348572Y-110010000D02*
X81405715Y-110057619D01*
X81405715Y-110057619D02*
X81462858Y-110152857D01*
X81462858Y-110152857D02*
X81462858Y-110295714D01*
X81462858Y-110295714D02*
X81405715Y-110390952D01*
X81405715Y-110390952D02*
X81348572Y-110438571D01*
X81348572Y-110438571D02*
X81234287Y-110486190D01*
X81234287Y-110486190D02*
X80777144Y-110486190D01*
X66257143Y-112582380D02*
X66257143Y-111582380D01*
X66257143Y-111582380D02*
X66657143Y-112296666D01*
X66657143Y-112296666D02*
X67057143Y-111582380D01*
X67057143Y-111582380D02*
X67057143Y-112582380D01*
X67628572Y-112582380D02*
X67628572Y-111582380D01*
X68428572Y-111582380D02*
X68542858Y-111582380D01*
X68542858Y-111582380D02*
X68657144Y-111630000D01*
X68657144Y-111630000D02*
X68714287Y-111677619D01*
X68714287Y-111677619D02*
X68771429Y-111772857D01*
X68771429Y-111772857D02*
X68828572Y-111963333D01*
X68828572Y-111963333D02*
X68828572Y-112201428D01*
X68828572Y-112201428D02*
X68771429Y-112391904D01*
X68771429Y-112391904D02*
X68714287Y-112487142D01*
X68714287Y-112487142D02*
X68657144Y-112534761D01*
X68657144Y-112534761D02*
X68542858Y-112582380D01*
X68542858Y-112582380D02*
X68428572Y-112582380D01*
X68428572Y-112582380D02*
X68314287Y-112534761D01*
X68314287Y-112534761D02*
X68257144Y-112487142D01*
X68257144Y-112487142D02*
X68200001Y-112391904D01*
X68200001Y-112391904D02*
X68142858Y-112201428D01*
X68142858Y-112201428D02*
X68142858Y-111963333D01*
X68142858Y-111963333D02*
X68200001Y-111772857D01*
X68200001Y-111772857D02*
X68257144Y-111677619D01*
X68257144Y-111677619D02*
X68314287Y-111630000D01*
X68314287Y-111630000D02*
X68428572Y-111582380D01*
X69285715Y-111677619D02*
X69342858Y-111630000D01*
X69342858Y-111630000D02*
X69457144Y-111582380D01*
X69457144Y-111582380D02*
X69742858Y-111582380D01*
X69742858Y-111582380D02*
X69857144Y-111630000D01*
X69857144Y-111630000D02*
X69914286Y-111677619D01*
X69914286Y-111677619D02*
X69971429Y-111772857D01*
X69971429Y-111772857D02*
X69971429Y-111868095D01*
X69971429Y-111868095D02*
X69914286Y-112010952D01*
X69914286Y-112010952D02*
X69228572Y-112582380D01*
X69228572Y-112582380D02*
X69971429Y-112582380D01*
X70657143Y-112010952D02*
X70542858Y-111963333D01*
X70542858Y-111963333D02*
X70485715Y-111915714D01*
X70485715Y-111915714D02*
X70428572Y-111820476D01*
X70428572Y-111820476D02*
X70428572Y-111772857D01*
X70428572Y-111772857D02*
X70485715Y-111677619D01*
X70485715Y-111677619D02*
X70542858Y-111630000D01*
X70542858Y-111630000D02*
X70657143Y-111582380D01*
X70657143Y-111582380D02*
X70885715Y-111582380D01*
X70885715Y-111582380D02*
X71000001Y-111630000D01*
X71000001Y-111630000D02*
X71057143Y-111677619D01*
X71057143Y-111677619D02*
X71114286Y-111772857D01*
X71114286Y-111772857D02*
X71114286Y-111820476D01*
X71114286Y-111820476D02*
X71057143Y-111915714D01*
X71057143Y-111915714D02*
X71000001Y-111963333D01*
X71000001Y-111963333D02*
X70885715Y-112010952D01*
X70885715Y-112010952D02*
X70657143Y-112010952D01*
X70657143Y-112010952D02*
X70542858Y-112058571D01*
X70542858Y-112058571D02*
X70485715Y-112106190D01*
X70485715Y-112106190D02*
X70428572Y-112201428D01*
X70428572Y-112201428D02*
X70428572Y-112391904D01*
X70428572Y-112391904D02*
X70485715Y-112487142D01*
X70485715Y-112487142D02*
X70542858Y-112534761D01*
X70542858Y-112534761D02*
X70657143Y-112582380D01*
X70657143Y-112582380D02*
X70885715Y-112582380D01*
X70885715Y-112582380D02*
X71000001Y-112534761D01*
X71000001Y-112534761D02*
X71057143Y-112487142D01*
X71057143Y-112487142D02*
X71114286Y-112391904D01*
X71114286Y-112391904D02*
X71114286Y-112201428D01*
X71114286Y-112201428D02*
X71057143Y-112106190D01*
X71057143Y-112106190D02*
X71000001Y-112058571D01*
X71000001Y-112058571D02*
X70885715Y-112010952D01*
X71514286Y-111582380D02*
X72257143Y-111582380D01*
X72257143Y-111582380D02*
X71857143Y-111963333D01*
X71857143Y-111963333D02*
X72028572Y-111963333D01*
X72028572Y-111963333D02*
X72142858Y-112010952D01*
X72142858Y-112010952D02*
X72200000Y-112058571D01*
X72200000Y-112058571D02*
X72257143Y-112153809D01*
X72257143Y-112153809D02*
X72257143Y-112391904D01*
X72257143Y-112391904D02*
X72200000Y-112487142D01*
X72200000Y-112487142D02*
X72142858Y-112534761D01*
X72142858Y-112534761D02*
X72028572Y-112582380D01*
X72028572Y-112582380D02*
X71685715Y-112582380D01*
X71685715Y-112582380D02*
X71571429Y-112534761D01*
X71571429Y-112534761D02*
X71514286Y-112487142D01*
X73571429Y-112677619D02*
X73457143Y-112630000D01*
X73457143Y-112630000D02*
X73342857Y-112534761D01*
X73342857Y-112534761D02*
X73171429Y-112391904D01*
X73171429Y-112391904D02*
X73057143Y-112344285D01*
X73057143Y-112344285D02*
X72942857Y-112344285D01*
X73000000Y-112582380D02*
X72885715Y-112534761D01*
X72885715Y-112534761D02*
X72771429Y-112439523D01*
X72771429Y-112439523D02*
X72714286Y-112249047D01*
X72714286Y-112249047D02*
X72714286Y-111915714D01*
X72714286Y-111915714D02*
X72771429Y-111725238D01*
X72771429Y-111725238D02*
X72885715Y-111630000D01*
X72885715Y-111630000D02*
X73000000Y-111582380D01*
X73000000Y-111582380D02*
X73228572Y-111582380D01*
X73228572Y-111582380D02*
X73342857Y-111630000D01*
X73342857Y-111630000D02*
X73457143Y-111725238D01*
X73457143Y-111725238D02*
X73514286Y-111915714D01*
X73514286Y-111915714D02*
X73514286Y-112249047D01*
X73514286Y-112249047D02*
X73457143Y-112439523D01*
X73457143Y-112439523D02*
X73342857Y-112534761D01*
X73342857Y-112534761D02*
X73228572Y-112582380D01*
X73228572Y-112582380D02*
X73000000Y-112582380D01*
X73857143Y-111582380D02*
X74542858Y-111582380D01*
X74200000Y-112582380D02*
X74200000Y-111582380D01*
X74942858Y-112201428D02*
X75857144Y-112201428D01*
X77057143Y-112582380D02*
X76371429Y-112582380D01*
X76714286Y-112582380D02*
X76714286Y-111582380D01*
X76714286Y-111582380D02*
X76600000Y-111725238D01*
X76600000Y-111725238D02*
X76485715Y-111820476D01*
X76485715Y-111820476D02*
X76371429Y-111868095D01*
X78200000Y-112582380D02*
X77514286Y-112582380D01*
X77857143Y-112582380D02*
X77857143Y-111582380D01*
X77857143Y-111582380D02*
X77742857Y-111725238D01*
X77742857Y-111725238D02*
X77628572Y-111820476D01*
X77628572Y-111820476D02*
X77514286Y-111868095D01*
D10*
%TO.C,C3*%
X97833333Y-110402142D02*
X97785714Y-110449761D01*
X97785714Y-110449761D02*
X97642857Y-110497380D01*
X97642857Y-110497380D02*
X97547619Y-110497380D01*
X97547619Y-110497380D02*
X97404762Y-110449761D01*
X97404762Y-110449761D02*
X97309524Y-110354523D01*
X97309524Y-110354523D02*
X97261905Y-110259285D01*
X97261905Y-110259285D02*
X97214286Y-110068809D01*
X97214286Y-110068809D02*
X97214286Y-109925952D01*
X97214286Y-109925952D02*
X97261905Y-109735476D01*
X97261905Y-109735476D02*
X97309524Y-109640238D01*
X97309524Y-109640238D02*
X97404762Y-109545000D01*
X97404762Y-109545000D02*
X97547619Y-109497380D01*
X97547619Y-109497380D02*
X97642857Y-109497380D01*
X97642857Y-109497380D02*
X97785714Y-109545000D01*
X97785714Y-109545000D02*
X97833333Y-109592619D01*
X98166667Y-109497380D02*
X98785714Y-109497380D01*
X98785714Y-109497380D02*
X98452381Y-109878333D01*
X98452381Y-109878333D02*
X98595238Y-109878333D01*
X98595238Y-109878333D02*
X98690476Y-109925952D01*
X98690476Y-109925952D02*
X98738095Y-109973571D01*
X98738095Y-109973571D02*
X98785714Y-110068809D01*
X98785714Y-110068809D02*
X98785714Y-110306904D01*
X98785714Y-110306904D02*
X98738095Y-110402142D01*
X98738095Y-110402142D02*
X98690476Y-110449761D01*
X98690476Y-110449761D02*
X98595238Y-110497380D01*
X98595238Y-110497380D02*
X98309524Y-110497380D01*
X98309524Y-110497380D02*
X98214286Y-110449761D01*
X98214286Y-110449761D02*
X98166667Y-110402142D01*
%TO.C,SW3*%
X140176667Y-95859761D02*
X140319524Y-95907380D01*
X140319524Y-95907380D02*
X140557619Y-95907380D01*
X140557619Y-95907380D02*
X140652857Y-95859761D01*
X140652857Y-95859761D02*
X140700476Y-95812142D01*
X140700476Y-95812142D02*
X140748095Y-95716904D01*
X140748095Y-95716904D02*
X140748095Y-95621666D01*
X140748095Y-95621666D02*
X140700476Y-95526428D01*
X140700476Y-95526428D02*
X140652857Y-95478809D01*
X140652857Y-95478809D02*
X140557619Y-95431190D01*
X140557619Y-95431190D02*
X140367143Y-95383571D01*
X140367143Y-95383571D02*
X140271905Y-95335952D01*
X140271905Y-95335952D02*
X140224286Y-95288333D01*
X140224286Y-95288333D02*
X140176667Y-95193095D01*
X140176667Y-95193095D02*
X140176667Y-95097857D01*
X140176667Y-95097857D02*
X140224286Y-95002619D01*
X140224286Y-95002619D02*
X140271905Y-94955000D01*
X140271905Y-94955000D02*
X140367143Y-94907380D01*
X140367143Y-94907380D02*
X140605238Y-94907380D01*
X140605238Y-94907380D02*
X140748095Y-94955000D01*
X141081429Y-94907380D02*
X141319524Y-95907380D01*
X141319524Y-95907380D02*
X141510000Y-95193095D01*
X141510000Y-95193095D02*
X141700476Y-95907380D01*
X141700476Y-95907380D02*
X141938572Y-94907380D01*
X142224286Y-94907380D02*
X142843333Y-94907380D01*
X142843333Y-94907380D02*
X142510000Y-95288333D01*
X142510000Y-95288333D02*
X142652857Y-95288333D01*
X142652857Y-95288333D02*
X142748095Y-95335952D01*
X142748095Y-95335952D02*
X142795714Y-95383571D01*
X142795714Y-95383571D02*
X142843333Y-95478809D01*
X142843333Y-95478809D02*
X142843333Y-95716904D01*
X142843333Y-95716904D02*
X142795714Y-95812142D01*
X142795714Y-95812142D02*
X142748095Y-95859761D01*
X142748095Y-95859761D02*
X142652857Y-95907380D01*
X142652857Y-95907380D02*
X142367143Y-95907380D01*
X142367143Y-95907380D02*
X142271905Y-95859761D01*
X142271905Y-95859761D02*
X142224286Y-95812142D01*
%TO.C,R2*%
X79833333Y-97467380D02*
X79500000Y-96991190D01*
X79261905Y-97467380D02*
X79261905Y-96467380D01*
X79261905Y-96467380D02*
X79642857Y-96467380D01*
X79642857Y-96467380D02*
X79738095Y-96515000D01*
X79738095Y-96515000D02*
X79785714Y-96562619D01*
X79785714Y-96562619D02*
X79833333Y-96657857D01*
X79833333Y-96657857D02*
X79833333Y-96800714D01*
X79833333Y-96800714D02*
X79785714Y-96895952D01*
X79785714Y-96895952D02*
X79738095Y-96943571D01*
X79738095Y-96943571D02*
X79642857Y-96991190D01*
X79642857Y-96991190D02*
X79261905Y-96991190D01*
X80214286Y-96562619D02*
X80261905Y-96515000D01*
X80261905Y-96515000D02*
X80357143Y-96467380D01*
X80357143Y-96467380D02*
X80595238Y-96467380D01*
X80595238Y-96467380D02*
X80690476Y-96515000D01*
X80690476Y-96515000D02*
X80738095Y-96562619D01*
X80738095Y-96562619D02*
X80785714Y-96657857D01*
X80785714Y-96657857D02*
X80785714Y-96753095D01*
X80785714Y-96753095D02*
X80738095Y-96895952D01*
X80738095Y-96895952D02*
X80166667Y-97467380D01*
X80166667Y-97467380D02*
X80785714Y-97467380D01*
%TO.C,SW1*%
X120966667Y-84719761D02*
X121109524Y-84767380D01*
X121109524Y-84767380D02*
X121347619Y-84767380D01*
X121347619Y-84767380D02*
X121442857Y-84719761D01*
X121442857Y-84719761D02*
X121490476Y-84672142D01*
X121490476Y-84672142D02*
X121538095Y-84576904D01*
X121538095Y-84576904D02*
X121538095Y-84481666D01*
X121538095Y-84481666D02*
X121490476Y-84386428D01*
X121490476Y-84386428D02*
X121442857Y-84338809D01*
X121442857Y-84338809D02*
X121347619Y-84291190D01*
X121347619Y-84291190D02*
X121157143Y-84243571D01*
X121157143Y-84243571D02*
X121061905Y-84195952D01*
X121061905Y-84195952D02*
X121014286Y-84148333D01*
X121014286Y-84148333D02*
X120966667Y-84053095D01*
X120966667Y-84053095D02*
X120966667Y-83957857D01*
X120966667Y-83957857D02*
X121014286Y-83862619D01*
X121014286Y-83862619D02*
X121061905Y-83815000D01*
X121061905Y-83815000D02*
X121157143Y-83767380D01*
X121157143Y-83767380D02*
X121395238Y-83767380D01*
X121395238Y-83767380D02*
X121538095Y-83815000D01*
X121871429Y-83767380D02*
X122109524Y-84767380D01*
X122109524Y-84767380D02*
X122300000Y-84053095D01*
X122300000Y-84053095D02*
X122490476Y-84767380D01*
X122490476Y-84767380D02*
X122728572Y-83767380D01*
X123633333Y-84767380D02*
X123061905Y-84767380D01*
X123347619Y-84767380D02*
X123347619Y-83767380D01*
X123347619Y-83767380D02*
X123252381Y-83910238D01*
X123252381Y-83910238D02*
X123157143Y-84005476D01*
X123157143Y-84005476D02*
X123061905Y-84053095D01*
%TO.C,R6*%
X107167380Y-85466666D02*
X106691190Y-85799999D01*
X107167380Y-86038094D02*
X106167380Y-86038094D01*
X106167380Y-86038094D02*
X106167380Y-85657142D01*
X106167380Y-85657142D02*
X106215000Y-85561904D01*
X106215000Y-85561904D02*
X106262619Y-85514285D01*
X106262619Y-85514285D02*
X106357857Y-85466666D01*
X106357857Y-85466666D02*
X106500714Y-85466666D01*
X106500714Y-85466666D02*
X106595952Y-85514285D01*
X106595952Y-85514285D02*
X106643571Y-85561904D01*
X106643571Y-85561904D02*
X106691190Y-85657142D01*
X106691190Y-85657142D02*
X106691190Y-86038094D01*
X106167380Y-84609523D02*
X106167380Y-84799999D01*
X106167380Y-84799999D02*
X106215000Y-84895237D01*
X106215000Y-84895237D02*
X106262619Y-84942856D01*
X106262619Y-84942856D02*
X106405476Y-85038094D01*
X106405476Y-85038094D02*
X106595952Y-85085713D01*
X106595952Y-85085713D02*
X106976904Y-85085713D01*
X106976904Y-85085713D02*
X107072142Y-85038094D01*
X107072142Y-85038094D02*
X107119761Y-84990475D01*
X107119761Y-84990475D02*
X107167380Y-84895237D01*
X107167380Y-84895237D02*
X107167380Y-84704761D01*
X107167380Y-84704761D02*
X107119761Y-84609523D01*
X107119761Y-84609523D02*
X107072142Y-84561904D01*
X107072142Y-84561904D02*
X106976904Y-84514285D01*
X106976904Y-84514285D02*
X106738809Y-84514285D01*
X106738809Y-84514285D02*
X106643571Y-84561904D01*
X106643571Y-84561904D02*
X106595952Y-84609523D01*
X106595952Y-84609523D02*
X106548333Y-84704761D01*
X106548333Y-84704761D02*
X106548333Y-84895237D01*
X106548333Y-84895237D02*
X106595952Y-84990475D01*
X106595952Y-84990475D02*
X106643571Y-85038094D01*
X106643571Y-85038094D02*
X106738809Y-85085713D01*
%TO.C,C16*%
X128934642Y-95162857D02*
X128982261Y-95210476D01*
X128982261Y-95210476D02*
X129029880Y-95353333D01*
X129029880Y-95353333D02*
X129029880Y-95448571D01*
X129029880Y-95448571D02*
X128982261Y-95591428D01*
X128982261Y-95591428D02*
X128887023Y-95686666D01*
X128887023Y-95686666D02*
X128791785Y-95734285D01*
X128791785Y-95734285D02*
X128601309Y-95781904D01*
X128601309Y-95781904D02*
X128458452Y-95781904D01*
X128458452Y-95781904D02*
X128267976Y-95734285D01*
X128267976Y-95734285D02*
X128172738Y-95686666D01*
X128172738Y-95686666D02*
X128077500Y-95591428D01*
X128077500Y-95591428D02*
X128029880Y-95448571D01*
X128029880Y-95448571D02*
X128029880Y-95353333D01*
X128029880Y-95353333D02*
X128077500Y-95210476D01*
X128077500Y-95210476D02*
X128125119Y-95162857D01*
X129029880Y-94210476D02*
X129029880Y-94781904D01*
X129029880Y-94496190D02*
X128029880Y-94496190D01*
X128029880Y-94496190D02*
X128172738Y-94591428D01*
X128172738Y-94591428D02*
X128267976Y-94686666D01*
X128267976Y-94686666D02*
X128315595Y-94781904D01*
X128029880Y-93353333D02*
X128029880Y-93543809D01*
X128029880Y-93543809D02*
X128077500Y-93639047D01*
X128077500Y-93639047D02*
X128125119Y-93686666D01*
X128125119Y-93686666D02*
X128267976Y-93781904D01*
X128267976Y-93781904D02*
X128458452Y-93829523D01*
X128458452Y-93829523D02*
X128839404Y-93829523D01*
X128839404Y-93829523D02*
X128934642Y-93781904D01*
X128934642Y-93781904D02*
X128982261Y-93734285D01*
X128982261Y-93734285D02*
X129029880Y-93639047D01*
X129029880Y-93639047D02*
X129029880Y-93448571D01*
X129029880Y-93448571D02*
X128982261Y-93353333D01*
X128982261Y-93353333D02*
X128934642Y-93305714D01*
X128934642Y-93305714D02*
X128839404Y-93258095D01*
X128839404Y-93258095D02*
X128601309Y-93258095D01*
X128601309Y-93258095D02*
X128506071Y-93305714D01*
X128506071Y-93305714D02*
X128458452Y-93353333D01*
X128458452Y-93353333D02*
X128410833Y-93448571D01*
X128410833Y-93448571D02*
X128410833Y-93639047D01*
X128410833Y-93639047D02*
X128458452Y-93734285D01*
X128458452Y-93734285D02*
X128506071Y-93781904D01*
X128506071Y-93781904D02*
X128601309Y-93829523D01*
%TO.C,C17*%
X127272142Y-95142857D02*
X127319761Y-95190476D01*
X127319761Y-95190476D02*
X127367380Y-95333333D01*
X127367380Y-95333333D02*
X127367380Y-95428571D01*
X127367380Y-95428571D02*
X127319761Y-95571428D01*
X127319761Y-95571428D02*
X127224523Y-95666666D01*
X127224523Y-95666666D02*
X127129285Y-95714285D01*
X127129285Y-95714285D02*
X126938809Y-95761904D01*
X126938809Y-95761904D02*
X126795952Y-95761904D01*
X126795952Y-95761904D02*
X126605476Y-95714285D01*
X126605476Y-95714285D02*
X126510238Y-95666666D01*
X126510238Y-95666666D02*
X126415000Y-95571428D01*
X126415000Y-95571428D02*
X126367380Y-95428571D01*
X126367380Y-95428571D02*
X126367380Y-95333333D01*
X126367380Y-95333333D02*
X126415000Y-95190476D01*
X126415000Y-95190476D02*
X126462619Y-95142857D01*
X127367380Y-94190476D02*
X127367380Y-94761904D01*
X127367380Y-94476190D02*
X126367380Y-94476190D01*
X126367380Y-94476190D02*
X126510238Y-94571428D01*
X126510238Y-94571428D02*
X126605476Y-94666666D01*
X126605476Y-94666666D02*
X126653095Y-94761904D01*
X126367380Y-93857142D02*
X126367380Y-93190476D01*
X126367380Y-93190476D02*
X127367380Y-93619047D01*
%TO.C,SW2*%
X111166667Y-84719761D02*
X111309524Y-84767380D01*
X111309524Y-84767380D02*
X111547619Y-84767380D01*
X111547619Y-84767380D02*
X111642857Y-84719761D01*
X111642857Y-84719761D02*
X111690476Y-84672142D01*
X111690476Y-84672142D02*
X111738095Y-84576904D01*
X111738095Y-84576904D02*
X111738095Y-84481666D01*
X111738095Y-84481666D02*
X111690476Y-84386428D01*
X111690476Y-84386428D02*
X111642857Y-84338809D01*
X111642857Y-84338809D02*
X111547619Y-84291190D01*
X111547619Y-84291190D02*
X111357143Y-84243571D01*
X111357143Y-84243571D02*
X111261905Y-84195952D01*
X111261905Y-84195952D02*
X111214286Y-84148333D01*
X111214286Y-84148333D02*
X111166667Y-84053095D01*
X111166667Y-84053095D02*
X111166667Y-83957857D01*
X111166667Y-83957857D02*
X111214286Y-83862619D01*
X111214286Y-83862619D02*
X111261905Y-83815000D01*
X111261905Y-83815000D02*
X111357143Y-83767380D01*
X111357143Y-83767380D02*
X111595238Y-83767380D01*
X111595238Y-83767380D02*
X111738095Y-83815000D01*
X112071429Y-83767380D02*
X112309524Y-84767380D01*
X112309524Y-84767380D02*
X112500000Y-84053095D01*
X112500000Y-84053095D02*
X112690476Y-84767380D01*
X112690476Y-84767380D02*
X112928572Y-83767380D01*
X113261905Y-83862619D02*
X113309524Y-83815000D01*
X113309524Y-83815000D02*
X113404762Y-83767380D01*
X113404762Y-83767380D02*
X113642857Y-83767380D01*
X113642857Y-83767380D02*
X113738095Y-83815000D01*
X113738095Y-83815000D02*
X113785714Y-83862619D01*
X113785714Y-83862619D02*
X113833333Y-83957857D01*
X113833333Y-83957857D02*
X113833333Y-84053095D01*
X113833333Y-84053095D02*
X113785714Y-84195952D01*
X113785714Y-84195952D02*
X113214286Y-84767380D01*
X113214286Y-84767380D02*
X113833333Y-84767380D01*
%TO.C,R7*%
X117333333Y-96767380D02*
X117000000Y-96291190D01*
X116761905Y-96767380D02*
X116761905Y-95767380D01*
X116761905Y-95767380D02*
X117142857Y-95767380D01*
X117142857Y-95767380D02*
X117238095Y-95815000D01*
X117238095Y-95815000D02*
X117285714Y-95862619D01*
X117285714Y-95862619D02*
X117333333Y-95957857D01*
X117333333Y-95957857D02*
X117333333Y-96100714D01*
X117333333Y-96100714D02*
X117285714Y-96195952D01*
X117285714Y-96195952D02*
X117238095Y-96243571D01*
X117238095Y-96243571D02*
X117142857Y-96291190D01*
X117142857Y-96291190D02*
X116761905Y-96291190D01*
X117666667Y-95767380D02*
X118333333Y-95767380D01*
X118333333Y-95767380D02*
X117904762Y-96767380D01*
%TO.C,C1*%
X89303402Y-96366666D02*
X89351021Y-96414285D01*
X89351021Y-96414285D02*
X89398640Y-96557142D01*
X89398640Y-96557142D02*
X89398640Y-96652380D01*
X89398640Y-96652380D02*
X89351021Y-96795237D01*
X89351021Y-96795237D02*
X89255783Y-96890475D01*
X89255783Y-96890475D02*
X89160545Y-96938094D01*
X89160545Y-96938094D02*
X88970069Y-96985713D01*
X88970069Y-96985713D02*
X88827212Y-96985713D01*
X88827212Y-96985713D02*
X88636736Y-96938094D01*
X88636736Y-96938094D02*
X88541498Y-96890475D01*
X88541498Y-96890475D02*
X88446260Y-96795237D01*
X88446260Y-96795237D02*
X88398640Y-96652380D01*
X88398640Y-96652380D02*
X88398640Y-96557142D01*
X88398640Y-96557142D02*
X88446260Y-96414285D01*
X88446260Y-96414285D02*
X88493879Y-96366666D01*
X89398640Y-95414285D02*
X89398640Y-95985713D01*
X89398640Y-95699999D02*
X88398640Y-95699999D01*
X88398640Y-95699999D02*
X88541498Y-95795237D01*
X88541498Y-95795237D02*
X88636736Y-95890475D01*
X88636736Y-95890475D02*
X88684355Y-95985713D01*
%TO.C,C6*%
X79733333Y-99042142D02*
X79685714Y-99089761D01*
X79685714Y-99089761D02*
X79542857Y-99137380D01*
X79542857Y-99137380D02*
X79447619Y-99137380D01*
X79447619Y-99137380D02*
X79304762Y-99089761D01*
X79304762Y-99089761D02*
X79209524Y-98994523D01*
X79209524Y-98994523D02*
X79161905Y-98899285D01*
X79161905Y-98899285D02*
X79114286Y-98708809D01*
X79114286Y-98708809D02*
X79114286Y-98565952D01*
X79114286Y-98565952D02*
X79161905Y-98375476D01*
X79161905Y-98375476D02*
X79209524Y-98280238D01*
X79209524Y-98280238D02*
X79304762Y-98185000D01*
X79304762Y-98185000D02*
X79447619Y-98137380D01*
X79447619Y-98137380D02*
X79542857Y-98137380D01*
X79542857Y-98137380D02*
X79685714Y-98185000D01*
X79685714Y-98185000D02*
X79733333Y-98232619D01*
X80590476Y-98137380D02*
X80400000Y-98137380D01*
X80400000Y-98137380D02*
X80304762Y-98185000D01*
X80304762Y-98185000D02*
X80257143Y-98232619D01*
X80257143Y-98232619D02*
X80161905Y-98375476D01*
X80161905Y-98375476D02*
X80114286Y-98565952D01*
X80114286Y-98565952D02*
X80114286Y-98946904D01*
X80114286Y-98946904D02*
X80161905Y-99042142D01*
X80161905Y-99042142D02*
X80209524Y-99089761D01*
X80209524Y-99089761D02*
X80304762Y-99137380D01*
X80304762Y-99137380D02*
X80495238Y-99137380D01*
X80495238Y-99137380D02*
X80590476Y-99089761D01*
X80590476Y-99089761D02*
X80638095Y-99042142D01*
X80638095Y-99042142D02*
X80685714Y-98946904D01*
X80685714Y-98946904D02*
X80685714Y-98708809D01*
X80685714Y-98708809D02*
X80638095Y-98613571D01*
X80638095Y-98613571D02*
X80590476Y-98565952D01*
X80590476Y-98565952D02*
X80495238Y-98518333D01*
X80495238Y-98518333D02*
X80304762Y-98518333D01*
X80304762Y-98518333D02*
X80209524Y-98565952D01*
X80209524Y-98565952D02*
X80161905Y-98613571D01*
X80161905Y-98613571D02*
X80114286Y-98708809D01*
%TO.C,C11*%
X85772142Y-91842857D02*
X85819761Y-91890476D01*
X85819761Y-91890476D02*
X85867380Y-92033333D01*
X85867380Y-92033333D02*
X85867380Y-92128571D01*
X85867380Y-92128571D02*
X85819761Y-92271428D01*
X85819761Y-92271428D02*
X85724523Y-92366666D01*
X85724523Y-92366666D02*
X85629285Y-92414285D01*
X85629285Y-92414285D02*
X85438809Y-92461904D01*
X85438809Y-92461904D02*
X85295952Y-92461904D01*
X85295952Y-92461904D02*
X85105476Y-92414285D01*
X85105476Y-92414285D02*
X85010238Y-92366666D01*
X85010238Y-92366666D02*
X84915000Y-92271428D01*
X84915000Y-92271428D02*
X84867380Y-92128571D01*
X84867380Y-92128571D02*
X84867380Y-92033333D01*
X84867380Y-92033333D02*
X84915000Y-91890476D01*
X84915000Y-91890476D02*
X84962619Y-91842857D01*
X85867380Y-90890476D02*
X85867380Y-91461904D01*
X85867380Y-91176190D02*
X84867380Y-91176190D01*
X84867380Y-91176190D02*
X85010238Y-91271428D01*
X85010238Y-91271428D02*
X85105476Y-91366666D01*
X85105476Y-91366666D02*
X85153095Y-91461904D01*
X85867380Y-89938095D02*
X85867380Y-90509523D01*
X85867380Y-90223809D02*
X84867380Y-90223809D01*
X84867380Y-90223809D02*
X85010238Y-90319047D01*
X85010238Y-90319047D02*
X85105476Y-90414285D01*
X85105476Y-90414285D02*
X85153095Y-90509523D01*
%TO.C,U3*%
X73238095Y-81867380D02*
X73238095Y-82676904D01*
X73238095Y-82676904D02*
X73285714Y-82772142D01*
X73285714Y-82772142D02*
X73333333Y-82819761D01*
X73333333Y-82819761D02*
X73428571Y-82867380D01*
X73428571Y-82867380D02*
X73619047Y-82867380D01*
X73619047Y-82867380D02*
X73714285Y-82819761D01*
X73714285Y-82819761D02*
X73761904Y-82772142D01*
X73761904Y-82772142D02*
X73809523Y-82676904D01*
X73809523Y-82676904D02*
X73809523Y-81867380D01*
X74190476Y-81867380D02*
X74809523Y-81867380D01*
X74809523Y-81867380D02*
X74476190Y-82248333D01*
X74476190Y-82248333D02*
X74619047Y-82248333D01*
X74619047Y-82248333D02*
X74714285Y-82295952D01*
X74714285Y-82295952D02*
X74761904Y-82343571D01*
X74761904Y-82343571D02*
X74809523Y-82438809D01*
X74809523Y-82438809D02*
X74809523Y-82676904D01*
X74809523Y-82676904D02*
X74761904Y-82772142D01*
X74761904Y-82772142D02*
X74714285Y-82819761D01*
X74714285Y-82819761D02*
X74619047Y-82867380D01*
X74619047Y-82867380D02*
X74333333Y-82867380D01*
X74333333Y-82867380D02*
X74238095Y-82819761D01*
X74238095Y-82819761D02*
X74190476Y-82772142D01*
%TO.C,R5*%
X127733333Y-84267380D02*
X127400000Y-83791190D01*
X127161905Y-84267380D02*
X127161905Y-83267380D01*
X127161905Y-83267380D02*
X127542857Y-83267380D01*
X127542857Y-83267380D02*
X127638095Y-83315000D01*
X127638095Y-83315000D02*
X127685714Y-83362619D01*
X127685714Y-83362619D02*
X127733333Y-83457857D01*
X127733333Y-83457857D02*
X127733333Y-83600714D01*
X127733333Y-83600714D02*
X127685714Y-83695952D01*
X127685714Y-83695952D02*
X127638095Y-83743571D01*
X127638095Y-83743571D02*
X127542857Y-83791190D01*
X127542857Y-83791190D02*
X127161905Y-83791190D01*
X128638095Y-83267380D02*
X128161905Y-83267380D01*
X128161905Y-83267380D02*
X128114286Y-83743571D01*
X128114286Y-83743571D02*
X128161905Y-83695952D01*
X128161905Y-83695952D02*
X128257143Y-83648333D01*
X128257143Y-83648333D02*
X128495238Y-83648333D01*
X128495238Y-83648333D02*
X128590476Y-83695952D01*
X128590476Y-83695952D02*
X128638095Y-83743571D01*
X128638095Y-83743571D02*
X128685714Y-83838809D01*
X128685714Y-83838809D02*
X128685714Y-84076904D01*
X128685714Y-84076904D02*
X128638095Y-84172142D01*
X128638095Y-84172142D02*
X128590476Y-84219761D01*
X128590476Y-84219761D02*
X128495238Y-84267380D01*
X128495238Y-84267380D02*
X128257143Y-84267380D01*
X128257143Y-84267380D02*
X128161905Y-84219761D01*
X128161905Y-84219761D02*
X128114286Y-84172142D01*
%TO.C,C18*%
X125672142Y-95142857D02*
X125719761Y-95190476D01*
X125719761Y-95190476D02*
X125767380Y-95333333D01*
X125767380Y-95333333D02*
X125767380Y-95428571D01*
X125767380Y-95428571D02*
X125719761Y-95571428D01*
X125719761Y-95571428D02*
X125624523Y-95666666D01*
X125624523Y-95666666D02*
X125529285Y-95714285D01*
X125529285Y-95714285D02*
X125338809Y-95761904D01*
X125338809Y-95761904D02*
X125195952Y-95761904D01*
X125195952Y-95761904D02*
X125005476Y-95714285D01*
X125005476Y-95714285D02*
X124910238Y-95666666D01*
X124910238Y-95666666D02*
X124815000Y-95571428D01*
X124815000Y-95571428D02*
X124767380Y-95428571D01*
X124767380Y-95428571D02*
X124767380Y-95333333D01*
X124767380Y-95333333D02*
X124815000Y-95190476D01*
X124815000Y-95190476D02*
X124862619Y-95142857D01*
X125767380Y-94190476D02*
X125767380Y-94761904D01*
X125767380Y-94476190D02*
X124767380Y-94476190D01*
X124767380Y-94476190D02*
X124910238Y-94571428D01*
X124910238Y-94571428D02*
X125005476Y-94666666D01*
X125005476Y-94666666D02*
X125053095Y-94761904D01*
X125195952Y-93619047D02*
X125148333Y-93714285D01*
X125148333Y-93714285D02*
X125100714Y-93761904D01*
X125100714Y-93761904D02*
X125005476Y-93809523D01*
X125005476Y-93809523D02*
X124957857Y-93809523D01*
X124957857Y-93809523D02*
X124862619Y-93761904D01*
X124862619Y-93761904D02*
X124815000Y-93714285D01*
X124815000Y-93714285D02*
X124767380Y-93619047D01*
X124767380Y-93619047D02*
X124767380Y-93428571D01*
X124767380Y-93428571D02*
X124815000Y-93333333D01*
X124815000Y-93333333D02*
X124862619Y-93285714D01*
X124862619Y-93285714D02*
X124957857Y-93238095D01*
X124957857Y-93238095D02*
X125005476Y-93238095D01*
X125005476Y-93238095D02*
X125100714Y-93285714D01*
X125100714Y-93285714D02*
X125148333Y-93333333D01*
X125148333Y-93333333D02*
X125195952Y-93428571D01*
X125195952Y-93428571D02*
X125195952Y-93619047D01*
X125195952Y-93619047D02*
X125243571Y-93714285D01*
X125243571Y-93714285D02*
X125291190Y-93761904D01*
X125291190Y-93761904D02*
X125386428Y-93809523D01*
X125386428Y-93809523D02*
X125576904Y-93809523D01*
X125576904Y-93809523D02*
X125672142Y-93761904D01*
X125672142Y-93761904D02*
X125719761Y-93714285D01*
X125719761Y-93714285D02*
X125767380Y-93619047D01*
X125767380Y-93619047D02*
X125767380Y-93428571D01*
X125767380Y-93428571D02*
X125719761Y-93333333D01*
X125719761Y-93333333D02*
X125672142Y-93285714D01*
X125672142Y-93285714D02*
X125576904Y-93238095D01*
X125576904Y-93238095D02*
X125386428Y-93238095D01*
X125386428Y-93238095D02*
X125291190Y-93285714D01*
X125291190Y-93285714D02*
X125243571Y-93333333D01*
X125243571Y-93333333D02*
X125195952Y-93428571D01*
%TO.C,J3*%
X112562380Y-94158333D02*
X113276666Y-94158333D01*
X113276666Y-94158333D02*
X113419523Y-94205952D01*
X113419523Y-94205952D02*
X113514761Y-94301190D01*
X113514761Y-94301190D02*
X113562380Y-94444047D01*
X113562380Y-94444047D02*
X113562380Y-94539285D01*
X112562380Y-93777380D02*
X112562380Y-93158333D01*
X112562380Y-93158333D02*
X112943333Y-93491666D01*
X112943333Y-93491666D02*
X112943333Y-93348809D01*
X112943333Y-93348809D02*
X112990952Y-93253571D01*
X112990952Y-93253571D02*
X113038571Y-93205952D01*
X113038571Y-93205952D02*
X113133809Y-93158333D01*
X113133809Y-93158333D02*
X113371904Y-93158333D01*
X113371904Y-93158333D02*
X113467142Y-93205952D01*
X113467142Y-93205952D02*
X113514761Y-93253571D01*
X113514761Y-93253571D02*
X113562380Y-93348809D01*
X113562380Y-93348809D02*
X113562380Y-93634523D01*
X113562380Y-93634523D02*
X113514761Y-93729761D01*
X113514761Y-93729761D02*
X113467142Y-93777380D01*
%TO.C,U2*%
X86067380Y-105861904D02*
X86876904Y-105861904D01*
X86876904Y-105861904D02*
X86972142Y-105814285D01*
X86972142Y-105814285D02*
X87019761Y-105766666D01*
X87019761Y-105766666D02*
X87067380Y-105671428D01*
X87067380Y-105671428D02*
X87067380Y-105480952D01*
X87067380Y-105480952D02*
X87019761Y-105385714D01*
X87019761Y-105385714D02*
X86972142Y-105338095D01*
X86972142Y-105338095D02*
X86876904Y-105290476D01*
X86876904Y-105290476D02*
X86067380Y-105290476D01*
X86162619Y-104861904D02*
X86115000Y-104814285D01*
X86115000Y-104814285D02*
X86067380Y-104719047D01*
X86067380Y-104719047D02*
X86067380Y-104480952D01*
X86067380Y-104480952D02*
X86115000Y-104385714D01*
X86115000Y-104385714D02*
X86162619Y-104338095D01*
X86162619Y-104338095D02*
X86257857Y-104290476D01*
X86257857Y-104290476D02*
X86353095Y-104290476D01*
X86353095Y-104290476D02*
X86495952Y-104338095D01*
X86495952Y-104338095D02*
X87067380Y-104909523D01*
X87067380Y-104909523D02*
X87067380Y-104290476D01*
%TO.C,C9*%
X99533333Y-100672142D02*
X99485714Y-100719761D01*
X99485714Y-100719761D02*
X99342857Y-100767380D01*
X99342857Y-100767380D02*
X99247619Y-100767380D01*
X99247619Y-100767380D02*
X99104762Y-100719761D01*
X99104762Y-100719761D02*
X99009524Y-100624523D01*
X99009524Y-100624523D02*
X98961905Y-100529285D01*
X98961905Y-100529285D02*
X98914286Y-100338809D01*
X98914286Y-100338809D02*
X98914286Y-100195952D01*
X98914286Y-100195952D02*
X98961905Y-100005476D01*
X98961905Y-100005476D02*
X99009524Y-99910238D01*
X99009524Y-99910238D02*
X99104762Y-99815000D01*
X99104762Y-99815000D02*
X99247619Y-99767380D01*
X99247619Y-99767380D02*
X99342857Y-99767380D01*
X99342857Y-99767380D02*
X99485714Y-99815000D01*
X99485714Y-99815000D02*
X99533333Y-99862619D01*
X100009524Y-100767380D02*
X100200000Y-100767380D01*
X100200000Y-100767380D02*
X100295238Y-100719761D01*
X100295238Y-100719761D02*
X100342857Y-100672142D01*
X100342857Y-100672142D02*
X100438095Y-100529285D01*
X100438095Y-100529285D02*
X100485714Y-100338809D01*
X100485714Y-100338809D02*
X100485714Y-99957857D01*
X100485714Y-99957857D02*
X100438095Y-99862619D01*
X100438095Y-99862619D02*
X100390476Y-99815000D01*
X100390476Y-99815000D02*
X100295238Y-99767380D01*
X100295238Y-99767380D02*
X100104762Y-99767380D01*
X100104762Y-99767380D02*
X100009524Y-99815000D01*
X100009524Y-99815000D02*
X99961905Y-99862619D01*
X99961905Y-99862619D02*
X99914286Y-99957857D01*
X99914286Y-99957857D02*
X99914286Y-100195952D01*
X99914286Y-100195952D02*
X99961905Y-100291190D01*
X99961905Y-100291190D02*
X100009524Y-100338809D01*
X100009524Y-100338809D02*
X100104762Y-100386428D01*
X100104762Y-100386428D02*
X100295238Y-100386428D01*
X100295238Y-100386428D02*
X100390476Y-100338809D01*
X100390476Y-100338809D02*
X100438095Y-100291190D01*
X100438095Y-100291190D02*
X100485714Y-100195952D01*
%TO.C,R4*%
X117720833Y-82837380D02*
X117387500Y-82361190D01*
X117149405Y-82837380D02*
X117149405Y-81837380D01*
X117149405Y-81837380D02*
X117530357Y-81837380D01*
X117530357Y-81837380D02*
X117625595Y-81885000D01*
X117625595Y-81885000D02*
X117673214Y-81932619D01*
X117673214Y-81932619D02*
X117720833Y-82027857D01*
X117720833Y-82027857D02*
X117720833Y-82170714D01*
X117720833Y-82170714D02*
X117673214Y-82265952D01*
X117673214Y-82265952D02*
X117625595Y-82313571D01*
X117625595Y-82313571D02*
X117530357Y-82361190D01*
X117530357Y-82361190D02*
X117149405Y-82361190D01*
X118577976Y-82170714D02*
X118577976Y-82837380D01*
X118339881Y-81789761D02*
X118101786Y-82504047D01*
X118101786Y-82504047D02*
X118720833Y-82504047D01*
%TO.C,R9*%
X142177380Y-90366666D02*
X141701190Y-90699999D01*
X142177380Y-90938094D02*
X141177380Y-90938094D01*
X141177380Y-90938094D02*
X141177380Y-90557142D01*
X141177380Y-90557142D02*
X141225000Y-90461904D01*
X141225000Y-90461904D02*
X141272619Y-90414285D01*
X141272619Y-90414285D02*
X141367857Y-90366666D01*
X141367857Y-90366666D02*
X141510714Y-90366666D01*
X141510714Y-90366666D02*
X141605952Y-90414285D01*
X141605952Y-90414285D02*
X141653571Y-90461904D01*
X141653571Y-90461904D02*
X141701190Y-90557142D01*
X141701190Y-90557142D02*
X141701190Y-90938094D01*
X142177380Y-89890475D02*
X142177380Y-89699999D01*
X142177380Y-89699999D02*
X142129761Y-89604761D01*
X142129761Y-89604761D02*
X142082142Y-89557142D01*
X142082142Y-89557142D02*
X141939285Y-89461904D01*
X141939285Y-89461904D02*
X141748809Y-89414285D01*
X141748809Y-89414285D02*
X141367857Y-89414285D01*
X141367857Y-89414285D02*
X141272619Y-89461904D01*
X141272619Y-89461904D02*
X141225000Y-89509523D01*
X141225000Y-89509523D02*
X141177380Y-89604761D01*
X141177380Y-89604761D02*
X141177380Y-89795237D01*
X141177380Y-89795237D02*
X141225000Y-89890475D01*
X141225000Y-89890475D02*
X141272619Y-89938094D01*
X141272619Y-89938094D02*
X141367857Y-89985713D01*
X141367857Y-89985713D02*
X141605952Y-89985713D01*
X141605952Y-89985713D02*
X141701190Y-89938094D01*
X141701190Y-89938094D02*
X141748809Y-89890475D01*
X141748809Y-89890475D02*
X141796428Y-89795237D01*
X141796428Y-89795237D02*
X141796428Y-89604761D01*
X141796428Y-89604761D02*
X141748809Y-89509523D01*
X141748809Y-89509523D02*
X141701190Y-89461904D01*
X141701190Y-89461904D02*
X141605952Y-89414285D01*
%TO.C,R10*%
X140467380Y-90342857D02*
X139991190Y-90676190D01*
X140467380Y-90914285D02*
X139467380Y-90914285D01*
X139467380Y-90914285D02*
X139467380Y-90533333D01*
X139467380Y-90533333D02*
X139515000Y-90438095D01*
X139515000Y-90438095D02*
X139562619Y-90390476D01*
X139562619Y-90390476D02*
X139657857Y-90342857D01*
X139657857Y-90342857D02*
X139800714Y-90342857D01*
X139800714Y-90342857D02*
X139895952Y-90390476D01*
X139895952Y-90390476D02*
X139943571Y-90438095D01*
X139943571Y-90438095D02*
X139991190Y-90533333D01*
X139991190Y-90533333D02*
X139991190Y-90914285D01*
X140467380Y-89390476D02*
X140467380Y-89961904D01*
X140467380Y-89676190D02*
X139467380Y-89676190D01*
X139467380Y-89676190D02*
X139610238Y-89771428D01*
X139610238Y-89771428D02*
X139705476Y-89866666D01*
X139705476Y-89866666D02*
X139753095Y-89961904D01*
X139467380Y-88771428D02*
X139467380Y-88676190D01*
X139467380Y-88676190D02*
X139515000Y-88580952D01*
X139515000Y-88580952D02*
X139562619Y-88533333D01*
X139562619Y-88533333D02*
X139657857Y-88485714D01*
X139657857Y-88485714D02*
X139848333Y-88438095D01*
X139848333Y-88438095D02*
X140086428Y-88438095D01*
X140086428Y-88438095D02*
X140276904Y-88485714D01*
X140276904Y-88485714D02*
X140372142Y-88533333D01*
X140372142Y-88533333D02*
X140419761Y-88580952D01*
X140419761Y-88580952D02*
X140467380Y-88676190D01*
X140467380Y-88676190D02*
X140467380Y-88771428D01*
X140467380Y-88771428D02*
X140419761Y-88866666D01*
X140419761Y-88866666D02*
X140372142Y-88914285D01*
X140372142Y-88914285D02*
X140276904Y-88961904D01*
X140276904Y-88961904D02*
X140086428Y-89009523D01*
X140086428Y-89009523D02*
X139848333Y-89009523D01*
X139848333Y-89009523D02*
X139657857Y-88961904D01*
X139657857Y-88961904D02*
X139562619Y-88914285D01*
X139562619Y-88914285D02*
X139515000Y-88866666D01*
X139515000Y-88866666D02*
X139467380Y-88771428D01*
%TO.C,C20*%
X70734642Y-100142857D02*
X70782261Y-100190476D01*
X70782261Y-100190476D02*
X70829880Y-100333333D01*
X70829880Y-100333333D02*
X70829880Y-100428571D01*
X70829880Y-100428571D02*
X70782261Y-100571428D01*
X70782261Y-100571428D02*
X70687023Y-100666666D01*
X70687023Y-100666666D02*
X70591785Y-100714285D01*
X70591785Y-100714285D02*
X70401309Y-100761904D01*
X70401309Y-100761904D02*
X70258452Y-100761904D01*
X70258452Y-100761904D02*
X70067976Y-100714285D01*
X70067976Y-100714285D02*
X69972738Y-100666666D01*
X69972738Y-100666666D02*
X69877500Y-100571428D01*
X69877500Y-100571428D02*
X69829880Y-100428571D01*
X69829880Y-100428571D02*
X69829880Y-100333333D01*
X69829880Y-100333333D02*
X69877500Y-100190476D01*
X69877500Y-100190476D02*
X69925119Y-100142857D01*
X69925119Y-99761904D02*
X69877500Y-99714285D01*
X69877500Y-99714285D02*
X69829880Y-99619047D01*
X69829880Y-99619047D02*
X69829880Y-99380952D01*
X69829880Y-99380952D02*
X69877500Y-99285714D01*
X69877500Y-99285714D02*
X69925119Y-99238095D01*
X69925119Y-99238095D02*
X70020357Y-99190476D01*
X70020357Y-99190476D02*
X70115595Y-99190476D01*
X70115595Y-99190476D02*
X70258452Y-99238095D01*
X70258452Y-99238095D02*
X70829880Y-99809523D01*
X70829880Y-99809523D02*
X70829880Y-99190476D01*
X69829880Y-98571428D02*
X69829880Y-98476190D01*
X69829880Y-98476190D02*
X69877500Y-98380952D01*
X69877500Y-98380952D02*
X69925119Y-98333333D01*
X69925119Y-98333333D02*
X70020357Y-98285714D01*
X70020357Y-98285714D02*
X70210833Y-98238095D01*
X70210833Y-98238095D02*
X70448928Y-98238095D01*
X70448928Y-98238095D02*
X70639404Y-98285714D01*
X70639404Y-98285714D02*
X70734642Y-98333333D01*
X70734642Y-98333333D02*
X70782261Y-98380952D01*
X70782261Y-98380952D02*
X70829880Y-98476190D01*
X70829880Y-98476190D02*
X70829880Y-98571428D01*
X70829880Y-98571428D02*
X70782261Y-98666666D01*
X70782261Y-98666666D02*
X70734642Y-98714285D01*
X70734642Y-98714285D02*
X70639404Y-98761904D01*
X70639404Y-98761904D02*
X70448928Y-98809523D01*
X70448928Y-98809523D02*
X70210833Y-98809523D01*
X70210833Y-98809523D02*
X70020357Y-98761904D01*
X70020357Y-98761904D02*
X69925119Y-98714285D01*
X69925119Y-98714285D02*
X69877500Y-98666666D01*
X69877500Y-98666666D02*
X69829880Y-98571428D01*
%TO.C,R8*%
X143887380Y-90366666D02*
X143411190Y-90699999D01*
X143887380Y-90938094D02*
X142887380Y-90938094D01*
X142887380Y-90938094D02*
X142887380Y-90557142D01*
X142887380Y-90557142D02*
X142935000Y-90461904D01*
X142935000Y-90461904D02*
X142982619Y-90414285D01*
X142982619Y-90414285D02*
X143077857Y-90366666D01*
X143077857Y-90366666D02*
X143220714Y-90366666D01*
X143220714Y-90366666D02*
X143315952Y-90414285D01*
X143315952Y-90414285D02*
X143363571Y-90461904D01*
X143363571Y-90461904D02*
X143411190Y-90557142D01*
X143411190Y-90557142D02*
X143411190Y-90938094D01*
X143315952Y-89795237D02*
X143268333Y-89890475D01*
X143268333Y-89890475D02*
X143220714Y-89938094D01*
X143220714Y-89938094D02*
X143125476Y-89985713D01*
X143125476Y-89985713D02*
X143077857Y-89985713D01*
X143077857Y-89985713D02*
X142982619Y-89938094D01*
X142982619Y-89938094D02*
X142935000Y-89890475D01*
X142935000Y-89890475D02*
X142887380Y-89795237D01*
X142887380Y-89795237D02*
X142887380Y-89604761D01*
X142887380Y-89604761D02*
X142935000Y-89509523D01*
X142935000Y-89509523D02*
X142982619Y-89461904D01*
X142982619Y-89461904D02*
X143077857Y-89414285D01*
X143077857Y-89414285D02*
X143125476Y-89414285D01*
X143125476Y-89414285D02*
X143220714Y-89461904D01*
X143220714Y-89461904D02*
X143268333Y-89509523D01*
X143268333Y-89509523D02*
X143315952Y-89604761D01*
X143315952Y-89604761D02*
X143315952Y-89795237D01*
X143315952Y-89795237D02*
X143363571Y-89890475D01*
X143363571Y-89890475D02*
X143411190Y-89938094D01*
X143411190Y-89938094D02*
X143506428Y-89985713D01*
X143506428Y-89985713D02*
X143696904Y-89985713D01*
X143696904Y-89985713D02*
X143792142Y-89938094D01*
X143792142Y-89938094D02*
X143839761Y-89890475D01*
X143839761Y-89890475D02*
X143887380Y-89795237D01*
X143887380Y-89795237D02*
X143887380Y-89604761D01*
X143887380Y-89604761D02*
X143839761Y-89509523D01*
X143839761Y-89509523D02*
X143792142Y-89461904D01*
X143792142Y-89461904D02*
X143696904Y-89414285D01*
X143696904Y-89414285D02*
X143506428Y-89414285D01*
X143506428Y-89414285D02*
X143411190Y-89461904D01*
X143411190Y-89461904D02*
X143363571Y-89509523D01*
X143363571Y-89509523D02*
X143315952Y-89604761D01*
%TO.C,C14*%
X63257142Y-89272142D02*
X63209523Y-89319761D01*
X63209523Y-89319761D02*
X63066666Y-89367380D01*
X63066666Y-89367380D02*
X62971428Y-89367380D01*
X62971428Y-89367380D02*
X62828571Y-89319761D01*
X62828571Y-89319761D02*
X62733333Y-89224523D01*
X62733333Y-89224523D02*
X62685714Y-89129285D01*
X62685714Y-89129285D02*
X62638095Y-88938809D01*
X62638095Y-88938809D02*
X62638095Y-88795952D01*
X62638095Y-88795952D02*
X62685714Y-88605476D01*
X62685714Y-88605476D02*
X62733333Y-88510238D01*
X62733333Y-88510238D02*
X62828571Y-88415000D01*
X62828571Y-88415000D02*
X62971428Y-88367380D01*
X62971428Y-88367380D02*
X63066666Y-88367380D01*
X63066666Y-88367380D02*
X63209523Y-88415000D01*
X63209523Y-88415000D02*
X63257142Y-88462619D01*
X64209523Y-89367380D02*
X63638095Y-89367380D01*
X63923809Y-89367380D02*
X63923809Y-88367380D01*
X63923809Y-88367380D02*
X63828571Y-88510238D01*
X63828571Y-88510238D02*
X63733333Y-88605476D01*
X63733333Y-88605476D02*
X63638095Y-88653095D01*
X65066666Y-88700714D02*
X65066666Y-89367380D01*
X64828571Y-88319761D02*
X64590476Y-89034047D01*
X64590476Y-89034047D02*
X65209523Y-89034047D01*
%TO.C,R1*%
X96558333Y-96567380D02*
X96225000Y-96091190D01*
X95986905Y-96567380D02*
X95986905Y-95567380D01*
X95986905Y-95567380D02*
X96367857Y-95567380D01*
X96367857Y-95567380D02*
X96463095Y-95615000D01*
X96463095Y-95615000D02*
X96510714Y-95662619D01*
X96510714Y-95662619D02*
X96558333Y-95757857D01*
X96558333Y-95757857D02*
X96558333Y-95900714D01*
X96558333Y-95900714D02*
X96510714Y-95995952D01*
X96510714Y-95995952D02*
X96463095Y-96043571D01*
X96463095Y-96043571D02*
X96367857Y-96091190D01*
X96367857Y-96091190D02*
X95986905Y-96091190D01*
X97510714Y-96567380D02*
X96939286Y-96567380D01*
X97225000Y-96567380D02*
X97225000Y-95567380D01*
X97225000Y-95567380D02*
X97129762Y-95710238D01*
X97129762Y-95710238D02*
X97034524Y-95805476D01*
X97034524Y-95805476D02*
X96939286Y-95853095D01*
%TO.C,U4*%
X68167380Y-93461904D02*
X68976904Y-93461904D01*
X68976904Y-93461904D02*
X69072142Y-93414285D01*
X69072142Y-93414285D02*
X69119761Y-93366666D01*
X69119761Y-93366666D02*
X69167380Y-93271428D01*
X69167380Y-93271428D02*
X69167380Y-93080952D01*
X69167380Y-93080952D02*
X69119761Y-92985714D01*
X69119761Y-92985714D02*
X69072142Y-92938095D01*
X69072142Y-92938095D02*
X68976904Y-92890476D01*
X68976904Y-92890476D02*
X68167380Y-92890476D01*
X68500714Y-91985714D02*
X69167380Y-91985714D01*
X68119761Y-92223809D02*
X68834047Y-92461904D01*
X68834047Y-92461904D02*
X68834047Y-91842857D01*
%TO.C,DS1*%
X116885714Y-100142380D02*
X116885714Y-99142380D01*
X116885714Y-99142380D02*
X117123809Y-99142380D01*
X117123809Y-99142380D02*
X117266666Y-99190000D01*
X117266666Y-99190000D02*
X117361904Y-99285238D01*
X117361904Y-99285238D02*
X117409523Y-99380476D01*
X117409523Y-99380476D02*
X117457142Y-99570952D01*
X117457142Y-99570952D02*
X117457142Y-99713809D01*
X117457142Y-99713809D02*
X117409523Y-99904285D01*
X117409523Y-99904285D02*
X117361904Y-99999523D01*
X117361904Y-99999523D02*
X117266666Y-100094761D01*
X117266666Y-100094761D02*
X117123809Y-100142380D01*
X117123809Y-100142380D02*
X116885714Y-100142380D01*
X117838095Y-100094761D02*
X117980952Y-100142380D01*
X117980952Y-100142380D02*
X118219047Y-100142380D01*
X118219047Y-100142380D02*
X118314285Y-100094761D01*
X118314285Y-100094761D02*
X118361904Y-100047142D01*
X118361904Y-100047142D02*
X118409523Y-99951904D01*
X118409523Y-99951904D02*
X118409523Y-99856666D01*
X118409523Y-99856666D02*
X118361904Y-99761428D01*
X118361904Y-99761428D02*
X118314285Y-99713809D01*
X118314285Y-99713809D02*
X118219047Y-99666190D01*
X118219047Y-99666190D02*
X118028571Y-99618571D01*
X118028571Y-99618571D02*
X117933333Y-99570952D01*
X117933333Y-99570952D02*
X117885714Y-99523333D01*
X117885714Y-99523333D02*
X117838095Y-99428095D01*
X117838095Y-99428095D02*
X117838095Y-99332857D01*
X117838095Y-99332857D02*
X117885714Y-99237619D01*
X117885714Y-99237619D02*
X117933333Y-99190000D01*
X117933333Y-99190000D02*
X118028571Y-99142380D01*
X118028571Y-99142380D02*
X118266666Y-99142380D01*
X118266666Y-99142380D02*
X118409523Y-99190000D01*
X119361904Y-100142380D02*
X118790476Y-100142380D01*
X119076190Y-100142380D02*
X119076190Y-99142380D01*
X119076190Y-99142380D02*
X118980952Y-99285238D01*
X118980952Y-99285238D02*
X118885714Y-99380476D01*
X118885714Y-99380476D02*
X118790476Y-99428095D01*
%TO.C,C7*%
X87572142Y-91866666D02*
X87619761Y-91914285D01*
X87619761Y-91914285D02*
X87667380Y-92057142D01*
X87667380Y-92057142D02*
X87667380Y-92152380D01*
X87667380Y-92152380D02*
X87619761Y-92295237D01*
X87619761Y-92295237D02*
X87524523Y-92390475D01*
X87524523Y-92390475D02*
X87429285Y-92438094D01*
X87429285Y-92438094D02*
X87238809Y-92485713D01*
X87238809Y-92485713D02*
X87095952Y-92485713D01*
X87095952Y-92485713D02*
X86905476Y-92438094D01*
X86905476Y-92438094D02*
X86810238Y-92390475D01*
X86810238Y-92390475D02*
X86715000Y-92295237D01*
X86715000Y-92295237D02*
X86667380Y-92152380D01*
X86667380Y-92152380D02*
X86667380Y-92057142D01*
X86667380Y-92057142D02*
X86715000Y-91914285D01*
X86715000Y-91914285D02*
X86762619Y-91866666D01*
X86667380Y-91533332D02*
X86667380Y-90866666D01*
X86667380Y-90866666D02*
X87667380Y-91295237D01*
%TO.C,C19*%
X130572142Y-95242857D02*
X130619761Y-95290476D01*
X130619761Y-95290476D02*
X130667380Y-95433333D01*
X130667380Y-95433333D02*
X130667380Y-95528571D01*
X130667380Y-95528571D02*
X130619761Y-95671428D01*
X130619761Y-95671428D02*
X130524523Y-95766666D01*
X130524523Y-95766666D02*
X130429285Y-95814285D01*
X130429285Y-95814285D02*
X130238809Y-95861904D01*
X130238809Y-95861904D02*
X130095952Y-95861904D01*
X130095952Y-95861904D02*
X129905476Y-95814285D01*
X129905476Y-95814285D02*
X129810238Y-95766666D01*
X129810238Y-95766666D02*
X129715000Y-95671428D01*
X129715000Y-95671428D02*
X129667380Y-95528571D01*
X129667380Y-95528571D02*
X129667380Y-95433333D01*
X129667380Y-95433333D02*
X129715000Y-95290476D01*
X129715000Y-95290476D02*
X129762619Y-95242857D01*
X130667380Y-94290476D02*
X130667380Y-94861904D01*
X130667380Y-94576190D02*
X129667380Y-94576190D01*
X129667380Y-94576190D02*
X129810238Y-94671428D01*
X129810238Y-94671428D02*
X129905476Y-94766666D01*
X129905476Y-94766666D02*
X129953095Y-94861904D01*
X130667380Y-93814285D02*
X130667380Y-93623809D01*
X130667380Y-93623809D02*
X130619761Y-93528571D01*
X130619761Y-93528571D02*
X130572142Y-93480952D01*
X130572142Y-93480952D02*
X130429285Y-93385714D01*
X130429285Y-93385714D02*
X130238809Y-93338095D01*
X130238809Y-93338095D02*
X129857857Y-93338095D01*
X129857857Y-93338095D02*
X129762619Y-93385714D01*
X129762619Y-93385714D02*
X129715000Y-93433333D01*
X129715000Y-93433333D02*
X129667380Y-93528571D01*
X129667380Y-93528571D02*
X129667380Y-93719047D01*
X129667380Y-93719047D02*
X129715000Y-93814285D01*
X129715000Y-93814285D02*
X129762619Y-93861904D01*
X129762619Y-93861904D02*
X129857857Y-93909523D01*
X129857857Y-93909523D02*
X130095952Y-93909523D01*
X130095952Y-93909523D02*
X130191190Y-93861904D01*
X130191190Y-93861904D02*
X130238809Y-93814285D01*
X130238809Y-93814285D02*
X130286428Y-93719047D01*
X130286428Y-93719047D02*
X130286428Y-93528571D01*
X130286428Y-93528571D02*
X130238809Y-93433333D01*
X130238809Y-93433333D02*
X130191190Y-93385714D01*
X130191190Y-93385714D02*
X130095952Y-93338095D01*
%TO.C,C5*%
X84033333Y-110672142D02*
X83985714Y-110719761D01*
X83985714Y-110719761D02*
X83842857Y-110767380D01*
X83842857Y-110767380D02*
X83747619Y-110767380D01*
X83747619Y-110767380D02*
X83604762Y-110719761D01*
X83604762Y-110719761D02*
X83509524Y-110624523D01*
X83509524Y-110624523D02*
X83461905Y-110529285D01*
X83461905Y-110529285D02*
X83414286Y-110338809D01*
X83414286Y-110338809D02*
X83414286Y-110195952D01*
X83414286Y-110195952D02*
X83461905Y-110005476D01*
X83461905Y-110005476D02*
X83509524Y-109910238D01*
X83509524Y-109910238D02*
X83604762Y-109815000D01*
X83604762Y-109815000D02*
X83747619Y-109767380D01*
X83747619Y-109767380D02*
X83842857Y-109767380D01*
X83842857Y-109767380D02*
X83985714Y-109815000D01*
X83985714Y-109815000D02*
X84033333Y-109862619D01*
X84938095Y-109767380D02*
X84461905Y-109767380D01*
X84461905Y-109767380D02*
X84414286Y-110243571D01*
X84414286Y-110243571D02*
X84461905Y-110195952D01*
X84461905Y-110195952D02*
X84557143Y-110148333D01*
X84557143Y-110148333D02*
X84795238Y-110148333D01*
X84795238Y-110148333D02*
X84890476Y-110195952D01*
X84890476Y-110195952D02*
X84938095Y-110243571D01*
X84938095Y-110243571D02*
X84985714Y-110338809D01*
X84985714Y-110338809D02*
X84985714Y-110576904D01*
X84985714Y-110576904D02*
X84938095Y-110672142D01*
X84938095Y-110672142D02*
X84890476Y-110719761D01*
X84890476Y-110719761D02*
X84795238Y-110767380D01*
X84795238Y-110767380D02*
X84557143Y-110767380D01*
X84557143Y-110767380D02*
X84461905Y-110719761D01*
X84461905Y-110719761D02*
X84414286Y-110672142D01*
%TO.C,Y1*%
X101991190Y-94076190D02*
X102467380Y-94076190D01*
X101467380Y-94409523D02*
X101991190Y-94076190D01*
X101991190Y-94076190D02*
X101467380Y-93742857D01*
X102467380Y-92885714D02*
X102467380Y-93457142D01*
X102467380Y-93171428D02*
X101467380Y-93171428D01*
X101467380Y-93171428D02*
X101610238Y-93266666D01*
X101610238Y-93266666D02*
X101705476Y-93361904D01*
X101705476Y-93361904D02*
X101753095Y-93457142D01*
%TO.C,R11*%
X138767380Y-90342857D02*
X138291190Y-90676190D01*
X138767380Y-90914285D02*
X137767380Y-90914285D01*
X137767380Y-90914285D02*
X137767380Y-90533333D01*
X137767380Y-90533333D02*
X137815000Y-90438095D01*
X137815000Y-90438095D02*
X137862619Y-90390476D01*
X137862619Y-90390476D02*
X137957857Y-90342857D01*
X137957857Y-90342857D02*
X138100714Y-90342857D01*
X138100714Y-90342857D02*
X138195952Y-90390476D01*
X138195952Y-90390476D02*
X138243571Y-90438095D01*
X138243571Y-90438095D02*
X138291190Y-90533333D01*
X138291190Y-90533333D02*
X138291190Y-90914285D01*
X138767380Y-89390476D02*
X138767380Y-89961904D01*
X138767380Y-89676190D02*
X137767380Y-89676190D01*
X137767380Y-89676190D02*
X137910238Y-89771428D01*
X137910238Y-89771428D02*
X138005476Y-89866666D01*
X138005476Y-89866666D02*
X138053095Y-89961904D01*
X138767380Y-88438095D02*
X138767380Y-89009523D01*
X138767380Y-88723809D02*
X137767380Y-88723809D01*
X137767380Y-88723809D02*
X137910238Y-88819047D01*
X137910238Y-88819047D02*
X138005476Y-88914285D01*
X138005476Y-88914285D02*
X138053095Y-89009523D01*
%TO.C,C8*%
X77072142Y-96966666D02*
X77119761Y-97014285D01*
X77119761Y-97014285D02*
X77167380Y-97157142D01*
X77167380Y-97157142D02*
X77167380Y-97252380D01*
X77167380Y-97252380D02*
X77119761Y-97395237D01*
X77119761Y-97395237D02*
X77024523Y-97490475D01*
X77024523Y-97490475D02*
X76929285Y-97538094D01*
X76929285Y-97538094D02*
X76738809Y-97585713D01*
X76738809Y-97585713D02*
X76595952Y-97585713D01*
X76595952Y-97585713D02*
X76405476Y-97538094D01*
X76405476Y-97538094D02*
X76310238Y-97490475D01*
X76310238Y-97490475D02*
X76215000Y-97395237D01*
X76215000Y-97395237D02*
X76167380Y-97252380D01*
X76167380Y-97252380D02*
X76167380Y-97157142D01*
X76167380Y-97157142D02*
X76215000Y-97014285D01*
X76215000Y-97014285D02*
X76262619Y-96966666D01*
X76595952Y-96395237D02*
X76548333Y-96490475D01*
X76548333Y-96490475D02*
X76500714Y-96538094D01*
X76500714Y-96538094D02*
X76405476Y-96585713D01*
X76405476Y-96585713D02*
X76357857Y-96585713D01*
X76357857Y-96585713D02*
X76262619Y-96538094D01*
X76262619Y-96538094D02*
X76215000Y-96490475D01*
X76215000Y-96490475D02*
X76167380Y-96395237D01*
X76167380Y-96395237D02*
X76167380Y-96204761D01*
X76167380Y-96204761D02*
X76215000Y-96109523D01*
X76215000Y-96109523D02*
X76262619Y-96061904D01*
X76262619Y-96061904D02*
X76357857Y-96014285D01*
X76357857Y-96014285D02*
X76405476Y-96014285D01*
X76405476Y-96014285D02*
X76500714Y-96061904D01*
X76500714Y-96061904D02*
X76548333Y-96109523D01*
X76548333Y-96109523D02*
X76595952Y-96204761D01*
X76595952Y-96204761D02*
X76595952Y-96395237D01*
X76595952Y-96395237D02*
X76643571Y-96490475D01*
X76643571Y-96490475D02*
X76691190Y-96538094D01*
X76691190Y-96538094D02*
X76786428Y-96585713D01*
X76786428Y-96585713D02*
X76976904Y-96585713D01*
X76976904Y-96585713D02*
X77072142Y-96538094D01*
X77072142Y-96538094D02*
X77119761Y-96490475D01*
X77119761Y-96490475D02*
X77167380Y-96395237D01*
X77167380Y-96395237D02*
X77167380Y-96204761D01*
X77167380Y-96204761D02*
X77119761Y-96109523D01*
X77119761Y-96109523D02*
X77072142Y-96061904D01*
X77072142Y-96061904D02*
X76976904Y-96014285D01*
X76976904Y-96014285D02*
X76786428Y-96014285D01*
X76786428Y-96014285D02*
X76691190Y-96061904D01*
X76691190Y-96061904D02*
X76643571Y-96109523D01*
X76643571Y-96109523D02*
X76595952Y-96204761D01*
%TO.C,J1*%
X65579880Y-98333333D02*
X66294166Y-98333333D01*
X66294166Y-98333333D02*
X66437023Y-98380952D01*
X66437023Y-98380952D02*
X66532261Y-98476190D01*
X66532261Y-98476190D02*
X66579880Y-98619047D01*
X66579880Y-98619047D02*
X66579880Y-98714285D01*
X66579880Y-97333333D02*
X66579880Y-97904761D01*
X66579880Y-97619047D02*
X65579880Y-97619047D01*
X65579880Y-97619047D02*
X65722738Y-97714285D01*
X65722738Y-97714285D02*
X65817976Y-97809523D01*
X65817976Y-97809523D02*
X65865595Y-97904761D01*
%TO.C,C10*%
X78794642Y-100872142D02*
X78747023Y-100919761D01*
X78747023Y-100919761D02*
X78604166Y-100967380D01*
X78604166Y-100967380D02*
X78508928Y-100967380D01*
X78508928Y-100967380D02*
X78366071Y-100919761D01*
X78366071Y-100919761D02*
X78270833Y-100824523D01*
X78270833Y-100824523D02*
X78223214Y-100729285D01*
X78223214Y-100729285D02*
X78175595Y-100538809D01*
X78175595Y-100538809D02*
X78175595Y-100395952D01*
X78175595Y-100395952D02*
X78223214Y-100205476D01*
X78223214Y-100205476D02*
X78270833Y-100110238D01*
X78270833Y-100110238D02*
X78366071Y-100015000D01*
X78366071Y-100015000D02*
X78508928Y-99967380D01*
X78508928Y-99967380D02*
X78604166Y-99967380D01*
X78604166Y-99967380D02*
X78747023Y-100015000D01*
X78747023Y-100015000D02*
X78794642Y-100062619D01*
X79747023Y-100967380D02*
X79175595Y-100967380D01*
X79461309Y-100967380D02*
X79461309Y-99967380D01*
X79461309Y-99967380D02*
X79366071Y-100110238D01*
X79366071Y-100110238D02*
X79270833Y-100205476D01*
X79270833Y-100205476D02*
X79175595Y-100253095D01*
X80366071Y-99967380D02*
X80461309Y-99967380D01*
X80461309Y-99967380D02*
X80556547Y-100015000D01*
X80556547Y-100015000D02*
X80604166Y-100062619D01*
X80604166Y-100062619D02*
X80651785Y-100157857D01*
X80651785Y-100157857D02*
X80699404Y-100348333D01*
X80699404Y-100348333D02*
X80699404Y-100586428D01*
X80699404Y-100586428D02*
X80651785Y-100776904D01*
X80651785Y-100776904D02*
X80604166Y-100872142D01*
X80604166Y-100872142D02*
X80556547Y-100919761D01*
X80556547Y-100919761D02*
X80461309Y-100967380D01*
X80461309Y-100967380D02*
X80366071Y-100967380D01*
X80366071Y-100967380D02*
X80270833Y-100919761D01*
X80270833Y-100919761D02*
X80223214Y-100872142D01*
X80223214Y-100872142D02*
X80175595Y-100776904D01*
X80175595Y-100776904D02*
X80127976Y-100586428D01*
X80127976Y-100586428D02*
X80127976Y-100348333D01*
X80127976Y-100348333D02*
X80175595Y-100157857D01*
X80175595Y-100157857D02*
X80223214Y-100062619D01*
X80223214Y-100062619D02*
X80270833Y-100015000D01*
X80270833Y-100015000D02*
X80366071Y-99967380D01*
%TO.C,C12*%
X104757142Y-91072142D02*
X104709523Y-91119761D01*
X104709523Y-91119761D02*
X104566666Y-91167380D01*
X104566666Y-91167380D02*
X104471428Y-91167380D01*
X104471428Y-91167380D02*
X104328571Y-91119761D01*
X104328571Y-91119761D02*
X104233333Y-91024523D01*
X104233333Y-91024523D02*
X104185714Y-90929285D01*
X104185714Y-90929285D02*
X104138095Y-90738809D01*
X104138095Y-90738809D02*
X104138095Y-90595952D01*
X104138095Y-90595952D02*
X104185714Y-90405476D01*
X104185714Y-90405476D02*
X104233333Y-90310238D01*
X104233333Y-90310238D02*
X104328571Y-90215000D01*
X104328571Y-90215000D02*
X104471428Y-90167380D01*
X104471428Y-90167380D02*
X104566666Y-90167380D01*
X104566666Y-90167380D02*
X104709523Y-90215000D01*
X104709523Y-90215000D02*
X104757142Y-90262619D01*
X105709523Y-91167380D02*
X105138095Y-91167380D01*
X105423809Y-91167380D02*
X105423809Y-90167380D01*
X105423809Y-90167380D02*
X105328571Y-90310238D01*
X105328571Y-90310238D02*
X105233333Y-90405476D01*
X105233333Y-90405476D02*
X105138095Y-90453095D01*
X106090476Y-90262619D02*
X106138095Y-90215000D01*
X106138095Y-90215000D02*
X106233333Y-90167380D01*
X106233333Y-90167380D02*
X106471428Y-90167380D01*
X106471428Y-90167380D02*
X106566666Y-90215000D01*
X106566666Y-90215000D02*
X106614285Y-90262619D01*
X106614285Y-90262619D02*
X106661904Y-90357857D01*
X106661904Y-90357857D02*
X106661904Y-90453095D01*
X106661904Y-90453095D02*
X106614285Y-90595952D01*
X106614285Y-90595952D02*
X106042857Y-91167380D01*
X106042857Y-91167380D02*
X106661904Y-91167380D01*
%TO.C,R3*%
X79833333Y-95867380D02*
X79500000Y-95391190D01*
X79261905Y-95867380D02*
X79261905Y-94867380D01*
X79261905Y-94867380D02*
X79642857Y-94867380D01*
X79642857Y-94867380D02*
X79738095Y-94915000D01*
X79738095Y-94915000D02*
X79785714Y-94962619D01*
X79785714Y-94962619D02*
X79833333Y-95057857D01*
X79833333Y-95057857D02*
X79833333Y-95200714D01*
X79833333Y-95200714D02*
X79785714Y-95295952D01*
X79785714Y-95295952D02*
X79738095Y-95343571D01*
X79738095Y-95343571D02*
X79642857Y-95391190D01*
X79642857Y-95391190D02*
X79261905Y-95391190D01*
X80166667Y-94867380D02*
X80785714Y-94867380D01*
X80785714Y-94867380D02*
X80452381Y-95248333D01*
X80452381Y-95248333D02*
X80595238Y-95248333D01*
X80595238Y-95248333D02*
X80690476Y-95295952D01*
X80690476Y-95295952D02*
X80738095Y-95343571D01*
X80738095Y-95343571D02*
X80785714Y-95438809D01*
X80785714Y-95438809D02*
X80785714Y-95676904D01*
X80785714Y-95676904D02*
X80738095Y-95772142D01*
X80738095Y-95772142D02*
X80690476Y-95819761D01*
X80690476Y-95819761D02*
X80595238Y-95867380D01*
X80595238Y-95867380D02*
X80309524Y-95867380D01*
X80309524Y-95867380D02*
X80214286Y-95819761D01*
X80214286Y-95819761D02*
X80166667Y-95772142D01*
%TO.C,C2*%
X92903402Y-92666666D02*
X92951021Y-92714285D01*
X92951021Y-92714285D02*
X92998640Y-92857142D01*
X92998640Y-92857142D02*
X92998640Y-92952380D01*
X92998640Y-92952380D02*
X92951021Y-93095237D01*
X92951021Y-93095237D02*
X92855783Y-93190475D01*
X92855783Y-93190475D02*
X92760545Y-93238094D01*
X92760545Y-93238094D02*
X92570069Y-93285713D01*
X92570069Y-93285713D02*
X92427212Y-93285713D01*
X92427212Y-93285713D02*
X92236736Y-93238094D01*
X92236736Y-93238094D02*
X92141498Y-93190475D01*
X92141498Y-93190475D02*
X92046260Y-93095237D01*
X92046260Y-93095237D02*
X91998640Y-92952380D01*
X91998640Y-92952380D02*
X91998640Y-92857142D01*
X91998640Y-92857142D02*
X92046260Y-92714285D01*
X92046260Y-92714285D02*
X92093879Y-92666666D01*
X92093879Y-92285713D02*
X92046260Y-92238094D01*
X92046260Y-92238094D02*
X91998640Y-92142856D01*
X91998640Y-92142856D02*
X91998640Y-91904761D01*
X91998640Y-91904761D02*
X92046260Y-91809523D01*
X92046260Y-91809523D02*
X92093879Y-91761904D01*
X92093879Y-91761904D02*
X92189117Y-91714285D01*
X92189117Y-91714285D02*
X92284355Y-91714285D01*
X92284355Y-91714285D02*
X92427212Y-91761904D01*
X92427212Y-91761904D02*
X92998640Y-92333332D01*
X92998640Y-92333332D02*
X92998640Y-91714285D01*
%TO.C,U1*%
X80428095Y-107667380D02*
X80428095Y-108476904D01*
X80428095Y-108476904D02*
X80475714Y-108572142D01*
X80475714Y-108572142D02*
X80523333Y-108619761D01*
X80523333Y-108619761D02*
X80618571Y-108667380D01*
X80618571Y-108667380D02*
X80809047Y-108667380D01*
X80809047Y-108667380D02*
X80904285Y-108619761D01*
X80904285Y-108619761D02*
X80951904Y-108572142D01*
X80951904Y-108572142D02*
X80999523Y-108476904D01*
X80999523Y-108476904D02*
X80999523Y-107667380D01*
X81999523Y-108667380D02*
X81428095Y-108667380D01*
X81713809Y-108667380D02*
X81713809Y-107667380D01*
X81713809Y-107667380D02*
X81618571Y-107810238D01*
X81618571Y-107810238D02*
X81523333Y-107905476D01*
X81523333Y-107905476D02*
X81428095Y-107953095D01*
%TO.C,C22*%
X72372142Y-100142857D02*
X72419761Y-100190476D01*
X72419761Y-100190476D02*
X72467380Y-100333333D01*
X72467380Y-100333333D02*
X72467380Y-100428571D01*
X72467380Y-100428571D02*
X72419761Y-100571428D01*
X72419761Y-100571428D02*
X72324523Y-100666666D01*
X72324523Y-100666666D02*
X72229285Y-100714285D01*
X72229285Y-100714285D02*
X72038809Y-100761904D01*
X72038809Y-100761904D02*
X71895952Y-100761904D01*
X71895952Y-100761904D02*
X71705476Y-100714285D01*
X71705476Y-100714285D02*
X71610238Y-100666666D01*
X71610238Y-100666666D02*
X71515000Y-100571428D01*
X71515000Y-100571428D02*
X71467380Y-100428571D01*
X71467380Y-100428571D02*
X71467380Y-100333333D01*
X71467380Y-100333333D02*
X71515000Y-100190476D01*
X71515000Y-100190476D02*
X71562619Y-100142857D01*
X71562619Y-99761904D02*
X71515000Y-99714285D01*
X71515000Y-99714285D02*
X71467380Y-99619047D01*
X71467380Y-99619047D02*
X71467380Y-99380952D01*
X71467380Y-99380952D02*
X71515000Y-99285714D01*
X71515000Y-99285714D02*
X71562619Y-99238095D01*
X71562619Y-99238095D02*
X71657857Y-99190476D01*
X71657857Y-99190476D02*
X71753095Y-99190476D01*
X71753095Y-99190476D02*
X71895952Y-99238095D01*
X71895952Y-99238095D02*
X72467380Y-99809523D01*
X72467380Y-99809523D02*
X72467380Y-99190476D01*
X71562619Y-98809523D02*
X71515000Y-98761904D01*
X71515000Y-98761904D02*
X71467380Y-98666666D01*
X71467380Y-98666666D02*
X71467380Y-98428571D01*
X71467380Y-98428571D02*
X71515000Y-98333333D01*
X71515000Y-98333333D02*
X71562619Y-98285714D01*
X71562619Y-98285714D02*
X71657857Y-98238095D01*
X71657857Y-98238095D02*
X71753095Y-98238095D01*
X71753095Y-98238095D02*
X71895952Y-98285714D01*
X71895952Y-98285714D02*
X72467380Y-98857142D01*
X72467380Y-98857142D02*
X72467380Y-98238095D01*
%TO.C,C4*%
X97933333Y-113872142D02*
X97885714Y-113919761D01*
X97885714Y-113919761D02*
X97742857Y-113967380D01*
X97742857Y-113967380D02*
X97647619Y-113967380D01*
X97647619Y-113967380D02*
X97504762Y-113919761D01*
X97504762Y-113919761D02*
X97409524Y-113824523D01*
X97409524Y-113824523D02*
X97361905Y-113729285D01*
X97361905Y-113729285D02*
X97314286Y-113538809D01*
X97314286Y-113538809D02*
X97314286Y-113395952D01*
X97314286Y-113395952D02*
X97361905Y-113205476D01*
X97361905Y-113205476D02*
X97409524Y-113110238D01*
X97409524Y-113110238D02*
X97504762Y-113015000D01*
X97504762Y-113015000D02*
X97647619Y-112967380D01*
X97647619Y-112967380D02*
X97742857Y-112967380D01*
X97742857Y-112967380D02*
X97885714Y-113015000D01*
X97885714Y-113015000D02*
X97933333Y-113062619D01*
X98790476Y-113300714D02*
X98790476Y-113967380D01*
X98552381Y-112919761D02*
X98314286Y-113634047D01*
X98314286Y-113634047D02*
X98933333Y-113634047D01*
%TO.C,C21*%
X78357142Y-92072142D02*
X78309523Y-92119761D01*
X78309523Y-92119761D02*
X78166666Y-92167380D01*
X78166666Y-92167380D02*
X78071428Y-92167380D01*
X78071428Y-92167380D02*
X77928571Y-92119761D01*
X77928571Y-92119761D02*
X77833333Y-92024523D01*
X77833333Y-92024523D02*
X77785714Y-91929285D01*
X77785714Y-91929285D02*
X77738095Y-91738809D01*
X77738095Y-91738809D02*
X77738095Y-91595952D01*
X77738095Y-91595952D02*
X77785714Y-91405476D01*
X77785714Y-91405476D02*
X77833333Y-91310238D01*
X77833333Y-91310238D02*
X77928571Y-91215000D01*
X77928571Y-91215000D02*
X78071428Y-91167380D01*
X78071428Y-91167380D02*
X78166666Y-91167380D01*
X78166666Y-91167380D02*
X78309523Y-91215000D01*
X78309523Y-91215000D02*
X78357142Y-91262619D01*
X78738095Y-91262619D02*
X78785714Y-91215000D01*
X78785714Y-91215000D02*
X78880952Y-91167380D01*
X78880952Y-91167380D02*
X79119047Y-91167380D01*
X79119047Y-91167380D02*
X79214285Y-91215000D01*
X79214285Y-91215000D02*
X79261904Y-91262619D01*
X79261904Y-91262619D02*
X79309523Y-91357857D01*
X79309523Y-91357857D02*
X79309523Y-91453095D01*
X79309523Y-91453095D02*
X79261904Y-91595952D01*
X79261904Y-91595952D02*
X78690476Y-92167380D01*
X78690476Y-92167380D02*
X79309523Y-92167380D01*
X80261904Y-92167380D02*
X79690476Y-92167380D01*
X79976190Y-92167380D02*
X79976190Y-91167380D01*
X79976190Y-91167380D02*
X79880952Y-91310238D01*
X79880952Y-91310238D02*
X79785714Y-91405476D01*
X79785714Y-91405476D02*
X79690476Y-91453095D01*
%TO.C,C15*%
X63457142Y-86972142D02*
X63409523Y-87019761D01*
X63409523Y-87019761D02*
X63266666Y-87067380D01*
X63266666Y-87067380D02*
X63171428Y-87067380D01*
X63171428Y-87067380D02*
X63028571Y-87019761D01*
X63028571Y-87019761D02*
X62933333Y-86924523D01*
X62933333Y-86924523D02*
X62885714Y-86829285D01*
X62885714Y-86829285D02*
X62838095Y-86638809D01*
X62838095Y-86638809D02*
X62838095Y-86495952D01*
X62838095Y-86495952D02*
X62885714Y-86305476D01*
X62885714Y-86305476D02*
X62933333Y-86210238D01*
X62933333Y-86210238D02*
X63028571Y-86115000D01*
X63028571Y-86115000D02*
X63171428Y-86067380D01*
X63171428Y-86067380D02*
X63266666Y-86067380D01*
X63266666Y-86067380D02*
X63409523Y-86115000D01*
X63409523Y-86115000D02*
X63457142Y-86162619D01*
X64409523Y-87067380D02*
X63838095Y-87067380D01*
X64123809Y-87067380D02*
X64123809Y-86067380D01*
X64123809Y-86067380D02*
X64028571Y-86210238D01*
X64028571Y-86210238D02*
X63933333Y-86305476D01*
X63933333Y-86305476D02*
X63838095Y-86353095D01*
X65314285Y-86067380D02*
X64838095Y-86067380D01*
X64838095Y-86067380D02*
X64790476Y-86543571D01*
X64790476Y-86543571D02*
X64838095Y-86495952D01*
X64838095Y-86495952D02*
X64933333Y-86448333D01*
X64933333Y-86448333D02*
X65171428Y-86448333D01*
X65171428Y-86448333D02*
X65266666Y-86495952D01*
X65266666Y-86495952D02*
X65314285Y-86543571D01*
X65314285Y-86543571D02*
X65361904Y-86638809D01*
X65361904Y-86638809D02*
X65361904Y-86876904D01*
X65361904Y-86876904D02*
X65314285Y-86972142D01*
X65314285Y-86972142D02*
X65266666Y-87019761D01*
X65266666Y-87019761D02*
X65171428Y-87067380D01*
X65171428Y-87067380D02*
X64933333Y-87067380D01*
X64933333Y-87067380D02*
X64838095Y-87019761D01*
X64838095Y-87019761D02*
X64790476Y-86972142D01*
%TO.C,C13*%
X96672142Y-90842857D02*
X96719761Y-90890476D01*
X96719761Y-90890476D02*
X96767380Y-91033333D01*
X96767380Y-91033333D02*
X96767380Y-91128571D01*
X96767380Y-91128571D02*
X96719761Y-91271428D01*
X96719761Y-91271428D02*
X96624523Y-91366666D01*
X96624523Y-91366666D02*
X96529285Y-91414285D01*
X96529285Y-91414285D02*
X96338809Y-91461904D01*
X96338809Y-91461904D02*
X96195952Y-91461904D01*
X96195952Y-91461904D02*
X96005476Y-91414285D01*
X96005476Y-91414285D02*
X95910238Y-91366666D01*
X95910238Y-91366666D02*
X95815000Y-91271428D01*
X95815000Y-91271428D02*
X95767380Y-91128571D01*
X95767380Y-91128571D02*
X95767380Y-91033333D01*
X95767380Y-91033333D02*
X95815000Y-90890476D01*
X95815000Y-90890476D02*
X95862619Y-90842857D01*
X96767380Y-89890476D02*
X96767380Y-90461904D01*
X96767380Y-90176190D02*
X95767380Y-90176190D01*
X95767380Y-90176190D02*
X95910238Y-90271428D01*
X95910238Y-90271428D02*
X96005476Y-90366666D01*
X96005476Y-90366666D02*
X96053095Y-90461904D01*
X95767380Y-89557142D02*
X95767380Y-88938095D01*
X95767380Y-88938095D02*
X96148333Y-89271428D01*
X96148333Y-89271428D02*
X96148333Y-89128571D01*
X96148333Y-89128571D02*
X96195952Y-89033333D01*
X96195952Y-89033333D02*
X96243571Y-88985714D01*
X96243571Y-88985714D02*
X96338809Y-88938095D01*
X96338809Y-88938095D02*
X96576904Y-88938095D01*
X96576904Y-88938095D02*
X96672142Y-88985714D01*
X96672142Y-88985714D02*
X96719761Y-89033333D01*
X96719761Y-89033333D02*
X96767380Y-89128571D01*
X96767380Y-89128571D02*
X96767380Y-89414285D01*
X96767380Y-89414285D02*
X96719761Y-89509523D01*
X96719761Y-89509523D02*
X96672142Y-89557142D01*
D14*
%TO.C,C3*%
X98146267Y-109210000D02*
X97853733Y-109210000D01*
X98146267Y-108190000D02*
X97853733Y-108190000D01*
%TO.C,SW3*%
X146460000Y-96540000D02*
X146460000Y-109000000D01*
X143540000Y-107215000D02*
X143540000Y-105945000D01*
X143540000Y-105945000D02*
X139480000Y-105945000D01*
X143540000Y-104675000D02*
X143540000Y-103405000D01*
X143540000Y-103405000D02*
X139480000Y-103405000D01*
X143540000Y-102135000D02*
X143540000Y-100865000D01*
X143540000Y-100865000D02*
X139480000Y-100865000D01*
X143540000Y-99595000D02*
X143540000Y-98325000D01*
X143540000Y-98325000D02*
X139480000Y-98325000D01*
X140833333Y-105945000D02*
X140833333Y-107215000D01*
X140833333Y-103405000D02*
X140833333Y-104675000D01*
X140833333Y-100865000D02*
X140833333Y-102135000D01*
X140833333Y-98325000D02*
X140833333Y-99595000D01*
X139480000Y-107215000D02*
X143540000Y-107215000D01*
X139480000Y-107145000D02*
X140833333Y-107145000D01*
X139480000Y-107025000D02*
X140833333Y-107025000D01*
X139480000Y-106905000D02*
X140833333Y-106905000D01*
X139480000Y-106785000D02*
X140833333Y-106785000D01*
X139480000Y-106665000D02*
X140833333Y-106665000D01*
X139480000Y-106545000D02*
X140833333Y-106545000D01*
X139480000Y-106425000D02*
X140833333Y-106425000D01*
X139480000Y-106305000D02*
X140833333Y-106305000D01*
X139480000Y-106185000D02*
X140833333Y-106185000D01*
X139480000Y-106065000D02*
X140833333Y-106065000D01*
X139480000Y-105945000D02*
X139480000Y-107215000D01*
X139480000Y-104675000D02*
X143540000Y-104675000D01*
X139480000Y-104605000D02*
X140833333Y-104605000D01*
X139480000Y-104485000D02*
X140833333Y-104485000D01*
X139480000Y-104365000D02*
X140833333Y-104365000D01*
X139480000Y-104245000D02*
X140833333Y-104245000D01*
X139480000Y-104125000D02*
X140833333Y-104125000D01*
X139480000Y-104005000D02*
X140833333Y-104005000D01*
X139480000Y-103885000D02*
X140833333Y-103885000D01*
X139480000Y-103765000D02*
X140833333Y-103765000D01*
X139480000Y-103645000D02*
X140833333Y-103645000D01*
X139480000Y-103525000D02*
X140833333Y-103525000D01*
X139480000Y-103405000D02*
X139480000Y-104675000D01*
X139480000Y-102135000D02*
X143540000Y-102135000D01*
X139480000Y-102065000D02*
X140833333Y-102065000D01*
X139480000Y-101945000D02*
X140833333Y-101945000D01*
X139480000Y-101825000D02*
X140833333Y-101825000D01*
X139480000Y-101705000D02*
X140833333Y-101705000D01*
X139480000Y-101585000D02*
X140833333Y-101585000D01*
X139480000Y-101465000D02*
X140833333Y-101465000D01*
X139480000Y-101345000D02*
X140833333Y-101345000D01*
X139480000Y-101225000D02*
X140833333Y-101225000D01*
X139480000Y-101105000D02*
X140833333Y-101105000D01*
X139480000Y-100985000D02*
X140833333Y-100985000D01*
X139480000Y-100865000D02*
X139480000Y-102135000D01*
X139480000Y-99595000D02*
X143540000Y-99595000D01*
X139480000Y-99525000D02*
X140833333Y-99525000D01*
X139480000Y-99405000D02*
X140833333Y-99405000D01*
X139480000Y-99285000D02*
X140833333Y-99285000D01*
X139480000Y-99165000D02*
X140833333Y-99165000D01*
X139480000Y-99045000D02*
X140833333Y-99045000D01*
X139480000Y-98925000D02*
X140833333Y-98925000D01*
X139480000Y-98805000D02*
X140833333Y-98805000D01*
X139480000Y-98685000D02*
X140833333Y-98685000D01*
X139480000Y-98565000D02*
X140833333Y-98565000D01*
X139480000Y-98445000D02*
X140833333Y-98445000D01*
X139480000Y-98325000D02*
X139480000Y-99595000D01*
X136560000Y-109000000D02*
X146460000Y-109000000D01*
X136560000Y-96540000D02*
X146460000Y-96540000D01*
X136560000Y-96540000D02*
X136560000Y-109000000D01*
X136320000Y-96300000D02*
X137704000Y-96300000D01*
X136320000Y-96300000D02*
X136320000Y-97683000D01*
%TO.C,R2*%
X83054724Y-97622500D02*
X82545276Y-97622500D01*
X83054724Y-96577500D02*
X82545276Y-96577500D01*
%TO.C,SW1*%
X120030000Y-85130000D02*
X120030000Y-85530000D01*
X120030000Y-85130000D02*
X124770000Y-85130000D01*
X120030000Y-88530000D02*
X120030000Y-86470000D01*
X120030000Y-89870000D02*
X120030000Y-89470000D01*
X120030000Y-89870000D02*
X124770000Y-89870000D01*
X124770000Y-85130000D02*
X124770000Y-85530000D01*
X124770000Y-88530000D02*
X124770000Y-86470000D01*
X124770000Y-89870000D02*
X124770000Y-89470000D01*
%TO.C,R6*%
X106277500Y-88342224D02*
X106277500Y-87832776D01*
X107322500Y-88342224D02*
X107322500Y-87832776D01*
%TO.C,C16*%
X128090000Y-97946267D02*
X128090000Y-97653733D01*
X129110000Y-97946267D02*
X129110000Y-97653733D01*
%TO.C,C17*%
X126490000Y-97946267D02*
X126490000Y-97653733D01*
X127510000Y-97946267D02*
X127510000Y-97653733D01*
%TO.C,SW2*%
X110130000Y-85130000D02*
X110130000Y-85530000D01*
X110130000Y-85130000D02*
X114870000Y-85130000D01*
X110130000Y-88530000D02*
X110130000Y-86470000D01*
X110130000Y-89870000D02*
X110130000Y-89470000D01*
X110130000Y-89870000D02*
X114870000Y-89870000D01*
X114870000Y-85130000D02*
X114870000Y-85530000D01*
X114870000Y-88530000D02*
X114870000Y-86470000D01*
X114870000Y-89870000D02*
X114870000Y-89470000D01*
%TO.C,R7*%
X114754724Y-96922500D02*
X114245276Y-96922500D01*
X114754724Y-95877500D02*
X114245276Y-95877500D01*
%TO.C,C1*%
X88521260Y-99146267D02*
X88521260Y-98853733D01*
X89541260Y-99146267D02*
X89541260Y-98853733D01*
%TO.C,C6*%
X82983767Y-99310000D02*
X82691233Y-99310000D01*
X82983767Y-98290000D02*
X82691233Y-98290000D01*
%TO.C,C11*%
X85090000Y-94746267D02*
X85090000Y-94453733D01*
X86110000Y-94746267D02*
X86110000Y-94453733D01*
%TO.C,U3*%
X69850000Y-83290000D02*
X75860000Y-83290000D01*
X72100000Y-90110000D02*
X75860000Y-90110000D01*
X75860000Y-83290000D02*
X75860000Y-84550000D01*
X75860000Y-90110000D02*
X75860000Y-88850000D01*
%TO.C,R5*%
X124832776Y-83377500D02*
X125342224Y-83377500D01*
X124832776Y-84422500D02*
X125342224Y-84422500D01*
%TO.C,C18*%
X124840000Y-97946267D02*
X124840000Y-97653733D01*
X125860000Y-97946267D02*
X125860000Y-97653733D01*
%TO.C,J3*%
X109155000Y-92495000D02*
X104015000Y-92495000D01*
X109155000Y-92495000D02*
X109155000Y-95155000D01*
X104015000Y-92495000D02*
X104015000Y-95155000D01*
X111755000Y-93825000D02*
X111755000Y-95155000D01*
X111755000Y-95155000D02*
X110425000Y-95155000D01*
X109155000Y-95155000D02*
X104015000Y-95155000D01*
%TO.C,U2*%
X95241260Y-108710000D02*
X94591260Y-108710000D01*
X88021260Y-108060000D02*
X88021260Y-108710000D01*
X95241260Y-108060000D02*
X95241260Y-108710000D01*
X88021260Y-102140000D02*
X88021260Y-101490000D01*
X95241260Y-102140000D02*
X95241260Y-101490000D01*
X88021260Y-101490000D02*
X88671260Y-101490000D01*
X95241260Y-101490000D02*
X94591260Y-101490000D01*
%TO.C,C9*%
X99553733Y-101090000D02*
X99846267Y-101090000D01*
X99553733Y-102110000D02*
X99846267Y-102110000D01*
%TO.C,R4*%
X117632776Y-83377500D02*
X118142224Y-83377500D01*
X117632776Y-84422500D02*
X118142224Y-84422500D01*
%TO.C,R9*%
X141277500Y-93154724D02*
X141277500Y-92645276D01*
X142322500Y-93154724D02*
X142322500Y-92645276D01*
%TO.C,R10*%
X139577500Y-93154724D02*
X139577500Y-92645276D01*
X140622500Y-93154724D02*
X140622500Y-92645276D01*
%TO.C,C20*%
X70972500Y-96153733D02*
X70972500Y-96446267D01*
X69952500Y-96153733D02*
X69952500Y-96446267D01*
%TO.C,R8*%
X142977500Y-93154724D02*
X142977500Y-92645276D01*
X144022500Y-93154724D02*
X144022500Y-92645276D01*
%TO.C,C14*%
X67646267Y-89510000D02*
X67353733Y-89510000D01*
X67646267Y-88490000D02*
X67353733Y-88490000D01*
%TO.C,R1*%
X99182776Y-95677500D02*
X99692224Y-95677500D01*
X99182776Y-96722500D02*
X99692224Y-96722500D01*
%TO.C,U4*%
X71600000Y-91140000D02*
X69800000Y-91140000D01*
X71600000Y-91140000D02*
X72400000Y-91140000D01*
X71600000Y-94260000D02*
X70800000Y-94260000D01*
X71600000Y-94260000D02*
X72400000Y-94260000D01*
%TO.C,DS1*%
X133410000Y-107235000D02*
X102790000Y-107235000D01*
X133410000Y-106115000D02*
X133410000Y-107235000D01*
X132810000Y-106115000D02*
X133410000Y-106115000D01*
X132810000Y-106115000D02*
X132810000Y-106035000D01*
X132810000Y-102115000D02*
X132810000Y-103115000D01*
X132810000Y-102115000D02*
X130760000Y-102115000D01*
X105440000Y-102115000D02*
X105440000Y-101335000D01*
X105440000Y-102115000D02*
X103390000Y-102115000D01*
X103390000Y-106115000D02*
X103390000Y-106035000D01*
X103390000Y-102115000D02*
X103390000Y-103115000D01*
X102790000Y-106115000D02*
X103390000Y-106115000D01*
X102790000Y-106115000D02*
X102790000Y-107235000D01*
%TO.C,C7*%
X86790000Y-94746267D02*
X86790000Y-94453733D01*
X87810000Y-94746267D02*
X87810000Y-94453733D01*
%TO.C,C19*%
X129690000Y-97946267D02*
X129690000Y-97653733D01*
X130710000Y-97946267D02*
X130710000Y-97653733D01*
%TO.C,C5*%
X87346267Y-110910000D02*
X87053733Y-110910000D01*
X87346267Y-109890000D02*
X87053733Y-109890000D01*
%TO.C,Y1*%
X97750000Y-92200000D02*
X97750000Y-95000000D01*
X97750000Y-95000000D02*
X101050000Y-95000000D01*
%TO.C,R11*%
X137887500Y-93154724D02*
X137887500Y-92645276D01*
X138932500Y-93154724D02*
X138932500Y-92645276D01*
%TO.C,C8*%
X76290000Y-99846267D02*
X76290000Y-99553733D01*
X77310000Y-99846267D02*
X77310000Y-99553733D01*
%TO.C,J1*%
X64862500Y-94100000D02*
X64862500Y-94550000D01*
X63012500Y-94100000D02*
X64862500Y-94100000D01*
X60462500Y-94100000D02*
X60712500Y-94100000D01*
X65412500Y-96300000D02*
X64962500Y-96300000D01*
X65412500Y-96300000D02*
X65412500Y-96750000D01*
X64862500Y-101900000D02*
X64862500Y-101450000D01*
X63012500Y-101900000D02*
X64862500Y-101900000D01*
X60462500Y-101900000D02*
X60712500Y-101900000D01*
%TO.C,C10*%
X82983767Y-101110000D02*
X82691233Y-101110000D01*
X82983767Y-100090000D02*
X82691233Y-100090000D01*
%TO.C,C12*%
X101853733Y-90290000D02*
X102146267Y-90290000D01*
X101853733Y-91310000D02*
X102146267Y-91310000D01*
%TO.C,R3*%
X83054724Y-96022500D02*
X82545276Y-96022500D01*
X83054724Y-94977500D02*
X82545276Y-94977500D01*
%TO.C,C2*%
X92121260Y-95346267D02*
X92121260Y-95053733D01*
X93141260Y-95346267D02*
X93141260Y-95053733D01*
%TO.C,U1*%
X78190000Y-107205000D02*
X84190000Y-107205000D01*
X81190000Y-101985000D02*
X84190000Y-101985000D01*
%TO.C,C22*%
X72610000Y-96153733D02*
X72610000Y-96446267D01*
X71590000Y-96153733D02*
X71590000Y-96446267D01*
%TO.C,C4*%
X95153733Y-113090000D02*
X95446267Y-113090000D01*
X95153733Y-114110000D02*
X95446267Y-114110000D01*
%TO.C,C21*%
X75553733Y-91240000D02*
X75846267Y-91240000D01*
X75553733Y-92260000D02*
X75846267Y-92260000D01*
%TO.C,C15*%
X67646267Y-87210000D02*
X67353733Y-87210000D01*
X67646267Y-86190000D02*
X67353733Y-86190000D01*
%TO.C,C13*%
X95890000Y-93583767D02*
X95890000Y-93291233D01*
X96910000Y-93583767D02*
X96910000Y-93291233D01*
%TD*%
M02*
