%TF.GenerationSoftware,KiCad,Pcbnew,(7.0.0)*%
%TF.CreationDate,2023-06-08T20:43:27-04:00*%
%TF.ProjectId,tft controller new,74667420-636f-46e7-9472-6f6c6c657220,rev?*%
%TF.SameCoordinates,Original*%
%TF.FileFunction,Soldermask,Top*%
%TF.FilePolarity,Negative*%
%FSLAX46Y46*%
G04 Gerber Fmt 4.6, Leading zero omitted, Abs format (unit mm)*
G04 Created by KiCad (PCBNEW (7.0.0)) date 2023-06-08 20:43:27*
%MOMM*%
%LPD*%
G01*
G04 APERTURE LIST*
G04 Aperture macros list*
%AMRoundRect*
0 Rectangle with rounded corners*
0 $1 Rounding radius*
0 $2 $3 $4 $5 $6 $7 $8 $9 X,Y pos of 4 corners*
0 Add a 4 corners polygon primitive as box body*
4,1,4,$2,$3,$4,$5,$6,$7,$8,$9,$2,$3,0*
0 Add four circle primitives for the rounded corners*
1,1,$1+$1,$2,$3*
1,1,$1+$1,$4,$5*
1,1,$1+$1,$6,$7*
1,1,$1+$1,$8,$9*
0 Add four rect primitives between the rounded corners*
20,1,$1+$1,$2,$3,$4,$5,0*
20,1,$1+$1,$4,$5,$6,$7,0*
20,1,$1+$1,$6,$7,$8,$9,0*
20,1,$1+$1,$8,$9,$2,$3,0*%
G04 Aperture macros list end*
%ADD10RoundRect,0.237500X0.300000X0.237500X-0.300000X0.237500X-0.300000X-0.237500X0.300000X-0.237500X0*%
%ADD11O,1.600000X1.600000*%
%ADD12R,1.600000X1.600000*%
%ADD13RoundRect,0.237500X0.250000X0.237500X-0.250000X0.237500X-0.250000X-0.237500X0.250000X-0.237500X0*%
%ADD14R,1.600000X1.400000*%
%ADD15RoundRect,0.237500X0.237500X-0.250000X0.237500X0.250000X-0.237500X0.250000X-0.237500X-0.250000X0*%
%ADD16RoundRect,0.237500X0.237500X-0.300000X0.237500X0.300000X-0.237500X0.300000X-0.237500X-0.300000X0*%
%ADD17R,2.000000X1.500000*%
%ADD18R,2.000000X3.800000*%
%ADD19RoundRect,0.237500X-0.250000X-0.237500X0.250000X-0.237500X0.250000X0.237500X-0.250000X0.237500X0*%
%ADD20R,1.700000X1.700000*%
%ADD21O,1.700000X1.700000*%
%ADD22RoundRect,0.050000X0.050000X-0.387500X0.050000X0.387500X-0.050000X0.387500X-0.050000X-0.387500X0*%
%ADD23RoundRect,0.050000X0.387500X-0.050000X0.387500X0.050000X-0.387500X0.050000X-0.387500X-0.050000X0*%
%ADD24R,3.200000X3.200000*%
%ADD25RoundRect,0.237500X-0.300000X-0.237500X0.300000X-0.237500X0.300000X0.237500X-0.300000X0.237500X0*%
%ADD26RoundRect,0.237500X-0.237500X0.300000X-0.237500X-0.300000X0.237500X-0.300000X0.237500X0.300000X0*%
%ADD27RoundRect,0.150000X-0.512500X-0.150000X0.512500X-0.150000X0.512500X0.150000X-0.512500X0.150000X0*%
%ADD28R,2.400000X1.600000*%
%ADD29R,1.600000X2.400000*%
%ADD30R,0.300000X1.200000*%
%ADD31R,1.150000X1.000000*%
%ADD32R,1.350000X0.400000*%
%ADD33O,1.900000X1.200000*%
%ADD34R,1.900000X1.200000*%
%ADD35C,1.450000*%
%ADD36R,1.900000X1.500000*%
%ADD37RoundRect,0.125000X-0.262500X-0.125000X0.262500X-0.125000X0.262500X0.125000X-0.262500X0.125000X0*%
%ADD38R,3.400000X4.000000*%
G04 APERTURE END LIST*
D10*
%TO.C,C3*%
X98862500Y-108700000D03*
X97137500Y-108700000D03*
%TD*%
D11*
%TO.C,SW3*%
X145319999Y-98959999D03*
X145319999Y-101499999D03*
X145319999Y-104039999D03*
X145319999Y-106579999D03*
X137699999Y-106579999D03*
X137699999Y-104039999D03*
X137699999Y-101499999D03*
D12*
X137699999Y-98959999D03*
%TD*%
D13*
%TO.C,R2*%
X83712500Y-97100000D03*
X81887500Y-97100000D03*
%TD*%
D14*
%TO.C,SW1*%
X118799999Y-85999999D03*
X125999999Y-85999999D03*
X118799999Y-88999999D03*
X125999999Y-88999999D03*
%TD*%
D15*
%TO.C,R6*%
X106800000Y-89000000D03*
X106800000Y-87175000D03*
%TD*%
D16*
%TO.C,C16*%
X128600000Y-98662500D03*
X128600000Y-96937500D03*
%TD*%
%TO.C,C17*%
X127000000Y-98662500D03*
X127000000Y-96937500D03*
%TD*%
D14*
%TO.C,SW2*%
X108899999Y-85999999D03*
X116099999Y-85999999D03*
X108899999Y-88999999D03*
X116099999Y-88999999D03*
%TD*%
D13*
%TO.C,R7*%
X115412500Y-96400000D03*
X113587500Y-96400000D03*
%TD*%
D16*
%TO.C,C1*%
X89031260Y-99862500D03*
X89031260Y-98137500D03*
%TD*%
D10*
%TO.C,C6*%
X83700000Y-98800000D03*
X81975000Y-98800000D03*
%TD*%
D16*
%TO.C,C11*%
X85600000Y-95462500D03*
X85600000Y-93737500D03*
%TD*%
D17*
%TO.C,U3*%
X70799999Y-84399999D03*
X70799999Y-86699999D03*
D18*
X77099999Y-86699999D03*
D17*
X70799999Y-88999999D03*
%TD*%
D19*
%TO.C,R5*%
X124175000Y-83900000D03*
X126000000Y-83900000D03*
%TD*%
D16*
%TO.C,C18*%
X125350000Y-98662500D03*
X125350000Y-96937500D03*
%TD*%
D20*
%TO.C,J3*%
X110424999Y-93824999D03*
D21*
X107884999Y-93824999D03*
X105344999Y-93824999D03*
%TD*%
D22*
%TO.C,U2*%
X89031260Y-108537500D03*
X89431260Y-108537500D03*
X89831260Y-108537500D03*
X90231260Y-108537500D03*
X90631260Y-108537500D03*
X91031260Y-108537500D03*
X91431260Y-108537500D03*
X91831260Y-108537500D03*
X92231260Y-108537500D03*
X92631260Y-108537500D03*
X93031260Y-108537500D03*
X93431260Y-108537500D03*
X93831260Y-108537500D03*
X94231260Y-108537500D03*
D23*
X95068760Y-107700000D03*
X95068760Y-107300000D03*
X95068760Y-106900000D03*
X95068760Y-106500000D03*
X95068760Y-106100000D03*
X95068760Y-105700000D03*
X95068760Y-105300000D03*
X95068760Y-104900000D03*
X95068760Y-104500000D03*
X95068760Y-104100000D03*
X95068760Y-103700000D03*
X95068760Y-103300000D03*
X95068760Y-102900000D03*
X95068760Y-102500000D03*
D22*
X94231260Y-101662500D03*
X93831260Y-101662500D03*
X93431260Y-101662500D03*
X93031260Y-101662500D03*
X92631260Y-101662500D03*
X92231260Y-101662500D03*
X91831260Y-101662500D03*
X91431260Y-101662500D03*
X91031260Y-101662500D03*
X90631260Y-101662500D03*
X90231260Y-101662500D03*
X89831260Y-101662500D03*
X89431260Y-101662500D03*
X89031260Y-101662500D03*
D23*
X88193760Y-102500000D03*
X88193760Y-102900000D03*
X88193760Y-103300000D03*
X88193760Y-103700000D03*
X88193760Y-104100000D03*
X88193760Y-104500000D03*
X88193760Y-104900000D03*
X88193760Y-105300000D03*
X88193760Y-105700000D03*
X88193760Y-106100000D03*
X88193760Y-106500000D03*
X88193760Y-106900000D03*
X88193760Y-107300000D03*
X88193760Y-107700000D03*
D24*
X91631259Y-105099999D03*
%TD*%
D25*
%TO.C,C9*%
X98837500Y-101600000D03*
X100562500Y-101600000D03*
%TD*%
D19*
%TO.C,R4*%
X116975000Y-83900000D03*
X118800000Y-83900000D03*
%TD*%
D15*
%TO.C,R9*%
X141800000Y-93812500D03*
X141800000Y-91987500D03*
%TD*%
%TO.C,R10*%
X140100000Y-93812500D03*
X140100000Y-91987500D03*
%TD*%
D26*
%TO.C,C20*%
X70462500Y-95437500D03*
X70462500Y-97162500D03*
%TD*%
D15*
%TO.C,R8*%
X143500000Y-93812500D03*
X143500000Y-91987500D03*
%TD*%
D10*
%TO.C,C14*%
X68362500Y-89000000D03*
X66637500Y-89000000D03*
%TD*%
D19*
%TO.C,R1*%
X98525000Y-96200000D03*
X100350000Y-96200000D03*
%TD*%
D27*
%TO.C,U4*%
X70462500Y-91750000D03*
X70462500Y-92700000D03*
X70462500Y-93650000D03*
X72737500Y-93650000D03*
X72737500Y-91750000D03*
%TD*%
D28*
%TO.C,DS1*%
X132449999Y-104974999D03*
D29*
X132049999Y-104574999D03*
X104149999Y-104574999D03*
D28*
X103749999Y-104974999D03*
D30*
X130349999Y-101874999D03*
X129849999Y-101874999D03*
X129349999Y-101874999D03*
X128849999Y-101874999D03*
X128349999Y-101874999D03*
X127849999Y-101874999D03*
X127349999Y-101874999D03*
X126849999Y-101874999D03*
X126349999Y-101874999D03*
X125849999Y-101874999D03*
X125349999Y-101874999D03*
X124849999Y-101874999D03*
X124349999Y-101874999D03*
X123849999Y-101874999D03*
X123349999Y-101874999D03*
X122849999Y-101874999D03*
X122349999Y-101874999D03*
X121849999Y-101874999D03*
X121349999Y-101874999D03*
X120849999Y-101874999D03*
X120349999Y-101874999D03*
X119849999Y-101874999D03*
X119349999Y-101874999D03*
X118849999Y-101874999D03*
X118349999Y-101874999D03*
X117849999Y-101874999D03*
X117349999Y-101874999D03*
X116849999Y-101874999D03*
X116349999Y-101874999D03*
X115849999Y-101874999D03*
X115349999Y-101874999D03*
X114849999Y-101874999D03*
X114349999Y-101874999D03*
X113849999Y-101874999D03*
X113349999Y-101874999D03*
X112849999Y-101874999D03*
X112349999Y-101874999D03*
X111849999Y-101874999D03*
X111349999Y-101874999D03*
X110849999Y-101874999D03*
X110349999Y-101874999D03*
X109849999Y-101874999D03*
X109349999Y-101874999D03*
X108849999Y-101874999D03*
X108349999Y-101874999D03*
X107849999Y-101874999D03*
X107349999Y-101874999D03*
X106849999Y-101874999D03*
X106349999Y-101874999D03*
X105849999Y-101874999D03*
%TD*%
D16*
%TO.C,C7*%
X87300000Y-95462500D03*
X87300000Y-93737500D03*
%TD*%
%TO.C,C19*%
X130200000Y-98662500D03*
X130200000Y-96937500D03*
%TD*%
D10*
%TO.C,C5*%
X88062500Y-110400000D03*
X86337500Y-110400000D03*
%TD*%
D31*
%TO.C,Y1*%
X98524999Y-94299999D03*
X100274999Y-94299999D03*
X100274999Y-92899999D03*
X98524999Y-92899999D03*
%TD*%
D15*
%TO.C,R11*%
X138410000Y-93812500D03*
X138410000Y-91987500D03*
%TD*%
D16*
%TO.C,C8*%
X76800000Y-100562500D03*
X76800000Y-98837500D03*
%TD*%
D32*
%TO.C,J1*%
X64562499Y-96699999D03*
X64562499Y-97349999D03*
X64562499Y-97999999D03*
X64562499Y-98649999D03*
X64562499Y-99299999D03*
D33*
X61862499Y-94499999D03*
D34*
X61862499Y-95099999D03*
D35*
X64562500Y-95500000D03*
D36*
X61862499Y-96999999D03*
X61862499Y-98999999D03*
D35*
X64562500Y-100500000D03*
D34*
X61862499Y-100899999D03*
D33*
X61862499Y-101499999D03*
%TD*%
D10*
%TO.C,C10*%
X83700000Y-100600000D03*
X81975000Y-100600000D03*
%TD*%
D25*
%TO.C,C12*%
X101137500Y-90800000D03*
X102862500Y-90800000D03*
%TD*%
D13*
%TO.C,R3*%
X83712500Y-95500000D03*
X81887500Y-95500000D03*
%TD*%
D16*
%TO.C,C2*%
X92631260Y-96062500D03*
X92631260Y-94337500D03*
%TD*%
D37*
%TO.C,U1*%
X78527500Y-102690000D03*
X78527500Y-103960000D03*
X78527500Y-105230000D03*
X78527500Y-106500000D03*
X83852500Y-106500000D03*
X83852500Y-105230000D03*
X83852500Y-103960000D03*
X83852500Y-102690000D03*
D38*
X81189999Y-104594999D03*
%TD*%
D26*
%TO.C,C22*%
X72100000Y-95437500D03*
X72100000Y-97162500D03*
%TD*%
D25*
%TO.C,C4*%
X94437500Y-113600000D03*
X96162500Y-113600000D03*
%TD*%
%TO.C,C21*%
X74837500Y-91750000D03*
X76562500Y-91750000D03*
%TD*%
D10*
%TO.C,C15*%
X68362500Y-86700000D03*
X66637500Y-86700000D03*
%TD*%
D16*
%TO.C,C13*%
X96400000Y-94300000D03*
X96400000Y-92575000D03*
%TD*%
M02*
